<svg width="770" height="1148" viewBox="0 0 770 1148" xmlns="http://www.w3.org/2000/svg">
  <style>
    .cell { fill: white; stroke: black; stroke-width: 3px; }
    .number { font-family: sans-serif; font-weight: bold; }
    .across-num { font-size: 8px; }
    .down-num { font-size: 8px; }
    .clue-title { font-family: sans-serif; font-weight: bold; font-size: 18px; }
    .clue-text { font-family: sans-serif; font-size: 14px; }
  </style>
  <rect x="10" y="190" width="30" height="30" class="cell" />
  <text x="12" y="200" class="number across-num">8</text>
  <text x="25" y="218" class="number down-num">9</text>
  <rect x="10" y="220" width="30" height="30" class="cell" />
  <rect x="10" y="250" width="30" height="30" class="cell" />
  <rect x="10" y="280" width="30" height="30" class="cell" />
  <rect x="10" y="310" width="30" height="30" class="cell" />
  <rect x="10" y="340" width="30" height="30" class="cell" />
  <rect x="10" y="370" width="30" height="30" class="cell" />
  <rect x="10" y="400" width="30" height="30" class="cell" />
  <rect x="10" y="430" width="30" height="30" class="cell" />
  <rect x="40" y="190" width="30" height="30" class="cell" />
  <rect x="70" y="40" width="30" height="30" class="cell" />
  <text x="72" y="68" class="number down-num">2</text>
  <rect x="70" y="70" width="30" height="30" class="cell" />
  <rect x="70" y="100" width="30" height="30" class="cell" />
  <rect x="70" y="130" width="30" height="30" class="cell" />
  <rect x="70" y="160" width="30" height="30" class="cell" />
  <rect x="70" y="190" width="30" height="30" class="cell" />
  <rect x="70" y="220" width="30" height="30" class="cell" />
  <rect x="70" y="250" width="30" height="30" class="cell" />
  <rect x="70" y="280" width="30" height="30" class="cell" />
  <rect x="70" y="310" width="30" height="30" class="cell" />
  <rect x="100" y="190" width="30" height="30" class="cell" />
  <rect x="130" y="10" width="30" height="30" class="cell" />
  <text x="132" y="38" class="number down-num">1</text>
  <rect x="130" y="40" width="30" height="30" class="cell" />
  <rect x="130" y="70" width="30" height="30" class="cell" />
  <rect x="130" y="100" width="30" height="30" class="cell" />
  <rect x="130" y="130" width="30" height="30" class="cell" />
  <rect x="130" y="160" width="30" height="30" class="cell" />
  <rect x="130" y="190" width="30" height="30" class="cell" />
  <rect x="130" y="220" width="30" height="30" class="cell" />
  <rect x="130" y="250" width="30" height="30" class="cell" />
  <rect x="130" y="280" width="30" height="30" class="cell" />
  <rect x="130" y="310" width="30" height="30" class="cell" />
  <rect x="130" y="340" width="30" height="30" class="cell" />
  <rect x="130" y="370" width="30" height="30" class="cell" />
  <rect x="130" y="730" width="30" height="30" class="cell" />
  <text x="132" y="740" class="number across-num">20</text>
  <rect x="160" y="190" width="30" height="30" class="cell" />
  <rect x="160" y="730" width="30" height="30" class="cell" />
  <rect x="190" y="190" width="30" height="30" class="cell" />
  <rect x="190" y="610" width="30" height="30" class="cell" />
  <text x="192" y="620" class="number across-num">18</text>
  <rect x="190" y="730" width="30" height="30" class="cell" />
  <rect x="220" y="190" width="30" height="30" class="cell" />
  <rect x="220" y="370" width="30" height="30" class="cell" />
  <text x="222" y="380" class="number across-num">13</text>
  <rect x="220" y="460" width="30" height="30" class="cell" />
  <text x="222" y="488" class="number down-num">16</text>
  <rect x="220" y="490" width="30" height="30" class="cell" />
  <rect x="220" y="520" width="30" height="30" class="cell" />
  <text x="222" y="530" class="number across-num">17</text>
  <rect x="220" y="550" width="30" height="30" class="cell" />
  <rect x="220" y="580" width="30" height="30" class="cell" />
  <rect x="220" y="610" width="30" height="30" class="cell" />
  <rect x="220" y="640" width="30" height="30" class="cell" />
  <rect x="220" y="670" width="30" height="30" class="cell" />
  <rect x="220" y="700" width="30" height="30" class="cell" />
  <rect x="220" y="730" width="30" height="30" class="cell" />
  <rect x="250" y="130" width="30" height="30" class="cell" />
  <text x="252" y="158" class="number down-num">6</text>
  <rect x="250" y="160" width="30" height="30" class="cell" />
  <rect x="250" y="190" width="30" height="30" class="cell" />
  <rect x="250" y="220" width="30" height="30" class="cell" />
  <rect x="250" y="250" width="30" height="30" class="cell" />
  <rect x="250" y="280" width="30" height="30" class="cell" />
  <rect x="250" y="310" width="30" height="30" class="cell" />
  <rect x="250" y="340" width="30" height="30" class="cell" />
  <rect x="250" y="370" width="30" height="30" class="cell" />
  <rect x="250" y="400" width="30" height="30" class="cell" />
  <rect x="250" y="430" width="30" height="30" class="cell" />
  <rect x="250" y="520" width="30" height="30" class="cell" />
  <rect x="250" y="610" width="30" height="30" class="cell" />
  <rect x="250" y="730" width="30" height="30" class="cell" />
  <rect x="280" y="190" width="30" height="30" class="cell" />
  <rect x="280" y="370" width="30" height="30" class="cell" />
  <rect x="280" y="520" width="30" height="30" class="cell" />
  <rect x="280" y="610" width="30" height="30" class="cell" />
  <rect x="280" y="730" width="30" height="30" class="cell" />
  <rect x="310" y="280" width="30" height="30" class="cell" />
  <text x="312" y="290" class="number across-num">11</text>
  <rect x="310" y="370" width="30" height="30" class="cell" />
  <rect x="310" y="520" width="30" height="30" class="cell" />
  <rect x="310" y="610" width="30" height="30" class="cell" />
  <rect x="310" y="730" width="30" height="30" class="cell" />
  <rect x="340" y="280" width="30" height="30" class="cell" />
  <rect x="340" y="370" width="30" height="30" class="cell" />
  <rect x="340" y="520" width="30" height="30" class="cell" />
  <rect x="340" y="610" width="30" height="30" class="cell" />
  <rect x="340" y="730" width="30" height="30" class="cell" />
  <rect x="370" y="160" width="30" height="30" class="cell" />
  <text x="372" y="170" class="number across-num">7</text>
  <rect x="370" y="280" width="30" height="30" class="cell" />
  <rect x="370" y="370" width="30" height="30" class="cell" />
  <rect x="370" y="520" width="30" height="30" class="cell" />
  <rect x="370" y="610" width="30" height="30" class="cell" />
  <rect x="370" y="670" width="30" height="30" class="cell" />
  <text x="372" y="680" class="number across-num">19</text>
  <rect x="370" y="730" width="30" height="30" class="cell" />
  <rect x="400" y="160" width="30" height="30" class="cell" />
  <rect x="400" y="250" width="30" height="30" class="cell" />
  <text x="402" y="278" class="number down-num">10</text>
  <rect x="400" y="280" width="30" height="30" class="cell" />
  <rect x="400" y="310" width="30" height="30" class="cell" />
  <rect x="400" y="340" width="30" height="30" class="cell" />
  <rect x="400" y="370" width="30" height="30" class="cell" />
  <rect x="400" y="400" width="30" height="30" class="cell" />
  <rect x="400" y="430" width="30" height="30" class="cell" />
  <text x="402" y="440" class="number across-num">15</text>
  <rect x="400" y="460" width="30" height="30" class="cell" />
  <rect x="400" y="490" width="30" height="30" class="cell" />
  <rect x="400" y="520" width="30" height="30" class="cell" />
  <rect x="400" y="550" width="30" height="30" class="cell" />
  <rect x="400" y="610" width="30" height="30" class="cell" />
  <rect x="400" y="670" width="30" height="30" class="cell" />
  <rect x="400" y="730" width="30" height="30" class="cell" />
  <rect x="430" y="100" width="30" height="30" class="cell" />
  <text x="432" y="110" class="number across-num">5</text>
  <rect x="430" y="160" width="30" height="30" class="cell" />
  <rect x="430" y="280" width="30" height="30" class="cell" />
  <rect x="430" y="370" width="30" height="30" class="cell" />
  <rect x="430" y="430" width="30" height="30" class="cell" />
  <rect x="430" y="520" width="30" height="30" class="cell" />
  <rect x="430" y="610" width="30" height="30" class="cell" />
  <rect x="430" y="670" width="30" height="30" class="cell" />
  <rect x="430" y="730" width="30" height="30" class="cell" />
  <rect x="460" y="100" width="30" height="30" class="cell" />
  <rect x="460" y="160" width="30" height="30" class="cell" />
  <rect x="460" y="280" width="30" height="30" class="cell" />
  <rect x="460" y="370" width="30" height="30" class="cell" />
  <rect x="460" y="430" width="30" height="30" class="cell" />
  <rect x="460" y="520" width="30" height="30" class="cell" />
  <rect x="460" y="610" width="30" height="30" class="cell" />
  <rect x="460" y="670" width="30" height="30" class="cell" />
  <rect x="460" y="730" width="30" height="30" class="cell" />
  <rect x="490" y="100" width="30" height="30" class="cell" />
  <rect x="490" y="160" width="30" height="30" class="cell" />
  <rect x="490" y="280" width="30" height="30" class="cell" />
  <rect x="490" y="370" width="30" height="30" class="cell" />
  <rect x="490" y="430" width="30" height="30" class="cell" />
  <rect x="490" y="520" width="30" height="30" class="cell" />
  <rect x="490" y="670" width="30" height="30" class="cell" />
  <rect x="490" y="730" width="30" height="30" class="cell" />
  <rect x="520" y="70" width="30" height="30" class="cell" />
  <text x="522" y="98" class="number down-num">4</text>
  <rect x="520" y="100" width="30" height="30" class="cell" />
  <rect x="520" y="130" width="30" height="30" class="cell" />
  <rect x="520" y="160" width="30" height="30" class="cell" />
  <rect x="520" y="190" width="30" height="30" class="cell" />
  <rect x="520" y="220" width="30" height="30" class="cell" />
  <rect x="520" y="250" width="30" height="30" class="cell" />
  <rect x="520" y="280" width="30" height="30" class="cell" />
  <rect x="520" y="310" width="30" height="30" class="cell" />
  <rect x="520" y="340" width="30" height="30" class="cell" />
  <rect x="520" y="370" width="30" height="30" class="cell" />
  <rect x="520" y="430" width="30" height="30" class="cell" />
  <rect x="520" y="520" width="30" height="30" class="cell" />
  <rect x="520" y="670" width="30" height="30" class="cell" />
  <rect x="550" y="100" width="30" height="30" class="cell" />
  <rect x="550" y="160" width="30" height="30" class="cell" />
  <rect x="550" y="280" width="30" height="30" class="cell" />
  <rect x="550" y="430" width="30" height="30" class="cell" />
  <rect x="550" y="670" width="30" height="30" class="cell" />
  <rect x="580" y="100" width="30" height="30" class="cell" />
  <rect x="580" y="160" width="30" height="30" class="cell" />
  <rect x="580" y="340" width="30" height="30" class="cell" />
  <text x="582" y="368" class="number down-num">12</text>
  <rect x="580" y="370" width="30" height="30" class="cell" />
  <rect x="580" y="400" width="30" height="30" class="cell" />
  <rect x="580" y="430" width="30" height="30" class="cell" />
  <rect x="580" y="460" width="30" height="30" class="cell" />
  <rect x="580" y="490" width="30" height="30" class="cell" />
  <rect x="580" y="520" width="30" height="30" class="cell" />
  <rect x="580" y="550" width="30" height="30" class="cell" />
  <rect x="580" y="580" width="30" height="30" class="cell" />
  <rect x="580" y="610" width="30" height="30" class="cell" />
  <rect x="580" y="670" width="30" height="30" class="cell" />
  <rect x="610" y="100" width="30" height="30" class="cell" />
  <rect x="610" y="160" width="30" height="30" class="cell" />
  <rect x="610" y="430" width="30" height="30" class="cell" />
  <rect x="610" y="670" width="30" height="30" class="cell" />
  <rect x="640" y="100" width="30" height="30" class="cell" />
  <rect x="640" y="160" width="30" height="30" class="cell" />
  <rect x="640" y="430" width="30" height="30" class="cell" />
  <rect x="640" y="670" width="30" height="30" class="cell" />
  <rect x="670" y="100" width="30" height="30" class="cell" />
  <rect x="670" y="430" width="30" height="30" class="cell" />
  <rect x="670" y="670" width="30" height="30" class="cell" />
  <rect x="700" y="100" width="30" height="30" class="cell" />
  <rect x="700" y="400" width="30" height="30" class="cell" />
  <text x="702" y="428" class="number down-num">14</text>
  <rect x="700" y="430" width="30" height="30" class="cell" />
  <rect x="700" y="460" width="30" height="30" class="cell" />
  <rect x="700" y="490" width="30" height="30" class="cell" />
  <rect x="700" y="520" width="30" height="30" class="cell" />
  <rect x="700" y="550" width="30" height="30" class="cell" />
  <rect x="700" y="580" width="30" height="30" class="cell" />
  <rect x="700" y="610" width="30" height="30" class="cell" />
  <rect x="700" y="640" width="30" height="30" class="cell" />
  <rect x="700" y="670" width="30" height="30" class="cell" />
  <rect x="730" y="40" width="30" height="30" class="cell" />
  <text x="732" y="68" class="number down-num">3</text>
  <rect x="730" y="70" width="30" height="30" class="cell" />
  <rect x="730" y="100" width="30" height="30" class="cell" />
  <rect x="730" y="130" width="30" height="30" class="cell" />
  <rect x="730" y="160" width="30" height="30" class="cell" />
  <rect x="730" y="190" width="30" height="30" class="cell" />
  <rect x="730" y="220" width="30" height="30" class="cell" />
  <rect x="730" y="250" width="30" height="30" class="cell" />
  <rect x="730" y="280" width="30" height="30" class="cell" />
  <rect x="730" y="310" width="30" height="30" class="cell" />
  <rect x="730" y="430" width="30" height="30" class="cell" />
  <text x="30" y="810" class="clue-title">Across</text>
  <text y="830" class="clue-text">
    <tspan x="30" dy="0em" fill="black">5. Secured with a lock</tspan>
  </text>
  <text y="850" class="clue-text">
    <tspan x="30" dy="0em" fill="black">7. Find something unexpectedly</tspan>
  </text>
  <text y="870" class="clue-text">
    <tspan x="30" dy="0em" fill="black">8. Moved stealthily</tspan>
  </text>
  <text y="890" class="clue-text">
    <tspan x="30" dy="0em" fill="black">11. Not artificial</tspan>
  </text>
  <text y="910" class="clue-text">
    <tspan x="30" dy="0em" fill="black">13. Coming closer</tspan>
  </text>
  <text y="930" class="clue-text">
    <tspan x="30" dy="0em" fill="black">15. Enthusiasm</tspan>
  </text>
  <text y="950" class="clue-text">
    <tspan x="30" dy="0em" fill="black">17. Was owned by</tspan>
  </text>
  <text y="970" class="clue-text">
    <tspan x="30" dy="0em" fill="black">18. In a shy manner</tspan>
  </text>
  <text y="990" class="clue-text">
    <tspan x="30" dy="0em" fill="black">19. Not able to be foreseen</tspan>
  </text>
  <text y="1010" class="clue-text">
    <tspan x="30" dy="0em" fill="black">20. Not locked</tspan>
  </text>
  <text x="405.0" y="810" class="clue-title">Down</text>
  <text y="830" class="clue-text">
    <tspan x="405.0" dy="0em" fill="black">1. Fastened with a bolt</tspan>
  </text>
  <text y="850" class="clue-text">
    <tspan x="405.0" dy="0em" fill="black">2. Secured with a lock</tspan>
  </text>
  <text y="870" class="clue-text">
    <tspan x="405.0" dy="0em" fill="black">3. Difficult to understand</tspan>
  </text>
  <text y="890" class="clue-text">
    <tspan x="405.0" dy="0em" fill="black">4. Engage in activity</tspan>
  </text>
  <text y="910" class="clue-text">
    <tspan x="405.0" dy="0em" fill="black">6. Relating to Hindustani language</tspan>
  </text>
  <text y="930" class="clue-text">
    <tspan x="405.0" dy="0em" fill="black">9. In a proud manner</tspan>
  </text>
  <text y="950" class="clue-text">
    <tspan x="405.0" dy="0em" fill="black">10. Relating to music</tspan>
  </text>
  <text y="970" class="clue-text">
    <tspan x="405.0" dy="0em" fill="black">12. To contract</tspan>
  </text>
  <text y="990" class="clue-text">
    <tspan x="405.0" dy="0em" fill="black">14. Healthcare professional</tspan>
  </text>
  <text y="1010" class="clue-text">
    <tspan x="405.0" dy="0em" fill="black">16. Belonging to the past</tspan>
  </text>
 <text y="1050" class="solution-text">
   <tspan x="10" dy="0em" fill="grey">enneicna'l .61 ,erèimrifni .41 ,tnerèpsirc .21 ,senneicisum .01 ,tnemerèif .9 ,inatsuodnih .6 ,tnelliavart .4</tspan>
   <tspan x="10" dy="1.2em" fill="grey">,xueirétsym .3 ,élliuorrev .2 ,snoilliuorrev .1 :NWOD    eélliuorrevéd .02 ,elbisivérpmi .91 ,tnemedimit .81</tspan>
   <tspan x="10" dy="1.2em" fill="grey">,tianetrappa .71 ,tnemesserpme .51 ,tnahcorppar .31 ,ellerutan .11 ,snoilifuaf .8 ,tnervuocéd .7 ,sélliuorrev .5</tspan>
   <tspan x="10" dy="1.2em" fill="grey">:SSORCA</tspan>
 </text>
</svg>