<svg width="680" height="978" viewBox="0 0 680 978" xmlns="http://www.w3.org/2000/svg">
  <style>
    .cell { fill: white; stroke: black; stroke-width: 3px; }
    .number { font-family: sans-serif; font-weight: bold; }
    .across-num { font-size: 8px; }
    .down-num { font-size: 8px; }
    .clue-title { font-family: sans-serif; font-weight: bold; font-size: 18px; }
    .clue-text { font-family: sans-serif; font-size: 14px; }
  </style>
  <rect x="10" y="400" width="30" height="30" class="cell" />
  <text x="12" y="410" class="number across-num">13</text>
  <rect x="40" y="160" width="30" height="30" class="cell" />
  <text x="42" y="188" class="number down-num">4</text>
  <rect x="40" y="190" width="30" height="30" class="cell" />
  <rect x="40" y="220" width="30" height="30" class="cell" />
  <rect x="40" y="250" width="30" height="30" class="cell" />
  <rect x="40" y="280" width="30" height="30" class="cell" />
  <rect x="40" y="310" width="30" height="30" class="cell" />
  <rect x="40" y="340" width="30" height="30" class="cell" />
  <rect x="40" y="370" width="30" height="30" class="cell" />
  <rect x="40" y="400" width="30" height="30" class="cell" />
  <rect x="40" y="430" width="30" height="30" class="cell" />
  <rect x="40" y="520" width="30" height="30" class="cell" />
  <text x="42" y="530" class="number across-num">15</text>
  <rect x="70" y="400" width="30" height="30" class="cell" />
  <rect x="70" y="520" width="30" height="30" class="cell" />
  <rect x="100" y="400" width="30" height="30" class="cell" />
  <rect x="100" y="520" width="30" height="30" class="cell" />
  <rect x="130" y="190" width="30" height="30" class="cell" />
  <text x="132" y="218" class="number down-num">5</text>
  <rect x="130" y="220" width="30" height="30" class="cell" />
  <rect x="130" y="250" width="30" height="30" class="cell" />
  <rect x="130" y="280" width="30" height="30" class="cell" />
  <rect x="130" y="310" width="30" height="30" class="cell" />
  <rect x="130" y="340" width="30" height="30" class="cell" />
  <rect x="130" y="370" width="30" height="30" class="cell" />
  <rect x="130" y="400" width="30" height="30" class="cell" />
  <rect x="130" y="430" width="30" height="30" class="cell" />
  <rect x="130" y="520" width="30" height="30" class="cell" />
  <rect x="160" y="400" width="30" height="30" class="cell" />
  <rect x="160" y="520" width="30" height="30" class="cell" />
  <rect x="190" y="250" width="30" height="30" class="cell" />
  <text x="192" y="260" class="number across-num">8</text>
  <rect x="190" y="400" width="30" height="30" class="cell" />
  <rect x="190" y="520" width="30" height="30" class="cell" />
  <rect x="220" y="40" width="30" height="30" class="cell" />
  <text x="222" y="50" class="number across-num">2</text>
  <rect x="220" y="220" width="30" height="30" class="cell" />
  <text x="222" y="248" class="number down-num">7</text>
  <rect x="220" y="250" width="30" height="30" class="cell" />
  <rect x="220" y="280" width="30" height="30" class="cell" />
  <rect x="220" y="310" width="30" height="30" class="cell" />
  <rect x="220" y="340" width="30" height="30" class="cell" />
  <rect x="220" y="370" width="30" height="30" class="cell" />
  <rect x="220" y="400" width="30" height="30" class="cell" />
  <rect x="220" y="430" width="30" height="30" class="cell" />
  <rect x="220" y="460" width="30" height="30" class="cell" />
  <rect x="220" y="520" width="30" height="30" class="cell" />
  <rect x="250" y="40" width="30" height="30" class="cell" />
  <rect x="250" y="250" width="30" height="30" class="cell" />
  <rect x="250" y="400" width="30" height="30" class="cell" />
  <rect x="250" y="520" width="30" height="30" class="cell" />
  <rect x="250" y="580" width="30" height="30" class="cell" />
  <text x="252" y="590" class="number across-num">16</text>
  <rect x="280" y="40" width="30" height="30" class="cell" />
  <rect x="280" y="250" width="30" height="30" class="cell" />
  <rect x="280" y="520" width="30" height="30" class="cell" />
  <rect x="280" y="580" width="30" height="30" class="cell" />
  <rect x="310" y="40" width="30" height="30" class="cell" />
  <rect x="310" y="130" width="30" height="30" class="cell" />
  <text x="312" y="140" class="number across-num">3</text>
  <rect x="310" y="250" width="30" height="30" class="cell" />
  <text x="312" y="278" class="number down-num">9</text>
  <rect x="310" y="280" width="30" height="30" class="cell" />
  <rect x="310" y="310" width="30" height="30" class="cell" />
  <rect x="310" y="340" width="30" height="30" class="cell" />
  <rect x="310" y="370" width="30" height="30" class="cell" />
  <rect x="310" y="400" width="30" height="30" class="cell" />
  <rect x="310" y="430" width="30" height="30" class="cell" />
  <rect x="310" y="460" width="30" height="30" class="cell" />
  <rect x="310" y="490" width="30" height="30" class="cell" />
  <rect x="310" y="520" width="30" height="30" class="cell" />
  <rect x="310" y="580" width="30" height="30" class="cell" />
  <rect x="340" y="10" width="30" height="30" class="cell" />
  <text x="342" y="38" class="number down-num">1</text>
  <rect x="340" y="40" width="30" height="30" class="cell" />
  <rect x="340" y="70" width="30" height="30" class="cell" />
  <rect x="340" y="100" width="30" height="30" class="cell" />
  <rect x="340" y="130" width="30" height="30" class="cell" />
  <rect x="340" y="160" width="30" height="30" class="cell" />
  <rect x="340" y="190" width="30" height="30" class="cell" />
  <rect x="340" y="220" width="30" height="30" class="cell" />
  <rect x="340" y="250" width="30" height="30" class="cell" />
  <rect x="340" y="580" width="30" height="30" class="cell" />
  <rect x="370" y="40" width="30" height="30" class="cell" />
  <rect x="370" y="130" width="30" height="30" class="cell" />
  <rect x="370" y="250" width="30" height="30" class="cell" />
  <rect x="370" y="580" width="30" height="30" class="cell" />
  <rect x="400" y="40" width="30" height="30" class="cell" />
  <rect x="400" y="130" width="30" height="30" class="cell" />
  <rect x="400" y="250" width="30" height="30" class="cell" />
  <rect x="400" y="400" width="30" height="30" class="cell" />
  <text x="402" y="410" class="number across-num">14</text>
  <rect x="400" y="580" width="30" height="30" class="cell" />
  <rect x="430" y="40" width="30" height="30" class="cell" />
  <rect x="430" y="130" width="30" height="30" class="cell" />
  <rect x="430" y="190" width="30" height="30" class="cell" />
  <text x="432" y="218" class="number down-num">6</text>
  <rect x="430" y="220" width="30" height="30" class="cell" />
  <rect x="430" y="250" width="30" height="30" class="cell" />
  <rect x="430" y="280" width="30" height="30" class="cell" />
  <rect x="430" y="310" width="30" height="30" class="cell" />
  <rect x="430" y="340" width="30" height="30" class="cell" />
  <rect x="430" y="370" width="30" height="30" class="cell" />
  <rect x="430" y="400" width="30" height="30" class="cell" />
  <rect x="430" y="430" width="30" height="30" class="cell" />
  <rect x="430" y="580" width="30" height="30" class="cell" />
  <rect x="460" y="40" width="30" height="30" class="cell" />
  <rect x="460" y="130" width="30" height="30" class="cell" />
  <rect x="460" y="250" width="30" height="30" class="cell" />
  <rect x="460" y="400" width="30" height="30" class="cell" />
  <rect x="460" y="580" width="30" height="30" class="cell" />
  <rect x="490" y="40" width="30" height="30" class="cell" />
  <rect x="490" y="130" width="30" height="30" class="cell" />
  <rect x="490" y="310" width="30" height="30" class="cell" />
  <text x="492" y="338" class="number down-num">12</text>
  <rect x="490" y="340" width="30" height="30" class="cell" />
  <rect x="490" y="370" width="30" height="30" class="cell" />
  <rect x="490" y="400" width="30" height="30" class="cell" />
  <rect x="490" y="430" width="30" height="30" class="cell" />
  <rect x="490" y="460" width="30" height="30" class="cell" />
  <rect x="490" y="490" width="30" height="30" class="cell" />
  <rect x="490" y="520" width="30" height="30" class="cell" />
  <rect x="490" y="550" width="30" height="30" class="cell" />
  <rect x="490" y="580" width="30" height="30" class="cell" />
  <rect x="520" y="40" width="30" height="30" class="cell" />
  <rect x="520" y="130" width="30" height="30" class="cell" />
  <rect x="520" y="400" width="30" height="30" class="cell" />
  <rect x="550" y="250" width="30" height="30" class="cell" />
  <text x="552" y="278" class="number down-num">10</text>
  <rect x="550" y="280" width="30" height="30" class="cell" />
  <rect x="550" y="310" width="30" height="30" class="cell" />
  <rect x="550" y="340" width="30" height="30" class="cell" />
  <rect x="550" y="370" width="30" height="30" class="cell" />
  <rect x="550" y="400" width="30" height="30" class="cell" />
  <rect x="550" y="430" width="30" height="30" class="cell" />
  <rect x="550" y="460" width="30" height="30" class="cell" />
  <rect x="550" y="490" width="30" height="30" class="cell" />
  <rect x="580" y="400" width="30" height="30" class="cell" />
  <rect x="610" y="280" width="30" height="30" class="cell" />
  <text x="612" y="308" class="number down-num">11</text>
  <rect x="610" y="310" width="30" height="30" class="cell" />
  <rect x="610" y="340" width="30" height="30" class="cell" />
  <rect x="610" y="370" width="30" height="30" class="cell" />
  <rect x="610" y="400" width="30" height="30" class="cell" />
  <rect x="610" y="430" width="30" height="30" class="cell" />
  <rect x="610" y="460" width="30" height="30" class="cell" />
  <rect x="610" y="490" width="30" height="30" class="cell" />
  <rect x="610" y="520" width="30" height="30" class="cell" />
  <rect x="610" y="550" width="30" height="30" class="cell" />
  <rect x="610" y="580" width="30" height="30" class="cell" />
  <rect x="640" y="400" width="30" height="30" class="cell" />
  <text x="30" y="660" class="clue-title">Across</text>
  <text y="680" class="clue-text">
    <tspan x="30" dy="0em" fill="black">2. Awful</tspan>
  </text>
  <text y="700" class="clue-text">
    <tspan x="30" dy="0em" fill="black">3. Naming someone</tspan>
  </text>
  <text y="720" class="clue-text">
    <tspan x="30" dy="0em" fill="black">8. To initiate</tspan>
  </text>
  <text y="740" class="clue-text">
    <tspan x="30" dy="0em" fill="black">13. Endure</tspan>
  </text>
  <text y="760" class="clue-text">
    <tspan x="30" dy="0em" fill="black">14. A number of</tspan>
  </text>
  <text y="780" class="clue-text">
    <tspan x="30" dy="0em" fill="black">15. Saturating with liquid</tspan>
  </text>
  <text y="800" class="clue-text">
    <tspan x="30" dy="0em" fill="black">16. Unsure</tspan>
  </text>
  <text x="360.0" y="660" class="clue-title">Down</text>
  <text y="680" class="clue-text">
    <tspan x="360.0" dy="0em" fill="black">1. Sudden entry</tspan>
  </text>
  <text y="700" class="clue-text">
    <tspan x="360.0" dy="0em" fill="black">4. Emotionally uncontrolled</tspan>
  </text>
  <text y="720" class="clue-text">
    <tspan x="360.0" dy="0em" fill="black">5. State of being abandoned</tspan>
  </text>
  <text y="740" class="clue-text">
    <tspan x="360.0" dy="0em" fill="black">6. Water feature</tspan>
  </text>
  <text y="760" class="clue-text">
    <tspan x="360.0" dy="0em" fill="black">7. Past action of giving</tspan>
  </text>
  <text y="780" class="clue-text">
    <tspan x="360.0" dy="0em" fill="black">9. Precisely</tspan>
  </text>
  <text y="800" class="clue-text">
    <tspan x="360.0" dy="0em" fill="black">10. Having done labor</tspan>
  </text>
  <text y="820" class="clue-text">
    <tspan x="360.0" dy="0em" fill="black">11. Bed coverings</tspan>
  </text>
  <text y="840" class="clue-text">
    <tspan x="360.0" dy="0em" fill="black">12. Relating to the spine</tspan>
  </text>
 <text y="880" class="solution-text">
   <tspan x="10" dy="0em" fill="grey">elarbétrev .21 ,serutrevuoc .11 ,élliavart .01 ,tnemetcaxe .9 ,tneiannod .7 ,seniatnof .6</tspan>
   <tspan x="10" dy="1.2em" fill="grey">,nodnaba'l .5 ,euqirétsyh .4 ,noitpurri .1 :NWOD    etnatiséh .61 ,tnabibmi'l .51 ,seniatrec .41</tspan>
   <tspan x="10" dy="1.2em" fill="grey">,retroppus .31 ,tnecnemmoc .8 ,tnaleppa .3 ,selbirroh'd .2 :SSORCA</tspan>
 </text>
</svg>