<svg width="710" height="1088" viewBox="0 0 710 1088" xmlns="http://www.w3.org/2000/svg">
  <style>
    .cell { fill: white; stroke: black; stroke-width: 3px; }
    .number { font-family: sans-serif; font-weight: bold; }
    .across-num { font-size: 8px; }
    .down-num { font-size: 8px; }
    .clue-title { font-family: sans-serif; font-weight: bold; font-size: 18px; }
    .clue-text { font-family: sans-serif; font-size: 14px; }
  </style>
  <rect x="10" y="640" width="30" height="30" class="cell" />
  <text x="12" y="650" class="number across-num">18</text>
  <rect x="40" y="640" width="30" height="30" class="cell" />
  <rect x="70" y="640" width="30" height="30" class="cell" />
  <rect x="100" y="40" width="30" height="30" class="cell" />
  <text x="102" y="50" class="number across-num">2</text>
  <rect x="100" y="640" width="30" height="30" class="cell" />
  <rect x="130" y="40" width="30" height="30" class="cell" />
  <rect x="130" y="640" width="30" height="30" class="cell" />
  <rect x="160" y="40" width="30" height="30" class="cell" />
  <rect x="160" y="310" width="30" height="30" class="cell" />
  <text x="162" y="338" class="number down-num">10</text>
  <rect x="160" y="340" width="30" height="30" class="cell" />
  <rect x="160" y="370" width="30" height="30" class="cell" />
  <rect x="160" y="400" width="30" height="30" class="cell" />
  <rect x="160" y="430" width="30" height="30" class="cell" />
  <rect x="160" y="460" width="30" height="30" class="cell" />
  <text x="162" y="470" class="number across-num">15</text>
  <rect x="160" y="490" width="30" height="30" class="cell" />
  <rect x="160" y="520" width="30" height="30" class="cell" />
  <rect x="160" y="550" width="30" height="30" class="cell" />
  <rect x="160" y="580" width="30" height="30" class="cell" />
  <rect x="160" y="640" width="30" height="30" class="cell" />
  <rect x="190" y="40" width="30" height="30" class="cell" />
  <rect x="190" y="460" width="30" height="30" class="cell" />
  <rect x="190" y="640" width="30" height="30" class="cell" />
  <rect x="220" y="40" width="30" height="30" class="cell" />
  <rect x="220" y="460" width="30" height="30" class="cell" />
  <rect x="220" y="640" width="30" height="30" class="cell" />
  <rect x="250" y="40" width="30" height="30" class="cell" />
  <rect x="250" y="370" width="30" height="30" class="cell" />
  <text x="252" y="380" class="number across-num">11</text>
  <rect x="250" y="460" width="30" height="30" class="cell" />
  <rect x="250" y="640" width="30" height="30" class="cell" />
  <rect x="280" y="40" width="30" height="30" class="cell" />
  <rect x="280" y="280" width="30" height="30" class="cell" />
  <text x="282" y="290" class="number across-num">7</text>
  <rect x="280" y="370" width="30" height="30" class="cell" />
  <text x="282" y="398" class="number down-num">12</text>
  <rect x="280" y="400" width="30" height="30" class="cell" />
  <rect x="280" y="430" width="30" height="30" class="cell" />
  <rect x="280" y="460" width="30" height="30" class="cell" />
  <rect x="280" y="490" width="30" height="30" class="cell" />
  <rect x="280" y="520" width="30" height="30" class="cell" />
  <rect x="280" y="550" width="30" height="30" class="cell" />
  <rect x="280" y="580" width="30" height="30" class="cell" />
  <rect x="280" y="610" width="30" height="30" class="cell" />
  <rect x="280" y="640" width="30" height="30" class="cell" />
  <rect x="310" y="40" width="30" height="30" class="cell" />
  <rect x="310" y="280" width="30" height="30" class="cell" />
  <rect x="310" y="370" width="30" height="30" class="cell" />
  <rect x="310" y="460" width="30" height="30" class="cell" />
  <rect x="340" y="40" width="30" height="30" class="cell" />
  <text x="342" y="68" class="number down-num">3</text>
  <rect x="340" y="70" width="30" height="30" class="cell" />
  <rect x="340" y="100" width="30" height="30" class="cell" />
  <rect x="340" y="130" width="30" height="30" class="cell" />
  <rect x="340" y="160" width="30" height="30" class="cell" />
  <rect x="340" y="190" width="30" height="30" class="cell" />
  <rect x="340" y="220" width="30" height="30" class="cell" />
  <text x="342" y="230" class="number across-num">6</text>
  <rect x="340" y="250" width="30" height="30" class="cell" />
  <rect x="340" y="280" width="30" height="30" class="cell" />
  <rect x="340" y="370" width="30" height="30" class="cell" />
  <rect x="340" y="460" width="30" height="30" class="cell" />
  <rect x="370" y="220" width="30" height="30" class="cell" />
  <rect x="370" y="280" width="30" height="30" class="cell" />
  <rect x="370" y="370" width="30" height="30" class="cell" />
  <rect x="370" y="490" width="30" height="30" class="cell" />
  <text x="372" y="518" class="number down-num">16</text>
  <rect x="370" y="520" width="30" height="30" class="cell" />
  <rect x="370" y="550" width="30" height="30" class="cell" />
  <rect x="370" y="580" width="30" height="30" class="cell" />
  <text x="372" y="590" class="number across-num">17</text>
  <rect x="370" y="610" width="30" height="30" class="cell" />
  <rect x="370" y="640" width="30" height="30" class="cell" />
  <rect x="370" y="670" width="30" height="30" class="cell" />
  <rect x="400" y="10" width="30" height="30" class="cell" />
  <text x="402" y="38" class="number down-num">1</text>
  <rect x="400" y="40" width="30" height="30" class="cell" />
  <text x="402" y="50" class="number across-num">4</text>
  <rect x="400" y="70" width="30" height="30" class="cell" />
  <rect x="400" y="100" width="30" height="30" class="cell" />
  <rect x="400" y="130" width="30" height="30" class="cell" />
  <rect x="400" y="160" width="30" height="30" class="cell" />
  <rect x="400" y="190" width="30" height="30" class="cell" />
  <rect x="400" y="220" width="30" height="30" class="cell" />
  <rect x="400" y="280" width="30" height="30" class="cell" />
  <rect x="400" y="370" width="30" height="30" class="cell" />
  <rect x="400" y="580" width="30" height="30" class="cell" />
  <rect x="430" y="40" width="30" height="30" class="cell" />
  <rect x="430" y="220" width="30" height="30" class="cell" />
  <rect x="430" y="280" width="30" height="30" class="cell" />
  <rect x="430" y="370" width="30" height="30" class="cell" />
  <text x="432" y="398" class="number down-num">13</text>
  <rect x="430" y="400" width="30" height="30" class="cell" />
  <rect x="430" y="430" width="30" height="30" class="cell" />
  <rect x="430" y="460" width="30" height="30" class="cell" />
  <rect x="430" y="490" width="30" height="30" class="cell" />
  <rect x="430" y="520" width="30" height="30" class="cell" />
  <rect x="430" y="550" width="30" height="30" class="cell" />
  <rect x="430" y="580" width="30" height="30" class="cell" />
  <rect x="430" y="610" width="30" height="30" class="cell" />
  <rect x="430" y="670" width="30" height="30" class="cell" />
  <text x="432" y="680" class="number across-num">19</text>
  <rect x="460" y="40" width="30" height="30" class="cell" />
  <rect x="460" y="220" width="30" height="30" class="cell" />
  <rect x="460" y="280" width="30" height="30" class="cell" />
  <rect x="460" y="370" width="30" height="30" class="cell" />
  <rect x="460" y="580" width="30" height="30" class="cell" />
  <rect x="460" y="670" width="30" height="30" class="cell" />
  <rect x="490" y="40" width="30" height="30" class="cell" />
  <rect x="490" y="220" width="30" height="30" class="cell" />
  <rect x="490" y="280" width="30" height="30" class="cell" />
  <text x="492" y="308" class="number down-num">8</text>
  <rect x="490" y="310" width="30" height="30" class="cell" />
  <rect x="490" y="340" width="30" height="30" class="cell" />
  <rect x="490" y="370" width="30" height="30" class="cell" />
  <rect x="490" y="400" width="30" height="30" class="cell" />
  <rect x="490" y="430" width="30" height="30" class="cell" />
  <rect x="490" y="460" width="30" height="30" class="cell" />
  <rect x="490" y="490" width="30" height="30" class="cell" />
  <rect x="490" y="520" width="30" height="30" class="cell" />
  <rect x="490" y="580" width="30" height="30" class="cell" />
  <rect x="490" y="670" width="30" height="30" class="cell" />
  <rect x="520" y="40" width="30" height="30" class="cell" />
  <rect x="520" y="220" width="30" height="30" class="cell" />
  <rect x="520" y="280" width="30" height="30" class="cell" />
  <rect x="520" y="580" width="30" height="30" class="cell" />
  <rect x="520" y="670" width="30" height="30" class="cell" />
  <rect x="550" y="40" width="30" height="30" class="cell" />
  <rect x="550" y="220" width="30" height="30" class="cell" />
  <rect x="550" y="280" width="30" height="30" class="cell" />
  <rect x="550" y="370" width="30" height="30" class="cell" />
  <text x="552" y="398" class="number down-num">14</text>
  <rect x="550" y="400" width="30" height="30" class="cell" />
  <rect x="550" y="430" width="30" height="30" class="cell" />
  <rect x="550" y="460" width="30" height="30" class="cell" />
  <rect x="550" y="490" width="30" height="30" class="cell" />
  <rect x="550" y="520" width="30" height="30" class="cell" />
  <rect x="550" y="550" width="30" height="30" class="cell" />
  <rect x="550" y="580" width="30" height="30" class="cell" />
  <rect x="550" y="610" width="30" height="30" class="cell" />
  <rect x="550" y="640" width="30" height="30" class="cell" />
  <rect x="550" y="670" width="30" height="30" class="cell" />
  <rect x="580" y="40" width="30" height="30" class="cell" />
  <rect x="580" y="280" width="30" height="30" class="cell" />
  <rect x="580" y="580" width="30" height="30" class="cell" />
  <rect x="580" y="670" width="30" height="30" class="cell" />
  <rect x="610" y="40" width="30" height="30" class="cell" />
  <rect x="610" y="160" width="30" height="30" class="cell" />
  <text x="612" y="188" class="number down-num">5</text>
  <rect x="610" y="190" width="30" height="30" class="cell" />
  <rect x="610" y="220" width="30" height="30" class="cell" />
  <rect x="610" y="250" width="30" height="30" class="cell" />
  <rect x="610" y="280" width="30" height="30" class="cell" />
  <rect x="610" y="310" width="30" height="30" class="cell" />
  <rect x="610" y="340" width="30" height="30" class="cell" />
  <rect x="610" y="370" width="30" height="30" class="cell" />
  <rect x="610" y="400" width="30" height="30" class="cell" />
  <rect x="610" y="670" width="30" height="30" class="cell" />
  <rect x="640" y="40" width="30" height="30" class="cell" />
  <rect x="640" y="280" width="30" height="30" class="cell" />
  <rect x="640" y="670" width="30" height="30" class="cell" />
  <rect x="670" y="280" width="30" height="30" class="cell" />
  <text x="672" y="308" class="number down-num">9</text>
  <rect x="670" y="310" width="30" height="30" class="cell" />
  <rect x="670" y="340" width="30" height="30" class="cell" />
  <rect x="670" y="370" width="30" height="30" class="cell" />
  <rect x="670" y="400" width="30" height="30" class="cell" />
  <rect x="670" y="430" width="30" height="30" class="cell" />
  <rect x="670" y="460" width="30" height="30" class="cell" />
  <rect x="670" y="490" width="30" height="30" class="cell" />
  <text x="30" y="750" class="clue-title">Across</text>
  <text y="770" class="clue-text">
    <tspan x="30" dy="0em" fill="black">2. Final in a series</tspan>
  </text>
  <text y="790" class="clue-text">
    <tspan x="30" dy="0em" fill="black">4. Observed</tspan>
  </text>
  <text y="810" class="clue-text">
    <tspan x="30" dy="0em" fill="black">6. Permitted</tspan>
  </text>
  <text y="830" class="clue-text">
    <tspan x="30" dy="0em" fill="black">7. The act of recovering</tspan>
  </text>
  <text y="850" class="clue-text">
    <tspan x="30" dy="0em" fill="black">11. Commanding</tspan>
  </text>
  <text y="870" class="clue-text">
    <tspan x="30" dy="0em" fill="black">15. Handicapped</tspan>
  </text>
  <text y="890" class="clue-text">
    <tspan x="30" dy="0em" fill="black">17. Verified</tspan>
  </text>
  <text y="910" class="clue-text">
    <tspan x="30" dy="0em" fill="black">18. Appeared to be</tspan>
  </text>
  <text y="930" class="clue-text">
    <tspan x="30" dy="0em" fill="black">19. Someone who visits</tspan>
  </text>
  <text x="375.0" y="750" class="clue-title">Down</text>
  <text y="770" class="clue-text">
    <tspan x="375.0" dy="0em" fill="black">1. Cease moving</tspan>
  </text>
  <text y="790" class="clue-text">
    <tspan x="375.0" dy="0em" fill="black">3. Experiencing pain</tspan>
  </text>
  <text y="810" class="clue-text">
    <tspan x="375.0" dy="0em" fill="black">5. Looked at thoughtfully</tspan>
  </text>
  <text y="830" class="clue-text">
    <tspan x="375.0" dy="0em" fill="black">8. Giving assistance</tspan>
  </text>
  <text y="850" class="clue-text">
    <tspan x="375.0" dy="0em" fill="black">9. Emphatic pronoun</tspan>
  </text>
  <text y="870" class="clue-text">
    <tspan x="375.0" dy="0em" fill="black">10. Desiring something</tspan>
  </text>
  <text y="890" class="clue-text">
    <tspan x="375.0" dy="0em" fill="black">12. Standing up straight</tspan>
  </text>
  <text y="910" class="clue-text">
    <tspan x="375.0" dy="0em" fill="black">13. With great intensity</tspan>
  </text>
  <text y="930" class="clue-text">
    <tspan x="375.0" dy="0em" fill="black">14. In a hidden manner</tspan>
  </text>
  <text y="950" class="clue-text">
    <tspan x="375.0" dy="0em" fill="black">16. To move on foot</tspan>
  </text>
 <text y="990" class="solution-text">
   <tspan x="10" dy="0em" fill="grey">rehcram .61 ,tnemetèrces .41 ,tnemmedra .31 ,tnasserder .21 ,tnatiahuos .01 ,emêm-iot .9 ,tnanetuos .8</tspan>
   <tspan x="10" dy="1.2em" fill="grey">,alpmetnoc .5 ,tnarffuos .3 ,tnetêrra .1 :NWOD    ruetisiv .91 ,tiassiarap .81 ,amrifnoc .71 ,emrifni</tspan>
   <tspan x="10" dy="1.2em" fill="grey">.51 ,tnannodro .11 ,tnemessilbatér .7 ,ésirotua .6 ,tiadrager .4 ,serèinred .2 :SSORCA</tspan>
 </text>
</svg>