<svg width="740" height="1118" viewBox="0 0 740 1118" xmlns="http://www.w3.org/2000/svg">
  <style>
    .cell { fill: white; stroke: black; stroke-width: 3px; }
    .number { font-family: sans-serif; font-weight: bold; }
    .across-num { font-size: 8px; }
    .down-num { font-size: 8px; }
    .clue-title { font-family: sans-serif; font-weight: bold; font-size: 18px; }
    .clue-text { font-family: sans-serif; font-size: 14px; }
  </style>
  <rect x="10" y="430" width="30" height="30" class="cell" />
  <text x="12" y="458" class="number down-num">14</text>
  <rect x="10" y="460" width="30" height="30" class="cell" />
  <rect x="10" y="490" width="30" height="30" class="cell" />
  <rect x="10" y="520" width="30" height="30" class="cell" />
  <rect x="10" y="550" width="30" height="30" class="cell" />
  <rect x="10" y="580" width="30" height="30" class="cell" />
  <rect x="10" y="610" width="30" height="30" class="cell" />
  <text x="12" y="620" class="number across-num">17</text>
  <rect x="10" y="640" width="30" height="30" class="cell" />
  <rect x="10" y="670" width="30" height="30" class="cell" />
  <rect x="10" y="700" width="30" height="30" class="cell" />
  <rect x="40" y="610" width="30" height="30" class="cell" />
  <rect x="70" y="280" width="30" height="30" class="cell" />
  <text x="72" y="308" class="number down-num">10</text>
  <rect x="70" y="310" width="30" height="30" class="cell" />
  <rect x="70" y="340" width="30" height="30" class="cell" />
  <rect x="70" y="370" width="30" height="30" class="cell" />
  <rect x="70" y="400" width="30" height="30" class="cell" />
  <rect x="70" y="430" width="30" height="30" class="cell" />
  <rect x="70" y="460" width="30" height="30" class="cell" />
  <rect x="70" y="490" width="30" height="30" class="cell" />
  <rect x="70" y="520" width="30" height="30" class="cell" />
  <rect x="70" y="550" width="30" height="30" class="cell" />
  <rect x="70" y="580" width="30" height="30" class="cell" />
  <rect x="70" y="610" width="30" height="30" class="cell" />
  <rect x="70" y="640" width="30" height="30" class="cell" />
  <rect x="70" y="670" width="30" height="30" class="cell" />
  <rect x="100" y="610" width="30" height="30" class="cell" />
  <rect x="130" y="610" width="30" height="30" class="cell" />
  <rect x="160" y="250" width="30" height="30" class="cell" />
  <text x="162" y="278" class="number down-num">8</text>
  <rect x="160" y="280" width="30" height="30" class="cell" />
  <rect x="160" y="310" width="30" height="30" class="cell" />
  <rect x="160" y="340" width="30" height="30" class="cell" />
  <rect x="160" y="370" width="30" height="30" class="cell" />
  <text x="162" y="380" class="number across-num">12</text>
  <rect x="160" y="400" width="30" height="30" class="cell" />
  <rect x="160" y="430" width="30" height="30" class="cell" />
  <rect x="160" y="460" width="30" height="30" class="cell" />
  <rect x="160" y="490" width="30" height="30" class="cell" />
  <rect x="160" y="520" width="30" height="30" class="cell" />
  <rect x="160" y="550" width="30" height="30" class="cell" />
  <rect x="160" y="610" width="30" height="30" class="cell" />
  <rect x="190" y="370" width="30" height="30" class="cell" />
  <rect x="190" y="610" width="30" height="30" class="cell" />
  <rect x="220" y="100" width="30" height="30" class="cell" />
  <text x="222" y="110" class="number across-num">4</text>
  <rect x="220" y="370" width="30" height="30" class="cell" />
  <rect x="220" y="610" width="30" height="30" class="cell" />
  <rect x="250" y="100" width="30" height="30" class="cell" />
  <rect x="250" y="190" width="30" height="30" class="cell" />
  <text x="252" y="218" class="number down-num">6</text>
  <rect x="250" y="220" width="30" height="30" class="cell" />
  <rect x="250" y="250" width="30" height="30" class="cell" />
  <rect x="250" y="280" width="30" height="30" class="cell" />
  <rect x="250" y="310" width="30" height="30" class="cell" />
  <rect x="250" y="340" width="30" height="30" class="cell" />
  <rect x="250" y="370" width="30" height="30" class="cell" />
  <rect x="250" y="400" width="30" height="30" class="cell" />
  <rect x="250" y="430" width="30" height="30" class="cell" />
  <rect x="250" y="460" width="30" height="30" class="cell" />
  <rect x="250" y="610" width="30" height="30" class="cell" />
  <rect x="280" y="100" width="30" height="30" class="cell" />
  <rect x="280" y="370" width="30" height="30" class="cell" />
  <rect x="280" y="610" width="30" height="30" class="cell" />
  <rect x="310" y="100" width="30" height="30" class="cell" />
  <rect x="310" y="250" width="30" height="30" class="cell" />
  <text x="312" y="260" class="number across-num">9</text>
  <rect x="310" y="340" width="30" height="30" class="cell" />
  <text x="312" y="368" class="number down-num">11</text>
  <rect x="310" y="370" width="30" height="30" class="cell" />
  <rect x="310" y="400" width="30" height="30" class="cell" />
  <rect x="310" y="430" width="30" height="30" class="cell" />
  <rect x="310" y="460" width="30" height="30" class="cell" />
  <rect x="310" y="490" width="30" height="30" class="cell" />
  <rect x="310" y="520" width="30" height="30" class="cell" />
  <rect x="310" y="550" width="30" height="30" class="cell" />
  <rect x="310" y="580" width="30" height="30" class="cell" />
  <rect x="310" y="610" width="30" height="30" class="cell" />
  <rect x="340" y="100" width="30" height="30" class="cell" />
  <rect x="340" y="250" width="30" height="30" class="cell" />
  <rect x="340" y="370" width="30" height="30" class="cell" />
  <rect x="340" y="640" width="30" height="30" class="cell" />
  <text x="342" y="650" class="number across-num">18</text>
  <rect x="370" y="40" width="30" height="30" class="cell" />
  <text x="372" y="50" class="number across-num">2</text>
  <rect x="370" y="100" width="30" height="30" class="cell" />
  <rect x="370" y="220" width="30" height="30" class="cell" />
  <text x="372" y="248" class="number down-num">7</text>
  <rect x="370" y="250" width="30" height="30" class="cell" />
  <rect x="370" y="280" width="30" height="30" class="cell" />
  <rect x="370" y="310" width="30" height="30" class="cell" />
  <rect x="370" y="340" width="30" height="30" class="cell" />
  <rect x="370" y="370" width="30" height="30" class="cell" />
  <rect x="370" y="400" width="30" height="30" class="cell" />
  <rect x="370" y="430" width="30" height="30" class="cell" />
  <rect x="370" y="460" width="30" height="30" class="cell" />
  <rect x="370" y="490" width="30" height="30" class="cell" />
  <rect x="370" y="550" width="30" height="30" class="cell" />
  <text x="372" y="560" class="number across-num">16</text>
  <rect x="370" y="640" width="30" height="30" class="cell" />
  <rect x="400" y="40" width="30" height="30" class="cell" />
  <rect x="400" y="100" width="30" height="30" class="cell" />
  <rect x="400" y="250" width="30" height="30" class="cell" />
  <rect x="400" y="370" width="30" height="30" class="cell" />
  <rect x="400" y="550" width="30" height="30" class="cell" />
  <rect x="400" y="640" width="30" height="30" class="cell" />
  <rect x="430" y="40" width="30" height="30" class="cell" />
  <text x="432" y="68" class="number down-num">3</text>
  <rect x="430" y="70" width="30" height="30" class="cell" />
  <rect x="430" y="100" width="30" height="30" class="cell" />
  <rect x="430" y="130" width="30" height="30" class="cell" />
  <rect x="430" y="160" width="30" height="30" class="cell" />
  <rect x="430" y="190" width="30" height="30" class="cell" />
  <rect x="430" y="220" width="30" height="30" class="cell" />
  <rect x="430" y="250" width="30" height="30" class="cell" />
  <rect x="430" y="280" width="30" height="30" class="cell" />
  <rect x="430" y="310" width="30" height="30" class="cell" />
  <rect x="430" y="370" width="30" height="30" class="cell" />
  <rect x="430" y="460" width="30" height="30" class="cell" />
  <text x="432" y="470" class="number across-num">15</text>
  <rect x="430" y="550" width="30" height="30" class="cell" />
  <rect x="430" y="640" width="30" height="30" class="cell" />
  <rect x="460" y="40" width="30" height="30" class="cell" />
  <rect x="460" y="100" width="30" height="30" class="cell" />
  <rect x="460" y="250" width="30" height="30" class="cell" />
  <rect x="460" y="370" width="30" height="30" class="cell" />
  <rect x="460" y="460" width="30" height="30" class="cell" />
  <rect x="460" y="550" width="30" height="30" class="cell" />
  <rect x="460" y="640" width="30" height="30" class="cell" />
  <rect x="490" y="40" width="30" height="30" class="cell" />
  <rect x="490" y="100" width="30" height="30" class="cell" />
  <rect x="490" y="250" width="30" height="30" class="cell" />
  <rect x="490" y="370" width="30" height="30" class="cell" />
  <text x="492" y="398" class="number down-num">13</text>
  <rect x="490" y="400" width="30" height="30" class="cell" />
  <rect x="490" y="430" width="30" height="30" class="cell" />
  <rect x="490" y="460" width="30" height="30" class="cell" />
  <rect x="490" y="490" width="30" height="30" class="cell" />
  <rect x="490" y="520" width="30" height="30" class="cell" />
  <rect x="490" y="550" width="30" height="30" class="cell" />
  <rect x="490" y="580" width="30" height="30" class="cell" />
  <rect x="490" y="610" width="30" height="30" class="cell" />
  <rect x="490" y="640" width="30" height="30" class="cell" />
  <rect x="490" y="670" width="30" height="30" class="cell" />
  <rect x="520" y="40" width="30" height="30" class="cell" />
  <rect x="520" y="250" width="30" height="30" class="cell" />
  <rect x="520" y="460" width="30" height="30" class="cell" />
  <rect x="520" y="550" width="30" height="30" class="cell" />
  <rect x="520" y="640" width="30" height="30" class="cell" />
  <rect x="550" y="10" width="30" height="30" class="cell" />
  <text x="552" y="38" class="number down-num">1</text>
  <rect x="550" y="40" width="30" height="30" class="cell" />
  <rect x="550" y="70" width="30" height="30" class="cell" />
  <rect x="550" y="100" width="30" height="30" class="cell" />
  <rect x="550" y="130" width="30" height="30" class="cell" />
  <rect x="550" y="160" width="30" height="30" class="cell" />
  <rect x="550" y="190" width="30" height="30" class="cell" />
  <rect x="550" y="220" width="30" height="30" class="cell" />
  <rect x="550" y="250" width="30" height="30" class="cell" />
  <rect x="550" y="280" width="30" height="30" class="cell" />
  <rect x="550" y="310" width="30" height="30" class="cell" />
  <rect x="550" y="460" width="30" height="30" class="cell" />
  <rect x="550" y="550" width="30" height="30" class="cell" />
  <rect x="550" y="640" width="30" height="30" class="cell" />
  <rect x="580" y="40" width="30" height="30" class="cell" />
  <rect x="580" y="250" width="30" height="30" class="cell" />
  <rect x="580" y="460" width="30" height="30" class="cell" />
  <rect x="580" y="550" width="30" height="30" class="cell" />
  <rect x="580" y="640" width="30" height="30" class="cell" />
  <rect x="610" y="40" width="30" height="30" class="cell" />
  <rect x="610" y="250" width="30" height="30" class="cell" />
  <rect x="610" y="460" width="30" height="30" class="cell" />
  <rect x="610" y="550" width="30" height="30" class="cell" />
  <rect x="610" y="640" width="30" height="30" class="cell" />
  <rect x="640" y="40" width="30" height="30" class="cell" />
  <rect x="640" y="460" width="30" height="30" class="cell" />
  <rect x="640" y="550" width="30" height="30" class="cell" />
  <rect x="640" y="640" width="30" height="30" class="cell" />
  <rect x="670" y="160" width="30" height="30" class="cell" />
  <text x="672" y="188" class="number down-num">5</text>
  <rect x="670" y="190" width="30" height="30" class="cell" />
  <rect x="670" y="220" width="30" height="30" class="cell" />
  <rect x="670" y="250" width="30" height="30" class="cell" />
  <rect x="670" y="280" width="30" height="30" class="cell" />
  <rect x="670" y="310" width="30" height="30" class="cell" />
  <rect x="670" y="340" width="30" height="30" class="cell" />
  <rect x="670" y="370" width="30" height="30" class="cell" />
  <rect x="670" y="400" width="30" height="30" class="cell" />
  <rect x="670" y="430" width="30" height="30" class="cell" />
  <rect x="670" y="460" width="30" height="30" class="cell" />
  <rect x="670" y="490" width="30" height="30" class="cell" />
  <rect x="670" y="550" width="30" height="30" class="cell" />
  <rect x="700" y="460" width="30" height="30" class="cell" />
  <text x="30" y="780" class="clue-title">Across</text>
  <text y="800" class="clue-text">
    <tspan x="30" dy="0em" fill="black">2. Made a choice</tspan>
  </text>
  <text y="820" class="clue-text">
    <tspan x="30" dy="0em" fill="black">4. not the same</tspan>
  </text>
  <text y="840" class="clue-text">
    <tspan x="30" dy="0em" fill="black">9. Put forward for consideration</tspan>
  </text>
  <text y="860" class="clue-text">
    <tspan x="30" dy="0em" fill="black">12. To feel anxious</tspan>
  </text>
  <text y="880" class="clue-text">
    <tspan x="30" dy="0em" fill="black">15. Lacking power</tspan>
  </text>
  <text y="900" class="clue-text">
    <tspan x="30" dy="0em" fill="black">16. Involuntary expulsion of air</tspan>
  </text>
  <text y="920" class="clue-text">
    <tspan x="30" dy="0em" fill="black">17. To upset or annoy</tspan>
  </text>
  <text y="940" class="clue-text">
    <tspan x="30" dy="0em" fill="black">18. Becoming full</tspan>
  </text>
  <text x="390.0" y="780" class="clue-title">Down</text>
  <text y="800" class="clue-text">
    <tspan x="390.0" dy="0em" fill="black">1. Increase in size</tspan>
  </text>
  <text y="820" class="clue-text">
    <tspan x="390.0" dy="0em" fill="black">3. To proceed</tspan>
  </text>
  <text y="840" class="clue-text">
    <tspan x="390.0" dy="0em" fill="black">5. Feel anxious</tspan>
  </text>
  <text y="860" class="clue-text">
    <tspan x="390.0" dy="0em" fill="black">6. Superlative adjective</tspan>
  </text>
  <text y="880" class="clue-text">
    <tspan x="390.0" dy="0em" fill="black">7. To grasp the meaning</tspan>
  </text>
  <text y="900" class="clue-text">
    <tspan x="390.0" dy="0em" fill="black">8. Understood</tspan>
  </text>
  <text y="920" class="clue-text">
    <tspan x="390.0" dy="0em" fill="black">10. Feeling or showing appreciation</tspan>
  </text>
  <text y="940" class="clue-text">
    <tspan x="390.0" dy="0em" fill="black">11. A substance used for medical treatment</tspan>
  </text>
  <text y="960" class="clue-text">
    <tspan x="390.0" dy="0em" fill="black">13. Had an idea</tspan>
  </text>
  <text y="980" class="clue-text">
    <tspan x="390.0" dy="0em" fill="black">14. Twilight</tspan>
  </text>
 <text y="1020" class="solution-text">
   <tspan x="10" dy="0em" fill="grey">elucsupérc .41 ,tiannoçpuos .31 ,tnemacidém .11 ,stnassiannocer .01 ,tnerèsilaér .8 ,erdnerpmoc .7</tspan>
   <tspan x="10" dy="1.2em" fill="grey">,seruelliem .6 ,tnetèiuqni's .5 ,snounitnoc .3 ,tnessidnarg .1 :NWOD    tnassilpmer .81 ,tneirartnoc .71</tspan>
   <tspan x="10" dy="1.2em" fill="grey">,tnemeunreté .61 ,tnassiupmi .51 ,snoretéiuqni .21 ,tnerèsoporp .9 ,stneréffid .4 ,tnerèdicéd .2 :SSORCA</tspan>
 </text>
</svg>