<svg width="740" height="1028" viewBox="0 0 740 1028" xmlns="http://www.w3.org/2000/svg">
  <style>
    .cell { fill: white; stroke: black; stroke-width: 3px; }
    .number { font-family: sans-serif; font-weight: bold; }
    .across-num { font-size: 8px; }
    .down-num { font-size: 8px; }
    .clue-title { font-family: sans-serif; font-weight: bold; font-size: 18px; }
    .clue-text { font-family: sans-serif; font-size: 14px; }
  </style>
  <rect x="10" y="220" width="30" height="30" class="cell" />
  <text x="12" y="230" class="number across-num">8</text>
  <rect x="40" y="70" width="30" height="30" class="cell" />
  <text x="42" y="98" class="number down-num">2</text>
  <rect x="40" y="100" width="30" height="30" class="cell" />
  <rect x="40" y="130" width="30" height="30" class="cell" />
  <rect x="40" y="160" width="30" height="30" class="cell" />
  <rect x="40" y="190" width="30" height="30" class="cell" />
  <rect x="40" y="220" width="30" height="30" class="cell" />
  <rect x="40" y="250" width="30" height="30" class="cell" />
  <rect x="70" y="220" width="30" height="30" class="cell" />
  <rect x="70" y="340" width="30" height="30" class="cell" />
  <text x="72" y="350" class="number across-num">14</text>
  <text x="85" y="368" class="number down-num">15</text>
  <rect x="70" y="370" width="30" height="30" class="cell" />
  <rect x="70" y="400" width="30" height="30" class="cell" />
  <rect x="70" y="430" width="30" height="30" class="cell" />
  <rect x="70" y="460" width="30" height="30" class="cell" />
  <rect x="70" y="490" width="30" height="30" class="cell" />
  <rect x="70" y="520" width="30" height="30" class="cell" />
  <rect x="70" y="550" width="30" height="30" class="cell" />
  <rect x="100" y="220" width="30" height="30" class="cell" />
  <rect x="100" y="340" width="30" height="30" class="cell" />
  <rect x="130" y="220" width="30" height="30" class="cell" />
  <rect x="130" y="340" width="30" height="30" class="cell" />
  <rect x="160" y="130" width="30" height="30" class="cell" />
  <text x="162" y="140" class="number across-num">5</text>
  <rect x="160" y="220" width="30" height="30" class="cell" />
  <rect x="160" y="340" width="30" height="30" class="cell" />
  <rect x="190" y="130" width="30" height="30" class="cell" />
  <rect x="190" y="220" width="30" height="30" class="cell" />
  <text x="192" y="248" class="number down-num">9</text>
  <rect x="190" y="250" width="30" height="30" class="cell" />
  <rect x="190" y="280" width="30" height="30" class="cell" />
  <rect x="190" y="310" width="30" height="30" class="cell" />
  <rect x="190" y="340" width="30" height="30" class="cell" />
  <rect x="190" y="370" width="30" height="30" class="cell" />
  <rect x="190" y="400" width="30" height="30" class="cell" />
  <rect x="220" y="130" width="30" height="30" class="cell" />
  <rect x="220" y="340" width="30" height="30" class="cell" />
  <rect x="220" y="460" width="30" height="30" class="cell" />
  <text x="222" y="470" class="number across-num">18</text>
  <rect x="250" y="130" width="30" height="30" class="cell" />
  <rect x="250" y="220" width="30" height="30" class="cell" />
  <text x="252" y="248" class="number down-num">10</text>
  <rect x="250" y="250" width="30" height="30" class="cell" />
  <text x="252" y="260" class="number across-num">11</text>
  <rect x="250" y="280" width="30" height="30" class="cell" />
  <rect x="250" y="310" width="30" height="30" class="cell" />
  <rect x="250" y="340" width="30" height="30" class="cell" />
  <rect x="250" y="370" width="30" height="30" class="cell" />
  <rect x="250" y="400" width="30" height="30" class="cell" />
  <rect x="250" y="430" width="30" height="30" class="cell" />
  <rect x="250" y="460" width="30" height="30" class="cell" />
  <rect x="250" y="520" width="30" height="30" class="cell" />
  <text x="252" y="530" class="number across-num">19</text>
  <rect x="280" y="130" width="30" height="30" class="cell" />
  <rect x="280" y="250" width="30" height="30" class="cell" />
  <rect x="280" y="340" width="30" height="30" class="cell" />
  <rect x="280" y="460" width="30" height="30" class="cell" />
  <rect x="280" y="520" width="30" height="30" class="cell" />
  <rect x="310" y="130" width="30" height="30" class="cell" />
  <rect x="310" y="250" width="30" height="30" class="cell" />
  <rect x="310" y="340" width="30" height="30" class="cell" />
  <rect x="310" y="460" width="30" height="30" class="cell" />
  <rect x="310" y="520" width="30" height="30" class="cell" />
  <rect x="340" y="130" width="30" height="30" class="cell" />
  <rect x="340" y="250" width="30" height="30" class="cell" />
  <rect x="340" y="370" width="30" height="30" class="cell" />
  <text x="342" y="380" class="number across-num">16</text>
  <text x="355" y="398" class="number down-num">17</text>
  <rect x="340" y="400" width="30" height="30" class="cell" />
  <rect x="340" y="430" width="30" height="30" class="cell" />
  <rect x="340" y="460" width="30" height="30" class="cell" />
  <rect x="340" y="490" width="30" height="30" class="cell" />
  <rect x="340" y="520" width="30" height="30" class="cell" />
  <rect x="340" y="550" width="30" height="30" class="cell" />
  <rect x="340" y="580" width="30" height="30" class="cell" />
  <rect x="340" y="610" width="30" height="30" class="cell" />
  <text x="342" y="620" class="number across-num">20</text>
  <rect x="370" y="100" width="30" height="30" class="cell" />
  <text x="372" y="128" class="number down-num">4</text>
  <rect x="370" y="130" width="30" height="30" class="cell" />
  <rect x="370" y="160" width="30" height="30" class="cell" />
  <rect x="370" y="190" width="30" height="30" class="cell" />
  <text x="372" y="200" class="number across-num">6</text>
  <rect x="370" y="220" width="30" height="30" class="cell" />
  <rect x="370" y="250" width="30" height="30" class="cell" />
  <rect x="370" y="280" width="30" height="30" class="cell" />
  <rect x="370" y="370" width="30" height="30" class="cell" />
  <rect x="370" y="460" width="30" height="30" class="cell" />
  <rect x="370" y="520" width="30" height="30" class="cell" />
  <rect x="370" y="610" width="30" height="30" class="cell" />
  <rect x="400" y="190" width="30" height="30" class="cell" />
  <rect x="400" y="250" width="30" height="30" class="cell" />
  <rect x="400" y="370" width="30" height="30" class="cell" />
  <rect x="400" y="460" width="30" height="30" class="cell" />
  <rect x="400" y="520" width="30" height="30" class="cell" />
  <rect x="400" y="610" width="30" height="30" class="cell" />
  <rect x="430" y="190" width="30" height="30" class="cell" />
  <rect x="430" y="370" width="30" height="30" class="cell" />
  <rect x="430" y="610" width="30" height="30" class="cell" />
  <rect x="460" y="10" width="30" height="30" class="cell" />
  <text x="462" y="38" class="number down-num">1</text>
  <rect x="460" y="40" width="30" height="30" class="cell" />
  <rect x="460" y="70" width="30" height="30" class="cell" />
  <rect x="460" y="100" width="30" height="30" class="cell" />
  <rect x="460" y="130" width="30" height="30" class="cell" />
  <rect x="460" y="160" width="30" height="30" class="cell" />
  <rect x="460" y="190" width="30" height="30" class="cell" />
  <rect x="460" y="310" width="30" height="30" class="cell" />
  <text x="462" y="338" class="number down-num">13</text>
  <rect x="460" y="340" width="30" height="30" class="cell" />
  <rect x="460" y="370" width="30" height="30" class="cell" />
  <rect x="460" y="400" width="30" height="30" class="cell" />
  <rect x="460" y="430" width="30" height="30" class="cell" />
  <rect x="460" y="460" width="30" height="30" class="cell" />
  <rect x="460" y="490" width="30" height="30" class="cell" />
  <rect x="460" y="520" width="30" height="30" class="cell" />
  <rect x="460" y="550" width="30" height="30" class="cell" />
  <rect x="460" y="610" width="30" height="30" class="cell" />
  <rect x="490" y="190" width="30" height="30" class="cell" />
  <rect x="490" y="610" width="30" height="30" class="cell" />
  <rect x="520" y="190" width="30" height="30" class="cell" />
  <rect x="520" y="610" width="30" height="30" class="cell" />
  <rect x="550" y="70" width="30" height="30" class="cell" />
  <text x="552" y="98" class="number down-num">3</text>
  <rect x="550" y="100" width="30" height="30" class="cell" />
  <rect x="550" y="130" width="30" height="30" class="cell" />
  <rect x="550" y="160" width="30" height="30" class="cell" />
  <rect x="550" y="190" width="30" height="30" class="cell" />
  <rect x="550" y="220" width="30" height="30" class="cell" />
  <rect x="550" y="250" width="30" height="30" class="cell" />
  <text x="552" y="260" class="number across-num">12</text>
  <rect x="550" y="280" width="30" height="30" class="cell" />
  <rect x="550" y="610" width="30" height="30" class="cell" />
  <rect x="580" y="190" width="30" height="30" class="cell" />
  <rect x="580" y="250" width="30" height="30" class="cell" />
  <rect x="610" y="190" width="30" height="30" class="cell" />
  <rect x="610" y="250" width="30" height="30" class="cell" />
  <rect x="640" y="250" width="30" height="30" class="cell" />
  <rect x="670" y="250" width="30" height="30" class="cell" />
  <rect x="700" y="190" width="30" height="30" class="cell" />
  <text x="702" y="218" class="number down-num">7</text>
  <rect x="700" y="220" width="30" height="30" class="cell" />
  <rect x="700" y="250" width="30" height="30" class="cell" />
  <rect x="700" y="280" width="30" height="30" class="cell" />
  <rect x="700" y="310" width="30" height="30" class="cell" />
  <rect x="700" y="340" width="30" height="30" class="cell" />
  <text x="30" y="690" class="clue-title">Across</text>
  <text y="710" class="clue-text">
    <tspan x="30" dy="0em" fill="black">5. Articulated</tspan>
  </text>
  <text y="730" class="clue-text">
    <tspan x="30" dy="0em" fill="black">6. Leapt</tspan>
  </text>
  <text y="750" class="clue-text">
    <tspan x="30" dy="0em" fill="black">8. Rough, hairy</tspan>
  </text>
  <text y="770" class="clue-text">
    <tspan x="30" dy="0em" fill="black">11. Resentful</tspan>
  </text>
  <text y="790" class="clue-text">
    <tspan x="30" dy="0em" fill="black">12. Cure or solution</tspan>
  </text>
  <text y="810" class="clue-text">
    <tspan x="30" dy="0em" fill="black">14. Was overflowing</tspan>
  </text>
  <text y="830" class="clue-text">
    <tspan x="30" dy="0em" fill="black">16. Possessing</tspan>
  </text>
  <text y="850" class="clue-text">
    <tspan x="30" dy="0em" fill="black">18. Surprised greatly</tspan>
  </text>
  <text y="870" class="clue-text">
    <tspan x="30" dy="0em" fill="black">19. Resentful</tspan>
  </text>
  <text y="890" class="clue-text">
    <tspan x="30" dy="0em" fill="black">20. Rested weight on</tspan>
  </text>
  <text x="390.0" y="690" class="clue-title">Down</text>
  <text y="710" class="clue-text">
    <tspan x="390.0" dy="0em" fill="black">1. Being aware of</tspan>
  </text>
  <text y="730" class="clue-text">
    <tspan x="390.0" dy="0em" fill="black">2. to be able</tspan>
  </text>
  <text y="750" class="clue-text">
    <tspan x="390.0" dy="0em" fill="black">3. Physical suffering</tspan>
  </text>
  <text y="770" class="clue-text">
    <tspan x="390.0" dy="0em" fill="black">4. Past tense of do</tspan>
  </text>
  <text y="790" class="clue-text">
    <tspan x="390.0" dy="0em" fill="black">7. Thoroughly wet</tspan>
  </text>
  <text y="810" class="clue-text">
    <tspan x="390.0" dy="0em" fill="black">9. Confined</tspan>
  </text>
  <text y="830" class="clue-text">
    <tspan x="390.0" dy="0em" fill="black">10. Caused to be</tspan>
  </text>
  <text y="850" class="clue-text">
    <tspan x="390.0" dy="0em" fill="black">13. Felt strong dislike</tspan>
  </text>
  <text y="870" class="clue-text">
    <tspan x="390.0" dy="0em" fill="black">15. Strongly disliked</tspan>
  </text>
  <text y="890" class="clue-text">
    <tspan x="390.0" dy="0em" fill="black">17. To take someone to a place</tspan>
  </text>
 <text y="930" class="solution-text">
   <tspan x="10" dy="0em" fill="grey">snorenèma .71 ,eétsetéd .51 ,siatsetéd .31 ,tneiasiaf .01 ,émrefne .9 ,épmert .7 ,siasiaf .4 ,srueluod .3</tspan>
   <tspan x="10" dy="1.2em" fill="grey">,riovuop .2 ,tnahcas .1 :NWOD    ayuppa's .02 ,eirgia .91 ,eénnoté .81 ,tnaya .61 ,tiadrobéd .41 ,edèmer .21</tspan>
   <tspan x="10" dy="1.2em" fill="grey">,sirgia .11 ,etusrih .8 ,tnerètuas .6 ,açnonorp .5 :SSORCA</tspan>
 </text>
</svg>