<svg width="710" height="1138" viewBox="0 0 710 1138" xmlns="http://www.w3.org/2000/svg">
  <style>
    .cell { fill: white; stroke: black; stroke-width: 3px; }
    .number { font-family: sans-serif; font-weight: bold; }
    .across-num { font-size: 8px; }
    .down-num { font-size: 8px; }
    .clue-title { font-family: sans-serif; font-weight: bold; font-size: 18px; }
    .clue-text { font-family: sans-serif; font-size: 14px; }
  </style>
  <rect x="10" y="220" width="30" height="30" class="cell" />
  <text x="12" y="230" class="number across-num">6</text>
  <text x="25" y="248" class="number down-num">5</text>
  <rect x="10" y="250" width="30" height="30" class="cell" />
  <rect x="10" y="280" width="30" height="30" class="cell" />
  <rect x="10" y="310" width="30" height="30" class="cell" />
  <rect x="10" y="340" width="30" height="30" class="cell" />
  <rect x="10" y="370" width="30" height="30" class="cell" />
  <rect x="10" y="400" width="30" height="30" class="cell" />
  <rect x="10" y="430" width="30" height="30" class="cell" />
  <rect x="10" y="460" width="30" height="30" class="cell" />
  <rect x="40" y="220" width="30" height="30" class="cell" />
  <rect x="40" y="490" width="30" height="30" class="cell" />
  <text x="42" y="500" class="number across-num">16</text>
  <rect x="70" y="220" width="30" height="30" class="cell" />
  <rect x="70" y="490" width="30" height="30" class="cell" />
  <rect x="70" y="610" width="30" height="30" class="cell" />
  <text x="72" y="620" class="number across-num">19</text>
  <rect x="100" y="220" width="30" height="30" class="cell" />
  <rect x="100" y="280" width="30" height="30" class="cell" />
  <text x="102" y="290" class="number across-num">10</text>
  <rect x="100" y="490" width="30" height="30" class="cell" />
  <rect x="100" y="610" width="30" height="30" class="cell" />
  <rect x="130" y="220" width="30" height="30" class="cell" />
  <rect x="130" y="280" width="30" height="30" class="cell" />
  <rect x="130" y="490" width="30" height="30" class="cell" />
  <rect x="130" y="610" width="30" height="30" class="cell" />
  <rect x="160" y="220" width="30" height="30" class="cell" />
  <rect x="160" y="280" width="30" height="30" class="cell" />
  <rect x="160" y="460" width="30" height="30" class="cell" />
  <text x="162" y="488" class="number down-num">14</text>
  <rect x="160" y="490" width="30" height="30" class="cell" />
  <rect x="160" y="520" width="30" height="30" class="cell" />
  <rect x="160" y="550" width="30" height="30" class="cell" />
  <rect x="160" y="580" width="30" height="30" class="cell" />
  <rect x="160" y="610" width="30" height="30" class="cell" />
  <rect x="160" y="640" width="30" height="30" class="cell" />
  <rect x="160" y="670" width="30" height="30" class="cell" />
  <rect x="160" y="700" width="30" height="30" class="cell" />
  <rect x="190" y="130" width="30" height="30" class="cell" />
  <text x="192" y="140" class="number across-num">4</text>
  <rect x="190" y="220" width="30" height="30" class="cell" />
  <rect x="190" y="280" width="30" height="30" class="cell" />
  <rect x="190" y="340" width="30" height="30" class="cell" />
  <text x="192" y="350" class="number across-num">12</text>
  <rect x="190" y="490" width="30" height="30" class="cell" />
  <rect x="190" y="610" width="30" height="30" class="cell" />
  <rect x="220" y="130" width="30" height="30" class="cell" />
  <rect x="220" y="220" width="30" height="30" class="cell" />
  <text x="222" y="248" class="number down-num">7</text>
  <rect x="220" y="250" width="30" height="30" class="cell" />
  <rect x="220" y="280" width="30" height="30" class="cell" />
  <rect x="220" y="310" width="30" height="30" class="cell" />
  <rect x="220" y="340" width="30" height="30" class="cell" />
  <rect x="220" y="370" width="30" height="30" class="cell" />
  <rect x="220" y="400" width="30" height="30" class="cell" />
  <rect x="220" y="430" width="30" height="30" class="cell" />
  <rect x="220" y="460" width="30" height="30" class="cell" />
  <rect x="220" y="490" width="30" height="30" class="cell" />
  <rect x="220" y="550" width="30" height="30" class="cell" />
  <text x="222" y="560" class="number across-num">18</text>
  <rect x="220" y="610" width="30" height="30" class="cell" />
  <rect x="250" y="130" width="30" height="30" class="cell" />
  <rect x="250" y="220" width="30" height="30" class="cell" />
  <rect x="250" y="280" width="30" height="30" class="cell" />
  <rect x="250" y="340" width="30" height="30" class="cell" />
  <rect x="250" y="490" width="30" height="30" class="cell" />
  <rect x="250" y="550" width="30" height="30" class="cell" />
  <rect x="250" y="610" width="30" height="30" class="cell" />
  <rect x="280" y="40" width="30" height="30" class="cell" />
  <text x="282" y="50" class="number across-num">2</text>
  <rect x="280" y="130" width="30" height="30" class="cell" />
  <rect x="280" y="280" width="30" height="30" class="cell" />
  <rect x="280" y="340" width="30" height="30" class="cell" />
  <rect x="280" y="490" width="30" height="30" class="cell" />
  <rect x="280" y="550" width="30" height="30" class="cell" />
  <rect x="280" y="610" width="30" height="30" class="cell" />
  <rect x="280" y="670" width="30" height="30" class="cell" />
  <text x="282" y="680" class="number across-num">20</text>
  <rect x="310" y="10" width="30" height="30" class="cell" />
  <text x="312" y="38" class="number down-num">1</text>
  <rect x="310" y="40" width="30" height="30" class="cell" />
  <rect x="310" y="70" width="30" height="30" class="cell" />
  <rect x="310" y="100" width="30" height="30" class="cell" />
  <rect x="310" y="130" width="30" height="30" class="cell" />
  <rect x="310" y="160" width="30" height="30" class="cell" />
  <rect x="310" y="190" width="30" height="30" class="cell" />
  <rect x="310" y="220" width="30" height="30" class="cell" />
  <rect x="310" y="250" width="30" height="30" class="cell" />
  <rect x="310" y="280" width="30" height="30" class="cell" />
  <rect x="310" y="340" width="30" height="30" class="cell" />
  <rect x="310" y="490" width="30" height="30" class="cell" />
  <rect x="310" y="550" width="30" height="30" class="cell" />
  <rect x="310" y="610" width="30" height="30" class="cell" />
  <rect x="310" y="670" width="30" height="30" class="cell" />
  <rect x="340" y="40" width="30" height="30" class="cell" />
  <rect x="340" y="130" width="30" height="30" class="cell" />
  <rect x="340" y="340" width="30" height="30" class="cell" />
  <rect x="340" y="550" width="30" height="30" class="cell" />
  <rect x="340" y="610" width="30" height="30" class="cell" />
  <rect x="340" y="670" width="30" height="30" class="cell" />
  <rect x="370" y="40" width="30" height="30" class="cell" />
  <rect x="370" y="130" width="30" height="30" class="cell" />
  <rect x="370" y="310" width="30" height="30" class="cell" />
  <text x="372" y="338" class="number down-num">11</text>
  <rect x="370" y="340" width="30" height="30" class="cell" />
  <rect x="370" y="370" width="30" height="30" class="cell" />
  <rect x="370" y="400" width="30" height="30" class="cell" />
  <rect x="370" y="430" width="30" height="30" class="cell" />
  <rect x="370" y="460" width="30" height="30" class="cell" />
  <rect x="370" y="490" width="30" height="30" class="cell" />
  <rect x="370" y="520" width="30" height="30" class="cell" />
  <rect x="370" y="550" width="30" height="30" class="cell" />
  <rect x="370" y="580" width="30" height="30" class="cell" />
  <rect x="370" y="610" width="30" height="30" class="cell" />
  <rect x="370" y="640" width="30" height="30" class="cell" />
  <rect x="370" y="670" width="30" height="30" class="cell" />
  <rect x="370" y="700" width="30" height="30" class="cell" />
  <rect x="400" y="40" width="30" height="30" class="cell" />
  <rect x="400" y="130" width="30" height="30" class="cell" />
  <rect x="400" y="340" width="30" height="30" class="cell" />
  <rect x="400" y="550" width="30" height="30" class="cell" />
  <rect x="400" y="610" width="30" height="30" class="cell" />
  <rect x="400" y="670" width="30" height="30" class="cell" />
  <rect x="430" y="40" width="30" height="30" class="cell" />
  <rect x="430" y="130" width="30" height="30" class="cell" />
  <rect x="430" y="220" width="30" height="30" class="cell" />
  <text x="432" y="230" class="number across-num">8</text>
  <rect x="430" y="340" width="30" height="30" class="cell" />
  <rect x="430" y="490" width="30" height="30" class="cell" />
  <text x="432" y="500" class="number across-num">17</text>
  <rect x="430" y="550" width="30" height="30" class="cell" />
  <rect x="430" y="610" width="30" height="30" class="cell" />
  <rect x="430" y="670" width="30" height="30" class="cell" />
  <rect x="460" y="40" width="30" height="30" class="cell" />
  <rect x="460" y="130" width="30" height="30" class="cell" />
  <rect x="460" y="220" width="30" height="30" class="cell" />
  <rect x="460" y="490" width="30" height="30" class="cell" />
  <rect x="460" y="550" width="30" height="30" class="cell" />
  <rect x="460" y="610" width="30" height="30" class="cell" />
  <rect x="460" y="670" width="30" height="30" class="cell" />
  <rect x="490" y="40" width="30" height="30" class="cell" />
  <rect x="490" y="100" width="30" height="30" class="cell" />
  <text x="492" y="128" class="number down-num">3</text>
  <rect x="490" y="130" width="30" height="30" class="cell" />
  <rect x="490" y="160" width="30" height="30" class="cell" />
  <rect x="490" y="190" width="30" height="30" class="cell" />
  <rect x="490" y="220" width="30" height="30" class="cell" />
  <rect x="490" y="250" width="30" height="30" class="cell" />
  <rect x="490" y="280" width="30" height="30" class="cell" />
  <rect x="490" y="310" width="30" height="30" class="cell" />
  <rect x="490" y="490" width="30" height="30" class="cell" />
  <rect x="490" y="670" width="30" height="30" class="cell" />
  <rect x="520" y="40" width="30" height="30" class="cell" />
  <rect x="520" y="130" width="30" height="30" class="cell" />
  <rect x="520" y="220" width="30" height="30" class="cell" />
  <rect x="520" y="460" width="30" height="30" class="cell" />
  <text x="522" y="488" class="number down-num">15</text>
  <rect x="520" y="490" width="30" height="30" class="cell" />
  <rect x="520" y="520" width="30" height="30" class="cell" />
  <rect x="520" y="550" width="30" height="30" class="cell" />
  <rect x="520" y="580" width="30" height="30" class="cell" />
  <rect x="520" y="610" width="30" height="30" class="cell" />
  <rect x="520" y="640" width="30" height="30" class="cell" />
  <rect x="520" y="670" width="30" height="30" class="cell" />
  <rect x="520" y="700" width="30" height="30" class="cell" />
  <rect x="550" y="40" width="30" height="30" class="cell" />
  <rect x="550" y="130" width="30" height="30" class="cell" />
  <rect x="550" y="220" width="30" height="30" class="cell" />
  <rect x="550" y="490" width="30" height="30" class="cell" />
  <rect x="550" y="670" width="30" height="30" class="cell" />
  <rect x="580" y="40" width="30" height="30" class="cell" />
  <rect x="580" y="220" width="30" height="30" class="cell" />
  <rect x="580" y="490" width="30" height="30" class="cell" />
  <rect x="610" y="220" width="30" height="30" class="cell" />
  <rect x="610" y="430" width="30" height="30" class="cell" />
  <text x="612" y="458" class="number down-num">13</text>
  <rect x="610" y="460" width="30" height="30" class="cell" />
  <rect x="610" y="490" width="30" height="30" class="cell" />
  <rect x="610" y="520" width="30" height="30" class="cell" />
  <rect x="610" y="550" width="30" height="30" class="cell" />
  <rect x="610" y="580" width="30" height="30" class="cell" />
  <rect x="610" y="610" width="30" height="30" class="cell" />
  <rect x="610" y="640" width="30" height="30" class="cell" />
  <rect x="610" y="670" width="30" height="30" class="cell" />
  <rect x="610" y="700" width="30" height="30" class="cell" />
  <rect x="640" y="220" width="30" height="30" class="cell" />
  <rect x="640" y="490" width="30" height="30" class="cell" />
  <rect x="670" y="220" width="30" height="30" class="cell" />
  <text x="672" y="248" class="number down-num">9</text>
  <rect x="670" y="250" width="30" height="30" class="cell" />
  <rect x="670" y="280" width="30" height="30" class="cell" />
  <rect x="670" y="310" width="30" height="30" class="cell" />
  <rect x="670" y="340" width="30" height="30" class="cell" />
  <rect x="670" y="370" width="30" height="30" class="cell" />
  <rect x="670" y="400" width="30" height="30" class="cell" />
  <rect x="670" y="430" width="30" height="30" class="cell" />
  <rect x="670" y="460" width="30" height="30" class="cell" />
  <rect x="670" y="490" width="30" height="30" class="cell" />
  <text x="30" y="780" class="clue-title">Across</text>
  <text y="800" class="clue-text">
    <tspan x="30" dy="0em" fill="black">2. Humming sound</tspan>
  </text>
  <text y="820" class="clue-text">
    <tspan x="30" dy="0em" fill="black">4. Forever</tspan>
  </text>
  <text y="840" class="clue-text">
    <tspan x="30" dy="0em" fill="black">6. Bringing to mind</tspan>
  </text>
  <text y="860" class="clue-text">
    <tspan x="30" dy="0em" fill="black">8. Were late</tspan>
  </text>
  <text y="880" class="clue-text">
    <tspan x="30" dy="0em" fill="black">10. Trembling</tspan>
  </text>
  <text y="900" class="clue-text">
    <tspan x="30" dy="0em" fill="black">12. Continuing again</tspan>
  </text>
  <text y="920" class="clue-text">
    <tspan x="30" dy="0em" fill="black">16. Sense</tspan>
  </text>
  <text y="940" class="clue-text">
    <tspan x="30" dy="0em" fill="black">17. To shake involuntarily</tspan>
  </text>
  <text y="960" class="clue-text">
    <tspan x="30" dy="0em" fill="black">18. Shaking involuntarily</tspan>
  </text>
  <text y="980" class="clue-text">
    <tspan x="30" dy="0em" fill="black">19. In a calm manner</tspan>
  </text>
  <text y="1000" class="clue-text">
    <tspan x="30" dy="0em" fill="black">20. Energetic</tspan>
  </text>
  <text x="375.0" y="780" class="clue-title">Down</text>
  <text y="800" class="clue-text">
    <tspan x="375.0" dy="0em" fill="black">1. United with</tspan>
  </text>
  <text y="820" class="clue-text">
    <tspan x="375.0" dy="0em" fill="black">3. Got up</tspan>
  </text>
  <text y="840" class="clue-text">
    <tspan x="375.0" dy="0em" fill="black">5. Narrate</tspan>
  </text>
  <text y="860" class="clue-text">
    <tspan x="375.0" dy="0em" fill="black">7. New things</tspan>
  </text>
  <text y="880" class="clue-text">
    <tspan x="375.0" dy="0em" fill="black">9. Made contact with</tspan>
  </text>
  <text y="900" class="clue-text">
    <tspan x="375.0" dy="0em" fill="black">11. Normally</tspan>
  </text>
  <text y="920" class="clue-text">
    <tspan x="375.0" dy="0em" fill="black">13. To restrain oneself</tspan>
  </text>
  <text y="940" class="clue-text">
    <tspan x="375.0" dy="0em" fill="black">14. Untruths</tspan>
  </text>
  <text y="960" class="clue-text">
    <tspan x="375.0" dy="0em" fill="black">15. Arrogant</tspan>
  </text>
 <text y="1040" class="solution-text">
   <tspan x="10" dy="0em" fill="grey">xueirépmi .51 ,segnosnem .41 ,rehcêpme's .31 ,tnemelleutibah .11 ,tnerèhcuot .9 ,sétuaevuon .7</tspan>
   <tspan x="10" dy="1.2em" fill="grey">,tnetnocar .5 ,tnerèvel .3 ,tneringioj .1 :NWOD    euqiténérf .02 ,tnemelliuqnart .91 ,tnalbmert .81</tspan>
   <tspan x="10" dy="1.2em" fill="grey">,tnelbmert .71 ,noisserpmi .61 ,tnanerper .21 ,tnauoces .01 ,tnerèdrat .8 ,tnaleppar .6 ,tnemellenreté</tspan>
   <tspan x="10" dy="1.2em" fill="grey">.4 ,tnannodruob .2 :SSORCA</tspan>
 </text>
</svg>