<svg width="680" height="1068" viewBox="0 0 680 1068" xmlns="http://www.w3.org/2000/svg">
  <style>
    .cell { fill: white; stroke: black; stroke-width: 3px; }
    .number { font-family: sans-serif; font-weight: bold; }
    .across-num { font-size: 8px; }
    .down-num { font-size: 8px; }
    .clue-title { font-family: sans-serif; font-weight: bold; font-size: 18px; }
    .clue-text { font-family: sans-serif; font-size: 14px; }
  </style>
  <rect x="10" y="580" width="30" height="30" class="cell" />
  <text x="12" y="590" class="number across-num">16</text>
  <rect x="40" y="580" width="30" height="30" class="cell" />
  <rect x="70" y="340" width="30" height="30" class="cell" />
  <text x="72" y="368" class="number down-num">10</text>
  <rect x="70" y="370" width="30" height="30" class="cell" />
  <rect x="70" y="400" width="30" height="30" class="cell" />
  <rect x="70" y="430" width="30" height="30" class="cell" />
  <rect x="70" y="460" width="30" height="30" class="cell" />
  <rect x="70" y="490" width="30" height="30" class="cell" />
  <rect x="70" y="520" width="30" height="30" class="cell" />
  <rect x="70" y="550" width="30" height="30" class="cell" />
  <rect x="70" y="580" width="30" height="30" class="cell" />
  <rect x="70" y="610" width="30" height="30" class="cell" />
  <rect x="70" y="640" width="30" height="30" class="cell" />
  <rect x="70" y="670" width="30" height="30" class="cell" />
  <rect x="100" y="280" width="30" height="30" class="cell" />
  <text x="102" y="290" class="number across-num">8</text>
  <rect x="100" y="580" width="30" height="30" class="cell" />
  <rect x="130" y="280" width="30" height="30" class="cell" />
  <rect x="130" y="340" width="30" height="30" class="cell" />
  <text x="132" y="368" class="number down-num">11</text>
  <rect x="130" y="370" width="30" height="30" class="cell" />
  <text x="132" y="380" class="number across-num">13</text>
  <rect x="130" y="400" width="30" height="30" class="cell" />
  <rect x="130" y="430" width="30" height="30" class="cell" />
  <rect x="130" y="460" width="30" height="30" class="cell" />
  <rect x="130" y="490" width="30" height="30" class="cell" />
  <rect x="130" y="520" width="30" height="30" class="cell" />
  <rect x="130" y="550" width="30" height="30" class="cell" />
  <rect x="130" y="580" width="30" height="30" class="cell" />
  <rect x="130" y="610" width="30" height="30" class="cell" />
  <rect x="160" y="280" width="30" height="30" class="cell" />
  <rect x="160" y="370" width="30" height="30" class="cell" />
  <rect x="160" y="580" width="30" height="30" class="cell" />
  <rect x="190" y="40" width="30" height="30" class="cell" />
  <text x="192" y="50" class="number across-num">2</text>
  <rect x="190" y="280" width="30" height="30" class="cell" />
  <rect x="190" y="370" width="30" height="30" class="cell" />
  <rect x="190" y="580" width="30" height="30" class="cell" />
  <rect x="190" y="640" width="30" height="30" class="cell" />
  <text x="192" y="650" class="number across-num">17</text>
  <rect x="220" y="40" width="30" height="30" class="cell" />
  <rect x="220" y="280" width="30" height="30" class="cell" />
  <rect x="220" y="370" width="30" height="30" class="cell" />
  <rect x="220" y="430" width="30" height="30" class="cell" />
  <text x="222" y="440" class="number across-num">14</text>
  <rect x="220" y="580" width="30" height="30" class="cell" />
  <rect x="220" y="640" width="30" height="30" class="cell" />
  <rect x="250" y="40" width="30" height="30" class="cell" />
  <rect x="250" y="280" width="30" height="30" class="cell" />
  <rect x="250" y="340" width="30" height="30" class="cell" />
  <text x="252" y="368" class="number down-num">12</text>
  <rect x="250" y="370" width="30" height="30" class="cell" />
  <rect x="250" y="400" width="30" height="30" class="cell" />
  <rect x="250" y="430" width="30" height="30" class="cell" />
  <rect x="250" y="460" width="30" height="30" class="cell" />
  <rect x="250" y="490" width="30" height="30" class="cell" />
  <rect x="250" y="520" width="30" height="30" class="cell" />
  <text x="252" y="530" class="number across-num">15</text>
  <rect x="250" y="550" width="30" height="30" class="cell" />
  <rect x="250" y="580" width="30" height="30" class="cell" />
  <rect x="250" y="610" width="30" height="30" class="cell" />
  <rect x="250" y="640" width="30" height="30" class="cell" />
  <rect x="250" y="670" width="30" height="30" class="cell" />
  <rect x="280" y="10" width="30" height="30" class="cell" />
  <text x="282" y="38" class="number down-num">1</text>
  <rect x="280" y="40" width="30" height="30" class="cell" />
  <rect x="280" y="70" width="30" height="30" class="cell" />
  <rect x="280" y="100" width="30" height="30" class="cell" />
  <rect x="280" y="130" width="30" height="30" class="cell" />
  <rect x="280" y="160" width="30" height="30" class="cell" />
  <rect x="280" y="190" width="30" height="30" class="cell" />
  <rect x="280" y="220" width="30" height="30" class="cell" />
  <rect x="280" y="250" width="30" height="30" class="cell" />
  <rect x="280" y="280" width="30" height="30" class="cell" />
  <rect x="280" y="370" width="30" height="30" class="cell" />
  <rect x="280" y="430" width="30" height="30" class="cell" />
  <rect x="280" y="520" width="30" height="30" class="cell" />
  <rect x="280" y="580" width="30" height="30" class="cell" />
  <rect x="280" y="640" width="30" height="30" class="cell" />
  <rect x="310" y="40" width="30" height="30" class="cell" />
  <rect x="310" y="280" width="30" height="30" class="cell" />
  <rect x="310" y="370" width="30" height="30" class="cell" />
  <rect x="310" y="430" width="30" height="30" class="cell" />
  <rect x="310" y="520" width="30" height="30" class="cell" />
  <rect x="310" y="640" width="30" height="30" class="cell" />
  <rect x="340" y="40" width="30" height="30" class="cell" />
  <rect x="340" y="280" width="30" height="30" class="cell" />
  <rect x="340" y="370" width="30" height="30" class="cell" />
  <rect x="340" y="430" width="30" height="30" class="cell" />
  <rect x="340" y="520" width="30" height="30" class="cell" />
  <rect x="340" y="640" width="30" height="30" class="cell" />
  <rect x="370" y="40" width="30" height="30" class="cell" />
  <rect x="370" y="160" width="30" height="30" class="cell" />
  <text x="372" y="188" class="number down-num">7</text>
  <rect x="370" y="190" width="30" height="30" class="cell" />
  <rect x="370" y="220" width="30" height="30" class="cell" />
  <rect x="370" y="250" width="30" height="30" class="cell" />
  <rect x="370" y="280" width="30" height="30" class="cell" />
  <rect x="370" y="310" width="30" height="30" class="cell" />
  <rect x="370" y="340" width="30" height="30" class="cell" />
  <rect x="370" y="370" width="30" height="30" class="cell" />
  <rect x="370" y="400" width="30" height="30" class="cell" />
  <rect x="370" y="430" width="30" height="30" class="cell" />
  <rect x="370" y="520" width="30" height="30" class="cell" />
  <rect x="370" y="640" width="30" height="30" class="cell" />
  <rect x="400" y="40" width="30" height="30" class="cell" />
  <rect x="400" y="130" width="30" height="30" class="cell" />
  <text x="402" y="140" class="number across-num">5</text>
  <rect x="400" y="370" width="30" height="30" class="cell" />
  <rect x="400" y="430" width="30" height="30" class="cell" />
  <rect x="400" y="520" width="30" height="30" class="cell" />
  <rect x="400" y="640" width="30" height="30" class="cell" />
  <rect x="430" y="40" width="30" height="30" class="cell" />
  <rect x="430" y="100" width="30" height="30" class="cell" />
  <text x="432" y="128" class="number down-num">3</text>
  <rect x="430" y="130" width="30" height="30" class="cell" />
  <rect x="430" y="160" width="30" height="30" class="cell" />
  <rect x="430" y="190" width="30" height="30" class="cell" />
  <rect x="430" y="220" width="30" height="30" class="cell" />
  <rect x="430" y="250" width="30" height="30" class="cell" />
  <rect x="430" y="280" width="30" height="30" class="cell" />
  <rect x="430" y="310" width="30" height="30" class="cell" />
  <rect x="430" y="340" width="30" height="30" class="cell" />
  <rect x="430" y="370" width="30" height="30" class="cell" />
  <rect x="430" y="430" width="30" height="30" class="cell" />
  <rect x="430" y="520" width="30" height="30" class="cell" />
  <rect x="430" y="640" width="30" height="30" class="cell" />
  <rect x="460" y="40" width="30" height="30" class="cell" />
  <rect x="460" y="130" width="30" height="30" class="cell" />
  <rect x="460" y="430" width="30" height="30" class="cell" />
  <rect x="460" y="520" width="30" height="30" class="cell" />
  <rect x="490" y="40" width="30" height="30" class="cell" />
  <rect x="490" y="130" width="30" height="30" class="cell" />
  <rect x="490" y="520" width="30" height="30" class="cell" />
  <rect x="520" y="130" width="30" height="30" class="cell" />
  <rect x="520" y="310" width="30" height="30" class="cell" />
  <text x="522" y="338" class="number down-num">9</text>
  <rect x="520" y="340" width="30" height="30" class="cell" />
  <rect x="520" y="370" width="30" height="30" class="cell" />
  <rect x="520" y="400" width="30" height="30" class="cell" />
  <rect x="520" y="430" width="30" height="30" class="cell" />
  <rect x="520" y="460" width="30" height="30" class="cell" />
  <rect x="520" y="490" width="30" height="30" class="cell" />
  <rect x="520" y="520" width="30" height="30" class="cell" />
  <rect x="520" y="550" width="30" height="30" class="cell" />
  <rect x="520" y="580" width="30" height="30" class="cell" />
  <rect x="550" y="130" width="30" height="30" class="cell" />
  <rect x="550" y="520" width="30" height="30" class="cell" />
  <rect x="580" y="100" width="30" height="30" class="cell" />
  <text x="582" y="128" class="number down-num">4</text>
  <rect x="580" y="130" width="30" height="30" class="cell" />
  <rect x="580" y="160" width="30" height="30" class="cell" />
  <rect x="580" y="190" width="30" height="30" class="cell" />
  <rect x="580" y="220" width="30" height="30" class="cell" />
  <rect x="580" y="250" width="30" height="30" class="cell" />
  <rect x="580" y="280" width="30" height="30" class="cell" />
  <rect x="580" y="310" width="30" height="30" class="cell" />
  <rect x="580" y="340" width="30" height="30" class="cell" />
  <rect x="580" y="370" width="30" height="30" class="cell" />
  <rect x="580" y="400" width="30" height="30" class="cell" />
  <rect x="580" y="430" width="30" height="30" class="cell" />
  <rect x="610" y="130" width="30" height="30" class="cell" />
  <rect x="640" y="130" width="30" height="30" class="cell" />
  <text x="642" y="158" class="number down-num">6</text>
  <rect x="640" y="160" width="30" height="30" class="cell" />
  <rect x="640" y="190" width="30" height="30" class="cell" />
  <rect x="640" y="220" width="30" height="30" class="cell" />
  <rect x="640" y="250" width="30" height="30" class="cell" />
  <rect x="640" y="280" width="30" height="30" class="cell" />
  <rect x="640" y="310" width="30" height="30" class="cell" />
  <rect x="640" y="340" width="30" height="30" class="cell" />
  <rect x="640" y="370" width="30" height="30" class="cell" />
  <text x="30" y="750" class="clue-title">Across</text>
  <text y="770" class="clue-text">
    <tspan x="30" dy="0em" fill="black">2. Observed</tspan>
  </text>
  <text y="790" class="clue-text">
    <tspan x="30" dy="0em" fill="black">5. Moderately cold</tspan>
  </text>
  <text y="810" class="clue-text">
    <tspan x="30" dy="0em" fill="black">8. Having or showing intelligence</tspan>
  </text>
  <text y="830" class="clue-text">
    <tspan x="30" dy="0em" fill="black">13. Echoed</tspan>
  </text>
  <text y="850" class="clue-text">
    <tspan x="30" dy="0em" fill="black">14. Was afraid of</tspan>
  </text>
  <text y="870" class="clue-text">
    <tspan x="30" dy="0em" fill="black">15. Broke in</tspan>
  </text>
  <text y="890" class="clue-text">
    <tspan x="30" dy="0em" fill="black">16. Early flowering plant</tspan>
  </text>
  <text y="910" class="clue-text">
    <tspan x="30" dy="0em" fill="black">17. Cause fatigue</tspan>
  </text>
  <text x="360.0" y="750" class="clue-title">Down</text>
  <text y="770" class="clue-text">
    <tspan x="360.0" dy="0em" fill="black">1. Of one's birth</tspan>
  </text>
  <text y="790" class="clue-text">
    <tspan x="360.0" dy="0em" fill="black">3. Past tense of stop</tspan>
  </text>
  <text y="810" class="clue-text">
    <tspan x="360.0" dy="0em" fill="black">4. Without a doubt</tspan>
  </text>
  <text y="830" class="clue-text">
    <tspan x="360.0" dy="0em" fill="black">6. Showing irritation</tspan>
  </text>
  <text y="850" class="clue-text">
    <tspan x="360.0" dy="0em" fill="black">7. To gain knowledge</tspan>
  </text>
  <text y="870" class="clue-text">
    <tspan x="360.0" dy="0em" fill="black">9. Type of flowers</tspan>
  </text>
  <text y="890" class="clue-text">
    <tspan x="360.0" dy="0em" fill="black">10. Acts of inhaling and exhaling</tspan>
  </text>
  <text y="910" class="clue-text">
    <tspan x="360.0" dy="0em" fill="black">11. Musical instruments</tspan>
  </text>
  <text y="930" class="clue-text">
    <tspan x="360.0" dy="0em" fill="black">12. Smart</tspan>
  </text>
 <text y="970" class="solution-text">
   <tspan x="10" dy="0em" fill="grey">stnegilletni .21 ,settepmort .11 ,snoitaripser .01 ,seilocna'd .9 ,tnennerppa .7 ,éngorfner .6</tspan>
   <tspan x="10" dy="1.2em" fill="grey">,tnemeniatrec .4 ,tnerètêrra .3 ,ellenretam .1 :NWOD    areugitaf .71 ,serèvemirp .61 ,tipmorretni</tspan>
   <tspan x="10" dy="1.2em" fill="grey">.51 ,tiatuoder .41 ,tnerènnosér .31 ,esueicutsa .8 ,ruehcîarf .5 ,tnerèdrager .2 :SSORCA</tspan>
 </text>
</svg>