<svg width="710" height="1148" viewBox="0 0 710 1148" xmlns="http://www.w3.org/2000/svg">
  <style>
    .cell { fill: white; stroke: black; stroke-width: 3px; }
    .number { font-family: sans-serif; font-weight: bold; }
    .across-num { font-size: 8px; }
    .down-num { font-size: 8px; }
    .clue-title { font-family: sans-serif; font-weight: bold; font-size: 18px; }
    .clue-text { font-family: sans-serif; font-size: 14px; }
  </style>
  <rect x="10" y="610" width="30" height="30" class="cell" />
  <text x="12" y="620" class="number across-num">16</text>
  <rect x="40" y="610" width="30" height="30" class="cell" />
  <rect x="40" y="670" width="30" height="30" class="cell" />
  <text x="42" y="680" class="number across-num">17</text>
  <rect x="40" y="730" width="30" height="30" class="cell" />
  <text x="42" y="740" class="number across-num">18</text>
  <rect x="70" y="610" width="30" height="30" class="cell" />
  <rect x="70" y="670" width="30" height="30" class="cell" />
  <rect x="70" y="730" width="30" height="30" class="cell" />
  <rect x="100" y="610" width="30" height="30" class="cell" />
  <rect x="100" y="670" width="30" height="30" class="cell" />
  <rect x="100" y="730" width="30" height="30" class="cell" />
  <rect x="130" y="610" width="30" height="30" class="cell" />
  <rect x="130" y="670" width="30" height="30" class="cell" />
  <rect x="130" y="730" width="30" height="30" class="cell" />
  <rect x="160" y="460" width="30" height="30" class="cell" />
  <text x="162" y="488" class="number down-num">13</text>
  <rect x="160" y="490" width="30" height="30" class="cell" />
  <rect x="160" y="520" width="30" height="30" class="cell" />
  <rect x="160" y="550" width="30" height="30" class="cell" />
  <rect x="160" y="580" width="30" height="30" class="cell" />
  <rect x="160" y="610" width="30" height="30" class="cell" />
  <rect x="160" y="640" width="30" height="30" class="cell" />
  <rect x="160" y="670" width="30" height="30" class="cell" />
  <rect x="160" y="700" width="30" height="30" class="cell" />
  <rect x="160" y="730" width="30" height="30" class="cell" />
  <rect x="190" y="130" width="30" height="30" class="cell" />
  <text x="192" y="140" class="number across-num">4</text>
  <rect x="190" y="370" width="30" height="30" class="cell" />
  <text x="192" y="380" class="number across-num">10</text>
  <rect x="190" y="610" width="30" height="30" class="cell" />
  <rect x="190" y="670" width="30" height="30" class="cell" />
  <rect x="190" y="730" width="30" height="30" class="cell" />
  <rect x="220" y="130" width="30" height="30" class="cell" />
  <text x="222" y="158" class="number down-num">5</text>
  <rect x="220" y="160" width="30" height="30" class="cell" />
  <rect x="220" y="190" width="30" height="30" class="cell" />
  <rect x="220" y="220" width="30" height="30" class="cell" />
  <rect x="220" y="250" width="30" height="30" class="cell" />
  <rect x="220" y="280" width="30" height="30" class="cell" />
  <rect x="220" y="310" width="30" height="30" class="cell" />
  <rect x="220" y="340" width="30" height="30" class="cell" />
  <rect x="220" y="370" width="30" height="30" class="cell" />
  <rect x="220" y="490" width="30" height="30" class="cell" />
  <text x="222" y="500" class="number across-num">14</text>
  <rect x="220" y="550" width="30" height="30" class="cell" />
  <text x="222" y="560" class="number across-num">15</text>
  <rect x="220" y="610" width="30" height="30" class="cell" />
  <rect x="220" y="670" width="30" height="30" class="cell" />
  <rect x="220" y="730" width="30" height="30" class="cell" />
  <rect x="250" y="130" width="30" height="30" class="cell" />
  <rect x="250" y="370" width="30" height="30" class="cell" />
  <rect x="250" y="490" width="30" height="30" class="cell" />
  <rect x="250" y="550" width="30" height="30" class="cell" />
  <rect x="250" y="610" width="30" height="30" class="cell" />
  <rect x="250" y="670" width="30" height="30" class="cell" />
  <rect x="250" y="730" width="30" height="30" class="cell" />
  <rect x="280" y="70" width="30" height="30" class="cell" />
  <text x="282" y="80" class="number across-num">2</text>
  <rect x="280" y="130" width="30" height="30" class="cell" />
  <rect x="280" y="370" width="30" height="30" class="cell" />
  <text x="282" y="398" class="number down-num">11</text>
  <rect x="280" y="400" width="30" height="30" class="cell" />
  <rect x="280" y="430" width="30" height="30" class="cell" />
  <rect x="280" y="460" width="30" height="30" class="cell" />
  <rect x="280" y="490" width="30" height="30" class="cell" />
  <rect x="280" y="520" width="30" height="30" class="cell" />
  <rect x="280" y="550" width="30" height="30" class="cell" />
  <rect x="280" y="580" width="30" height="30" class="cell" />
  <rect x="280" y="610" width="30" height="30" class="cell" />
  <rect x="280" y="670" width="30" height="30" class="cell" />
  <rect x="280" y="730" width="30" height="30" class="cell" />
  <rect x="310" y="70" width="30" height="30" class="cell" />
  <rect x="310" y="130" width="30" height="30" class="cell" />
  <rect x="310" y="370" width="30" height="30" class="cell" />
  <rect x="310" y="490" width="30" height="30" class="cell" />
  <rect x="310" y="550" width="30" height="30" class="cell" />
  <rect x="310" y="610" width="30" height="30" class="cell" />
  <rect x="340" y="70" width="30" height="30" class="cell" />
  <text x="342" y="98" class="number down-num">3</text>
  <rect x="340" y="100" width="30" height="30" class="cell" />
  <rect x="340" y="130" width="30" height="30" class="cell" />
  <rect x="340" y="160" width="30" height="30" class="cell" />
  <rect x="340" y="190" width="30" height="30" class="cell" />
  <rect x="340" y="220" width="30" height="30" class="cell" />
  <rect x="340" y="250" width="30" height="30" class="cell" />
  <rect x="340" y="280" width="30" height="30" class="cell" />
  <rect x="340" y="310" width="30" height="30" class="cell" />
  <rect x="340" y="370" width="30" height="30" class="cell" />
  <rect x="340" y="490" width="30" height="30" class="cell" />
  <rect x="340" y="550" width="30" height="30" class="cell" />
  <rect x="340" y="610" width="30" height="30" class="cell" />
  <rect x="370" y="70" width="30" height="30" class="cell" />
  <rect x="370" y="130" width="30" height="30" class="cell" />
  <rect x="370" y="370" width="30" height="30" class="cell" />
  <rect x="370" y="490" width="30" height="30" class="cell" />
  <rect x="370" y="550" width="30" height="30" class="cell" />
  <rect x="370" y="610" width="30" height="30" class="cell" />
  <rect x="400" y="70" width="30" height="30" class="cell" />
  <rect x="400" y="130" width="30" height="30" class="cell" />
  <rect x="400" y="370" width="30" height="30" class="cell" />
  <rect x="400" y="490" width="30" height="30" class="cell" />
  <rect x="400" y="550" width="30" height="30" class="cell" />
  <rect x="400" y="610" width="30" height="30" class="cell" />
  <rect x="430" y="70" width="30" height="30" class="cell" />
  <rect x="430" y="130" width="30" height="30" class="cell" />
  <rect x="430" y="190" width="30" height="30" class="cell" />
  <text x="432" y="218" class="number down-num">7</text>
  <rect x="430" y="220" width="30" height="30" class="cell" />
  <rect x="430" y="250" width="30" height="30" class="cell" />
  <rect x="430" y="280" width="30" height="30" class="cell" />
  <rect x="430" y="310" width="30" height="30" class="cell" />
  <text x="432" y="320" class="number across-num">9</text>
  <rect x="430" y="340" width="30" height="30" class="cell" />
  <rect x="430" y="370" width="30" height="30" class="cell" />
  <rect x="430" y="400" width="30" height="30" class="cell" />
  <text x="432" y="410" class="number across-num">12</text>
  <rect x="430" y="430" width="30" height="30" class="cell" />
  <rect x="430" y="490" width="30" height="30" class="cell" />
  <rect x="430" y="550" width="30" height="30" class="cell" />
  <rect x="460" y="70" width="30" height="30" class="cell" />
  <rect x="460" y="130" width="30" height="30" class="cell" />
  <rect x="460" y="310" width="30" height="30" class="cell" />
  <rect x="460" y="400" width="30" height="30" class="cell" />
  <rect x="460" y="490" width="30" height="30" class="cell" />
  <rect x="460" y="550" width="30" height="30" class="cell" />
  <rect x="490" y="70" width="30" height="30" class="cell" />
  <rect x="490" y="310" width="30" height="30" class="cell" />
  <rect x="490" y="400" width="30" height="30" class="cell" />
  <rect x="520" y="10" width="30" height="30" class="cell" />
  <text x="522" y="38" class="number down-num">1</text>
  <rect x="520" y="40" width="30" height="30" class="cell" />
  <rect x="520" y="70" width="30" height="30" class="cell" />
  <rect x="520" y="100" width="30" height="30" class="cell" />
  <rect x="520" y="130" width="30" height="30" class="cell" />
  <rect x="520" y="160" width="30" height="30" class="cell" />
  <rect x="520" y="190" width="30" height="30" class="cell" />
  <rect x="520" y="220" width="30" height="30" class="cell" />
  <rect x="520" y="250" width="30" height="30" class="cell" />
  <rect x="520" y="310" width="30" height="30" class="cell" />
  <rect x="520" y="400" width="30" height="30" class="cell" />
  <rect x="550" y="70" width="30" height="30" class="cell" />
  <rect x="550" y="310" width="30" height="30" class="cell" />
  <rect x="550" y="400" width="30" height="30" class="cell" />
  <rect x="580" y="310" width="30" height="30" class="cell" />
  <rect x="580" y="400" width="30" height="30" class="cell" />
  <rect x="610" y="190" width="30" height="30" class="cell" />
  <text x="612" y="218" class="number down-num">8</text>
  <rect x="610" y="220" width="30" height="30" class="cell" />
  <rect x="610" y="250" width="30" height="30" class="cell" />
  <rect x="610" y="280" width="30" height="30" class="cell" />
  <rect x="610" y="310" width="30" height="30" class="cell" />
  <rect x="610" y="340" width="30" height="30" class="cell" />
  <rect x="610" y="370" width="30" height="30" class="cell" />
  <rect x="610" y="400" width="30" height="30" class="cell" />
  <rect x="610" y="430" width="30" height="30" class="cell" />
  <rect x="640" y="310" width="30" height="30" class="cell" />
  <rect x="640" y="400" width="30" height="30" class="cell" />
  <rect x="670" y="130" width="30" height="30" class="cell" />
  <text x="672" y="158" class="number down-num">6</text>
  <rect x="670" y="160" width="30" height="30" class="cell" />
  <rect x="670" y="190" width="30" height="30" class="cell" />
  <rect x="670" y="220" width="30" height="30" class="cell" />
  <rect x="670" y="250" width="30" height="30" class="cell" />
  <rect x="670" y="280" width="30" height="30" class="cell" />
  <rect x="670" y="310" width="30" height="30" class="cell" />
  <rect x="670" y="340" width="30" height="30" class="cell" />
  <rect x="670" y="370" width="30" height="30" class="cell" />
  <rect x="670" y="400" width="30" height="30" class="cell" />
  <text x="30" y="810" class="clue-title">Across</text>
  <text y="830" class="clue-text">
    <tspan x="30" dy="0em" fill="black">2. Gave support</tspan>
  </text>
  <text y="850" class="clue-text">
    <tspan x="30" dy="0em" fill="black">4. Pleasure walks</tspan>
  </text>
  <text y="870" class="clue-text">
    <tspan x="30" dy="0em" fill="black">9. Two-wheeled vehicle</tspan>
  </text>
  <text y="890" class="clue-text">
    <tspan x="30" dy="0em" fill="black">10. To arrive at</tspan>
  </text>
  <text y="910" class="clue-text">
    <tspan x="30" dy="0em" fill="black">12. Awakened from sleep (se réveiller)</tspan>
  </text>
  <text y="930" class="clue-text">
    <tspan x="30" dy="0em" fill="black">14. Delightful</tspan>
  </text>
  <text y="950" class="clue-text">
    <tspan x="30" dy="0em" fill="black">15. Narratives</tspan>
  </text>
  <text y="970" class="clue-text">
    <tspan x="30" dy="0em" fill="black">16. In an awkward manner</tspan>
  </text>
  <text y="990" class="clue-text">
    <tspan x="30" dy="0em" fill="black">17. Delicious food</tspan>
  </text>
  <text y="1010" class="clue-text">
    <tspan x="30" dy="0em" fill="black">18. Leisurely stroll</tspan>
  </text>
  <text x="375.0" y="810" class="clue-title">Down</text>
  <text y="830" class="clue-text">
    <tspan x="375.0" dy="0em" fill="black">1. Eagerness and zeal</tspan>
  </text>
  <text y="850" class="clue-text">
    <tspan x="375.0" dy="0em" fill="black">3. To proceed</tspan>
  </text>
  <text y="870" class="clue-text">
    <tspan x="375.0" dy="0em" fill="black">5. Thinks deeply (réfléchir)</tspan>
  </text>
  <text y="890" class="clue-text">
    <tspan x="375.0" dy="0em" fill="black">6. Irritable</tspan>
  </text>
  <text y="910" class="clue-text">
    <tspan x="375.0" dy="0em" fill="black">7. Military rank</tspan>
  </text>
  <text y="930" class="clue-text">
    <tspan x="375.0" dy="0em" fill="black">8. Performance</tspan>
  </text>
  <text y="950" class="clue-text">
    <tspan x="375.0" dy="0em" fill="black">11. Affectionate touch</tspan>
  </text>
  <text y="970" class="clue-text">
    <tspan x="375.0" dy="0em" fill="black">13. Distinction</tspan>
  </text>
 <text y="1050" class="solution-text">
   <tspan x="10" dy="0em" fill="grey">ecneréffid .31 ,eéssarbme .11 ,elcatceps .8 ,sreiciffo .7 ,esuehcnirg .6 ,tihcélfér .5 ,reunitnoc .3</tspan>
   <tspan x="10" dy="1.2em" fill="grey">,niartne'd .1 :NWOD    edanemorp .81 ,esidnairf .71 ,tnemetiordalam .61 ,seriotsih .51 ,etnamrahc .41</tspan>
   <tspan x="10" dy="1.2em" fill="grey">,eéllievér .21 ,erdnietta .01 ,etterrahc .9 ,sedanemorp .4 ,aegaruocne .2 :SSORCA</tspan>
 </text>
</svg>