<svg width="710" height="1148" viewBox="0 0 710 1148" xmlns="http://www.w3.org/2000/svg">
  <style>
    .cell { fill: white; stroke: black; stroke-width: 3px; }
    .number { font-family: sans-serif; font-weight: bold; }
    .across-num { font-size: 8px; }
    .down-num { font-size: 8px; }
    .clue-title { font-family: sans-serif; font-weight: bold; font-size: 18px; }
    .clue-text { font-family: sans-serif; font-size: 14px; }
  </style>
  <rect x="10" y="190" width="30" height="30" class="cell" />
  <text x="12" y="200" class="number across-num">7</text>
  <rect x="40" y="190" width="30" height="30" class="cell" />
  <rect x="40" y="310" width="30" height="30" class="cell" />
  <text x="42" y="320" class="number across-num">12</text>
  <rect x="40" y="490" width="30" height="30" class="cell" />
  <text x="42" y="500" class="number across-num">17</text>
  <rect x="70" y="130" width="30" height="30" class="cell" />
  <text x="72" y="140" class="number across-num">5</text>
  <rect x="70" y="190" width="30" height="30" class="cell" />
  <rect x="70" y="310" width="30" height="30" class="cell" />
  <rect x="70" y="490" width="30" height="30" class="cell" />
  <rect x="100" y="130" width="30" height="30" class="cell" />
  <rect x="100" y="190" width="30" height="30" class="cell" />
  <rect x="100" y="310" width="30" height="30" class="cell" />
  <rect x="100" y="490" width="30" height="30" class="cell" />
  <rect x="130" y="130" width="30" height="30" class="cell" />
  <rect x="130" y="190" width="30" height="30" class="cell" />
  <rect x="130" y="310" width="30" height="30" class="cell" />
  <rect x="130" y="430" width="30" height="30" class="cell" />
  <text x="132" y="458" class="number down-num">15</text>
  <rect x="130" y="460" width="30" height="30" class="cell" />
  <rect x="130" y="490" width="30" height="30" class="cell" />
  <rect x="130" y="520" width="30" height="30" class="cell" />
  <rect x="130" y="550" width="30" height="30" class="cell" />
  <rect x="130" y="580" width="30" height="30" class="cell" />
  <rect x="130" y="610" width="30" height="30" class="cell" />
  <rect x="130" y="640" width="30" height="30" class="cell" />
  <rect x="160" y="10" width="30" height="30" class="cell" />
  <text x="162" y="38" class="number down-num">1</text>
  <rect x="160" y="40" width="30" height="30" class="cell" />
  <rect x="160" y="70" width="30" height="30" class="cell" />
  <text x="162" y="80" class="number across-num">4</text>
  <rect x="160" y="100" width="30" height="30" class="cell" />
  <rect x="160" y="130" width="30" height="30" class="cell" />
  <rect x="160" y="160" width="30" height="30" class="cell" />
  <rect x="160" y="190" width="30" height="30" class="cell" />
  <rect x="160" y="220" width="30" height="30" class="cell" />
  <rect x="160" y="250" width="30" height="30" class="cell" />
  <rect x="160" y="280" width="30" height="30" class="cell" />
  <rect x="160" y="310" width="30" height="30" class="cell" />
  <rect x="160" y="490" width="30" height="30" class="cell" />
  <rect x="190" y="70" width="30" height="30" class="cell" />
  <rect x="190" y="130" width="30" height="30" class="cell" />
  <rect x="190" y="190" width="30" height="30" class="cell" />
  <rect x="190" y="310" width="30" height="30" class="cell" />
  <rect x="190" y="370" width="30" height="30" class="cell" />
  <text x="192" y="380" class="number across-num">14</text>
  <rect x="190" y="490" width="30" height="30" class="cell" />
  <rect x="220" y="70" width="30" height="30" class="cell" />
  <rect x="220" y="130" width="30" height="30" class="cell" />
  <rect x="220" y="190" width="30" height="30" class="cell" />
  <rect x="220" y="310" width="30" height="30" class="cell" />
  <rect x="220" y="370" width="30" height="30" class="cell" />
  <rect x="220" y="490" width="30" height="30" class="cell" />
  <rect x="250" y="70" width="30" height="30" class="cell" />
  <rect x="250" y="130" width="30" height="30" class="cell" />
  <rect x="250" y="190" width="30" height="30" class="cell" />
  <text x="252" y="218" class="number down-num">8</text>
  <rect x="250" y="220" width="30" height="30" class="cell" />
  <rect x="250" y="250" width="30" height="30" class="cell" />
  <rect x="250" y="280" width="30" height="30" class="cell" />
  <text x="252" y="290" class="number across-num">11</text>
  <rect x="250" y="310" width="30" height="30" class="cell" />
  <rect x="250" y="340" width="30" height="30" class="cell" />
  <rect x="250" y="370" width="30" height="30" class="cell" />
  <rect x="250" y="400" width="30" height="30" class="cell" />
  <rect x="250" y="430" width="30" height="30" class="cell" />
  <rect x="250" y="460" width="30" height="30" class="cell" />
  <rect x="250" y="490" width="30" height="30" class="cell" />
  <rect x="280" y="70" width="30" height="30" class="cell" />
  <rect x="280" y="130" width="30" height="30" class="cell" />
  <rect x="280" y="280" width="30" height="30" class="cell" />
  <rect x="280" y="370" width="30" height="30" class="cell" />
  <rect x="280" y="610" width="30" height="30" class="cell" />
  <text x="282" y="620" class="number across-num">19</text>
  <rect x="280" y="730" width="30" height="30" class="cell" />
  <text x="282" y="740" class="number across-num">20</text>
  <rect x="310" y="70" width="30" height="30" class="cell" />
  <rect x="310" y="130" width="30" height="30" class="cell" />
  <rect x="310" y="280" width="30" height="30" class="cell" />
  <rect x="310" y="340" width="30" height="30" class="cell" />
  <text x="312" y="368" class="number down-num">13</text>
  <rect x="310" y="370" width="30" height="30" class="cell" />
  <rect x="310" y="400" width="30" height="30" class="cell" />
  <rect x="310" y="430" width="30" height="30" class="cell" />
  <rect x="310" y="460" width="30" height="30" class="cell" />
  <rect x="310" y="490" width="30" height="30" class="cell" />
  <rect x="310" y="520" width="30" height="30" class="cell" />
  <rect x="310" y="550" width="30" height="30" class="cell" />
  <rect x="310" y="580" width="30" height="30" class="cell" />
  <rect x="310" y="610" width="30" height="30" class="cell" />
  <rect x="310" y="640" width="30" height="30" class="cell" />
  <rect x="310" y="730" width="30" height="30" class="cell" />
  <rect x="340" y="70" width="30" height="30" class="cell" />
  <rect x="340" y="130" width="30" height="30" class="cell" />
  <rect x="340" y="220" width="30" height="30" class="cell" />
  <text x="342" y="230" class="number across-num">10</text>
  <rect x="340" y="280" width="30" height="30" class="cell" />
  <rect x="340" y="370" width="30" height="30" class="cell" />
  <rect x="340" y="610" width="30" height="30" class="cell" />
  <rect x="340" y="730" width="30" height="30" class="cell" />
  <rect x="370" y="70" width="30" height="30" class="cell" />
  <rect x="370" y="220" width="30" height="30" class="cell" />
  <rect x="370" y="280" width="30" height="30" class="cell" />
  <rect x="370" y="370" width="30" height="30" class="cell" />
  <rect x="370" y="610" width="30" height="30" class="cell" />
  <rect x="370" y="730" width="30" height="30" class="cell" />
  <rect x="400" y="70" width="30" height="30" class="cell" />
  <rect x="400" y="220" width="30" height="30" class="cell" />
  <rect x="400" y="280" width="30" height="30" class="cell" />
  <rect x="400" y="370" width="30" height="30" class="cell" />
  <rect x="400" y="490" width="30" height="30" class="cell" />
  <text x="402" y="518" class="number down-num">18</text>
  <rect x="400" y="520" width="30" height="30" class="cell" />
  <rect x="400" y="550" width="30" height="30" class="cell" />
  <rect x="400" y="580" width="30" height="30" class="cell" />
  <rect x="400" y="610" width="30" height="30" class="cell" />
  <rect x="400" y="640" width="30" height="30" class="cell" />
  <rect x="400" y="670" width="30" height="30" class="cell" />
  <rect x="400" y="700" width="30" height="30" class="cell" />
  <rect x="400" y="730" width="30" height="30" class="cell" />
  <rect x="430" y="70" width="30" height="30" class="cell" />
  <rect x="430" y="220" width="30" height="30" class="cell" />
  <rect x="430" y="280" width="30" height="30" class="cell" />
  <rect x="430" y="370" width="30" height="30" class="cell" />
  <rect x="430" y="610" width="30" height="30" class="cell" />
  <rect x="430" y="730" width="30" height="30" class="cell" />
  <rect x="460" y="70" width="30" height="30" class="cell" />
  <rect x="460" y="220" width="30" height="30" class="cell" />
  <rect x="460" y="280" width="30" height="30" class="cell" />
  <rect x="460" y="430" width="30" height="30" class="cell" />
  <text x="462" y="458" class="number down-num">16</text>
  <rect x="460" y="460" width="30" height="30" class="cell" />
  <rect x="460" y="490" width="30" height="30" class="cell" />
  <rect x="460" y="520" width="30" height="30" class="cell" />
  <rect x="460" y="550" width="30" height="30" class="cell" />
  <rect x="460" y="580" width="30" height="30" class="cell" />
  <rect x="460" y="610" width="30" height="30" class="cell" />
  <rect x="460" y="640" width="30" height="30" class="cell" />
  <rect x="460" y="730" width="30" height="30" class="cell" />
  <rect x="490" y="190" width="30" height="30" class="cell" />
  <text x="492" y="218" class="number down-num">9</text>
  <rect x="490" y="220" width="30" height="30" class="cell" />
  <rect x="490" y="250" width="30" height="30" class="cell" />
  <rect x="490" y="280" width="30" height="30" class="cell" />
  <rect x="490" y="310" width="30" height="30" class="cell" />
  <rect x="490" y="340" width="30" height="30" class="cell" />
  <rect x="490" y="370" width="30" height="30" class="cell" />
  <rect x="490" y="400" width="30" height="30" class="cell" />
  <rect x="490" y="610" width="30" height="30" class="cell" />
  <rect x="490" y="730" width="30" height="30" class="cell" />
  <rect x="520" y="220" width="30" height="30" class="cell" />
  <rect x="520" y="280" width="30" height="30" class="cell" />
  <rect x="520" y="730" width="30" height="30" class="cell" />
  <rect x="550" y="10" width="30" height="30" class="cell" />
  <text x="552" y="38" class="number down-num">2</text>
  <rect x="550" y="40" width="30" height="30" class="cell" />
  <rect x="550" y="70" width="30" height="30" class="cell" />
  <rect x="550" y="100" width="30" height="30" class="cell" />
  <rect x="550" y="130" width="30" height="30" class="cell" />
  <rect x="550" y="160" width="30" height="30" class="cell" />
  <rect x="550" y="190" width="30" height="30" class="cell" />
  <rect x="550" y="220" width="30" height="30" class="cell" />
  <rect x="550" y="250" width="30" height="30" class="cell" />
  <rect x="550" y="730" width="30" height="30" class="cell" />
  <rect x="580" y="220" width="30" height="30" class="cell" />
  <rect x="610" y="130" width="30" height="30" class="cell" />
  <text x="612" y="158" class="number down-num">6</text>
  <rect x="610" y="160" width="30" height="30" class="cell" />
  <rect x="610" y="190" width="30" height="30" class="cell" />
  <rect x="610" y="220" width="30" height="30" class="cell" />
  <rect x="610" y="250" width="30" height="30" class="cell" />
  <rect x="610" y="280" width="30" height="30" class="cell" />
  <rect x="610" y="310" width="30" height="30" class="cell" />
  <rect x="610" y="340" width="30" height="30" class="cell" />
  <rect x="610" y="370" width="30" height="30" class="cell" />
  <rect x="640" y="220" width="30" height="30" class="cell" />
  <rect x="670" y="10" width="30" height="30" class="cell" />
  <text x="672" y="38" class="number down-num">3</text>
  <rect x="670" y="40" width="30" height="30" class="cell" />
  <rect x="670" y="70" width="30" height="30" class="cell" />
  <rect x="670" y="100" width="30" height="30" class="cell" />
  <rect x="670" y="130" width="30" height="30" class="cell" />
  <rect x="670" y="160" width="30" height="30" class="cell" />
  <rect x="670" y="190" width="30" height="30" class="cell" />
  <rect x="670" y="220" width="30" height="30" class="cell" />
  <rect x="670" y="250" width="30" height="30" class="cell" />
  <rect x="670" y="280" width="30" height="30" class="cell" />
  <rect x="670" y="310" width="30" height="30" class="cell" />
  <text x="30" y="810" class="clue-title">Across</text>
  <text y="830" class="clue-text">
    <tspan x="30" dy="0em" fill="black">4. Fleeing</tspan>
  </text>
  <text y="850" class="clue-text">
    <tspan x="30" dy="0em" fill="black">5. Parted ways</tspan>
  </text>
  <text y="870" class="clue-text">
    <tspan x="30" dy="0em" fill="black">7. Exciting experiences</tspan>
  </text>
  <text y="890" class="clue-text">
    <tspan x="30" dy="0em" fill="black">10. Felt intense anger</tspan>
  </text>
  <text y="910" class="clue-text">
    <tspan x="30" dy="0em" fill="black">11. To be located</tspan>
  </text>
  <text y="930" class="clue-text">
    <tspan x="30" dy="0em" fill="black">12. Ceased</tspan>
  </text>
  <text y="950" class="clue-text">
    <tspan x="30" dy="0em" fill="black">14. Subjunctive of connaître</tspan>
  </text>
  <text y="970" class="clue-text">
    <tspan x="30" dy="0em" fill="black">17. Moving lightly and quickly</tspan>
  </text>
  <text y="990" class="clue-text">
    <tspan x="30" dy="0em" fill="black">19. Applying color</tspan>
  </text>
  <text y="1010" class="clue-text">
    <tspan x="30" dy="0em" fill="black">20. Arrousal</tspan>
  </text>
  <text x="375.0" y="810" class="clue-title">Down</text>
  <text y="830" class="clue-text">
    <tspan x="375.0" dy="0em" fill="black">1. Vanished</tspan>
  </text>
  <text y="850" class="clue-text">
    <tspan x="375.0" dy="0em" fill="black">2. Ascending</tspan>
  </text>
  <text y="870" class="clue-text">
    <tspan x="375.0" dy="0em" fill="black">3. Suggestion</tspan>
  </text>
  <text y="890" class="clue-text">
    <tspan x="375.0" dy="0em" fill="black">6. Making a crow sound</tspan>
  </text>
  <text y="910" class="clue-text">
    <tspan x="375.0" dy="0em" fill="black">8. Anticipated</tspan>
  </text>
  <text y="930" class="clue-text">
    <tspan x="375.0" dy="0em" fill="black">9. Surrounding area</tspan>
  </text>
  <text y="950" class="clue-text">
    <tspan x="375.0" dy="0em" fill="black">13. Splendid</tspan>
  </text>
  <text y="970" class="clue-text">
    <tspan x="375.0" dy="0em" fill="black">15. Runs away</tspan>
  </text>
  <text y="990" class="clue-text">
    <tspan x="375.0" dy="0em" fill="black">16. Expressing possibility</tspan>
  </text>
  <text y="1010" class="clue-text">
    <tspan x="375.0" dy="0em" fill="black">18. Emitting rays of light</tspan>
  </text>
 <text y="1050" class="solution-text">
   <tspan x="10" dy="0em" fill="grey">tnannoyar .81 ,tnessiup .61 ,tiufne's .51 ,seuqifingam .31 ,ruotnela .9 ,tiadnetta's .8 ,tnassaorc .6</tspan>
   <tspan x="10" dy="1.2em" fill="grey">,noitisoporp .3 ,tnavelé's .2 ,tnerurapsid .1 :NWOD    noitaticxe .02 ,tnangiep .91 ,tnatelov .71</tspan>
   <tspan x="10" dy="1.2em" fill="grey">,essiannoc .41 ,tiatêrra .21 ,tneiavuort .11 ,tiannolliuob .01 ,serutneva .7 ,tnerèrapés .5 ,tnappahcé's</tspan>
   <tspan x="10" dy="1.2em" fill="grey">.4 :SSORCA</tspan>
 </text>
</svg>