<svg width="710" height="1148" viewBox="0 0 710 1148" xmlns="http://www.w3.org/2000/svg">
  <style>
    .cell { fill: white; stroke: black; stroke-width: 3px; }
    .number { font-family: sans-serif; font-weight: bold; }
    .across-num { font-size: 8px; }
    .down-num { font-size: 8px; }
    .clue-title { font-family: sans-serif; font-weight: bold; font-size: 18px; }
    .clue-text { font-family: sans-serif; font-size: 14px; }
  </style>
  <rect x="10" y="250" width="30" height="30" class="cell" />
  <text x="12" y="278" class="number down-num">8</text>
  <rect x="10" y="280" width="30" height="30" class="cell" />
  <rect x="10" y="310" width="30" height="30" class="cell" />
  <rect x="10" y="340" width="30" height="30" class="cell" />
  <rect x="10" y="370" width="30" height="30" class="cell" />
  <rect x="10" y="400" width="30" height="30" class="cell" />
  <rect x="10" y="430" width="30" height="30" class="cell" />
  <rect x="10" y="460" width="30" height="30" class="cell" />
  <rect x="10" y="490" width="30" height="30" class="cell" />
  <text x="12" y="500" class="number across-num">14</text>
  <rect x="10" y="520" width="30" height="30" class="cell" />
  <rect x="10" y="550" width="30" height="30" class="cell" />
  <rect x="10" y="580" width="30" height="30" class="cell" />
  <rect x="40" y="490" width="30" height="30" class="cell" />
  <rect x="70" y="190" width="30" height="30" class="cell" />
  <text x="72" y="218" class="number down-num">5</text>
  <rect x="70" y="220" width="30" height="30" class="cell" />
  <rect x="70" y="250" width="30" height="30" class="cell" />
  <rect x="70" y="280" width="30" height="30" class="cell" />
  <rect x="70" y="310" width="30" height="30" class="cell" />
  <rect x="70" y="340" width="30" height="30" class="cell" />
  <rect x="70" y="370" width="30" height="30" class="cell" />
  <rect x="70" y="400" width="30" height="30" class="cell" />
  <rect x="70" y="430" width="30" height="30" class="cell" />
  <rect x="70" y="460" width="30" height="30" class="cell" />
  <rect x="70" y="490" width="30" height="30" class="cell" />
  <rect x="100" y="490" width="30" height="30" class="cell" />
  <rect x="130" y="490" width="30" height="30" class="cell" />
  <rect x="160" y="220" width="30" height="30" class="cell" />
  <text x="162" y="248" class="number down-num">7</text>
  <rect x="160" y="250" width="30" height="30" class="cell" />
  <text x="162" y="260" class="number across-num">9</text>
  <rect x="160" y="280" width="30" height="30" class="cell" />
  <rect x="160" y="310" width="30" height="30" class="cell" />
  <rect x="160" y="340" width="30" height="30" class="cell" />
  <rect x="160" y="370" width="30" height="30" class="cell" />
  <rect x="160" y="400" width="30" height="30" class="cell" />
  <rect x="160" y="430" width="30" height="30" class="cell" />
  <rect x="160" y="460" width="30" height="30" class="cell" />
  <rect x="160" y="490" width="30" height="30" class="cell" />
  <rect x="160" y="520" width="30" height="30" class="cell" />
  <rect x="160" y="550" width="30" height="30" class="cell" />
  <rect x="160" y="580" width="30" height="30" class="cell" />
  <rect x="190" y="250" width="30" height="30" class="cell" />
  <rect x="190" y="490" width="30" height="30" class="cell" />
  <rect x="220" y="250" width="30" height="30" class="cell" />
  <rect x="220" y="370" width="30" height="30" class="cell" />
  <text x="222" y="380" class="number across-num">11</text>
  <rect x="220" y="490" width="30" height="30" class="cell" />
  <rect x="220" y="610" width="30" height="30" class="cell" />
  <text x="222" y="620" class="number across-num">17</text>
  <rect x="250" y="160" width="30" height="30" class="cell" />
  <text x="252" y="188" class="number down-num">4</text>
  <rect x="250" y="190" width="30" height="30" class="cell" />
  <rect x="250" y="220" width="30" height="30" class="cell" />
  <rect x="250" y="250" width="30" height="30" class="cell" />
  <rect x="250" y="280" width="30" height="30" class="cell" />
  <rect x="250" y="310" width="30" height="30" class="cell" />
  <rect x="250" y="340" width="30" height="30" class="cell" />
  <rect x="250" y="370" width="30" height="30" class="cell" />
  <rect x="250" y="400" width="30" height="30" class="cell" />
  <rect x="250" y="430" width="30" height="30" class="cell" />
  <rect x="250" y="490" width="30" height="30" class="cell" />
  <rect x="250" y="610" width="30" height="30" class="cell" />
  <rect x="280" y="250" width="30" height="30" class="cell" />
  <rect x="280" y="370" width="30" height="30" class="cell" />
  <rect x="280" y="490" width="30" height="30" class="cell" />
  <rect x="280" y="610" width="30" height="30" class="cell" />
  <rect x="310" y="130" width="30" height="30" class="cell" />
  <text x="312" y="140" class="number across-num">3</text>
  <rect x="310" y="250" width="30" height="30" class="cell" />
  <rect x="310" y="310" width="30" height="30" class="cell" />
  <text x="312" y="320" class="number across-num">10</text>
  <rect x="310" y="370" width="30" height="30" class="cell" />
  <rect x="310" y="610" width="30" height="30" class="cell" />
  <rect x="310" y="670" width="30" height="30" class="cell" />
  <text x="312" y="680" class="number across-num">18</text>
  <rect x="340" y="130" width="30" height="30" class="cell" />
  <rect x="340" y="190" width="30" height="30" class="cell" />
  <text x="342" y="218" class="number down-num">6</text>
  <rect x="340" y="220" width="30" height="30" class="cell" />
  <rect x="340" y="250" width="30" height="30" class="cell" />
  <rect x="340" y="280" width="30" height="30" class="cell" />
  <rect x="340" y="310" width="30" height="30" class="cell" />
  <rect x="340" y="340" width="30" height="30" class="cell" />
  <rect x="340" y="370" width="30" height="30" class="cell" />
  <rect x="340" y="400" width="30" height="30" class="cell" />
  <rect x="340" y="430" width="30" height="30" class="cell" />
  <rect x="340" y="460" width="30" height="30" class="cell" />
  <rect x="340" y="490" width="30" height="30" class="cell" />
  <rect x="340" y="550" width="30" height="30" class="cell" />
  <text x="342" y="560" class="number across-num">16</text>
  <rect x="340" y="610" width="30" height="30" class="cell" />
  <rect x="340" y="670" width="30" height="30" class="cell" />
  <rect x="370" y="130" width="30" height="30" class="cell" />
  <rect x="370" y="250" width="30" height="30" class="cell" />
  <rect x="370" y="310" width="30" height="30" class="cell" />
  <rect x="370" y="370" width="30" height="30" class="cell" />
  <rect x="370" y="550" width="30" height="30" class="cell" />
  <rect x="370" y="610" width="30" height="30" class="cell" />
  <rect x="370" y="670" width="30" height="30" class="cell" />
  <rect x="370" y="730" width="30" height="30" class="cell" />
  <text x="372" y="740" class="number across-num">19</text>
  <rect x="400" y="130" width="30" height="30" class="cell" />
  <rect x="400" y="250" width="30" height="30" class="cell" />
  <rect x="400" y="310" width="30" height="30" class="cell" />
  <rect x="400" y="370" width="30" height="30" class="cell" />
  <text x="402" y="398" class="number down-num">12</text>
  <rect x="400" y="400" width="30" height="30" class="cell" />
  <rect x="400" y="430" width="30" height="30" class="cell" />
  <rect x="400" y="460" width="30" height="30" class="cell" />
  <rect x="400" y="490" width="30" height="30" class="cell" />
  <rect x="400" y="520" width="30" height="30" class="cell" />
  <rect x="400" y="550" width="30" height="30" class="cell" />
  <rect x="400" y="580" width="30" height="30" class="cell" />
  <rect x="400" y="610" width="30" height="30" class="cell" />
  <rect x="400" y="670" width="30" height="30" class="cell" />
  <rect x="400" y="730" width="30" height="30" class="cell" />
  <rect x="430" y="130" width="30" height="30" class="cell" />
  <rect x="430" y="250" width="30" height="30" class="cell" />
  <rect x="430" y="310" width="30" height="30" class="cell" />
  <rect x="430" y="370" width="30" height="30" class="cell" />
  <rect x="430" y="550" width="30" height="30" class="cell" />
  <rect x="430" y="610" width="30" height="30" class="cell" />
  <rect x="430" y="670" width="30" height="30" class="cell" />
  <rect x="430" y="730" width="30" height="30" class="cell" />
  <rect x="460" y="130" width="30" height="30" class="cell" />
  <rect x="460" y="250" width="30" height="30" class="cell" />
  <rect x="460" y="310" width="30" height="30" class="cell" />
  <rect x="460" y="370" width="30" height="30" class="cell" />
  <rect x="460" y="550" width="30" height="30" class="cell" />
  <rect x="460" y="610" width="30" height="30" class="cell" />
  <rect x="460" y="670" width="30" height="30" class="cell" />
  <rect x="460" y="730" width="30" height="30" class="cell" />
  <rect x="490" y="130" width="30" height="30" class="cell" />
  <rect x="490" y="310" width="30" height="30" class="cell" />
  <rect x="490" y="370" width="30" height="30" class="cell" />
  <rect x="490" y="550" width="30" height="30" class="cell" />
  <rect x="490" y="670" width="30" height="30" class="cell" />
  <rect x="490" y="730" width="30" height="30" class="cell" />
  <rect x="520" y="130" width="30" height="30" class="cell" />
  <rect x="520" y="310" width="30" height="30" class="cell" />
  <rect x="520" y="370" width="30" height="30" class="cell" />
  <rect x="520" y="550" width="30" height="30" class="cell" />
  <rect x="520" y="670" width="30" height="30" class="cell" />
  <rect x="520" y="730" width="30" height="30" class="cell" />
  <rect x="550" y="130" width="30" height="30" class="cell" />
  <rect x="550" y="310" width="30" height="30" class="cell" />
  <rect x="550" y="490" width="30" height="30" class="cell" />
  <text x="552" y="518" class="number down-num">15</text>
  <rect x="550" y="520" width="30" height="30" class="cell" />
  <rect x="550" y="550" width="30" height="30" class="cell" />
  <rect x="550" y="580" width="30" height="30" class="cell" />
  <rect x="550" y="610" width="30" height="30" class="cell" />
  <rect x="550" y="640" width="30" height="30" class="cell" />
  <rect x="550" y="670" width="30" height="30" class="cell" />
  <rect x="550" y="700" width="30" height="30" class="cell" />
  <rect x="550" y="730" width="30" height="30" class="cell" />
  <rect x="580" y="100" width="30" height="30" class="cell" />
  <text x="582" y="128" class="number down-num">2</text>
  <rect x="580" y="130" width="30" height="30" class="cell" />
  <rect x="580" y="160" width="30" height="30" class="cell" />
  <rect x="580" y="190" width="30" height="30" class="cell" />
  <rect x="580" y="220" width="30" height="30" class="cell" />
  <rect x="580" y="250" width="30" height="30" class="cell" />
  <rect x="580" y="280" width="30" height="30" class="cell" />
  <rect x="580" y="310" width="30" height="30" class="cell" />
  <rect x="580" y="340" width="30" height="30" class="cell" />
  <rect x="580" y="370" width="30" height="30" class="cell" />
  <rect x="580" y="400" width="30" height="30" class="cell" />
  <rect x="580" y="430" width="30" height="30" class="cell" />
  <rect x="580" y="550" width="30" height="30" class="cell" />
  <rect x="580" y="670" width="30" height="30" class="cell" />
  <rect x="580" y="730" width="30" height="30" class="cell" />
  <rect x="610" y="130" width="30" height="30" class="cell" />
  <rect x="610" y="310" width="30" height="30" class="cell" />
  <rect x="610" y="730" width="30" height="30" class="cell" />
  <rect x="640" y="130" width="30" height="30" class="cell" />
  <rect x="640" y="430" width="30" height="30" class="cell" />
  <text x="642" y="458" class="number down-num">13</text>
  <rect x="640" y="460" width="30" height="30" class="cell" />
  <rect x="640" y="490" width="30" height="30" class="cell" />
  <rect x="640" y="520" width="30" height="30" class="cell" />
  <rect x="640" y="550" width="30" height="30" class="cell" />
  <rect x="640" y="580" width="30" height="30" class="cell" />
  <rect x="640" y="610" width="30" height="30" class="cell" />
  <rect x="640" y="640" width="30" height="30" class="cell" />
  <rect x="640" y="670" width="30" height="30" class="cell" />
  <rect x="640" y="700" width="30" height="30" class="cell" />
  <rect x="640" y="730" width="30" height="30" class="cell" />
  <rect x="670" y="10" width="30" height="30" class="cell" />
  <text x="672" y="38" class="number down-num">1</text>
  <rect x="670" y="40" width="30" height="30" class="cell" />
  <rect x="670" y="70" width="30" height="30" class="cell" />
  <rect x="670" y="100" width="30" height="30" class="cell" />
  <rect x="670" y="130" width="30" height="30" class="cell" />
  <rect x="670" y="160" width="30" height="30" class="cell" />
  <rect x="670" y="190" width="30" height="30" class="cell" />
  <rect x="670" y="220" width="30" height="30" class="cell" />
  <rect x="670" y="250" width="30" height="30" class="cell" />
  <rect x="670" y="280" width="30" height="30" class="cell" />
  <rect x="670" y="310" width="30" height="30" class="cell" />
  <rect x="670" y="340" width="30" height="30" class="cell" />
  <rect x="670" y="370" width="30" height="30" class="cell" />
  <text x="30" y="810" class="clue-title">Across</text>
  <text y="830" class="clue-text">
    <tspan x="30" dy="0em" fill="black">3. Impressive</tspan>
  </text>
  <text y="850" class="clue-text">
    <tspan x="30" dy="0em" fill="black">9. Lacking awareness</tspan>
  </text>
  <text y="870" class="clue-text">
    <tspan x="30" dy="0em" fill="black">10. Hard to believe</tspan>
  </text>
  <text y="890" class="clue-text">
    <tspan x="30" dy="0em" fill="black">11. Sad</tspan>
  </text>
  <text y="910" class="clue-text">
    <tspan x="30" dy="0em" fill="black">14. Relating to autumn</tspan>
  </text>
  <text y="930" class="clue-text">
    <tspan x="30" dy="0em" fill="black">16. Coming before</tspan>
  </text>
  <text y="950" class="clue-text">
    <tspan x="30" dy="0em" fill="black">17. Lack of strength</tspan>
  </text>
  <text y="970" class="clue-text">
    <tspan x="30" dy="0em" fill="black">18. From Austria</tspan>
  </text>
  <text y="990" class="clue-text">
    <tspan x="30" dy="0em" fill="black">19. Meetings</tspan>
  </text>
  <text x="375.0" y="810" class="clue-title">Down</text>
  <text y="830" class="clue-text">
    <tspan x="375.0" dy="0em" fill="black">1. Small birds</tspan>
  </text>
  <text y="850" class="clue-text">
    <tspan x="375.0" dy="0em" fill="black">2. Swelling; distension</tspan>
  </text>
  <text y="870" class="clue-text">
    <tspan x="375.0" dy="0em" fill="black">4. Pushing back</tspan>
  </text>
  <text y="890" class="clue-text">
    <tspan x="375.0" dy="0em" fill="black">5. In a usual way</tspan>
  </text>
  <text y="910" class="clue-text">
    <tspan x="375.0" dy="0em" fill="black">6. Confused</tspan>
  </text>
  <text y="930" class="clue-text">
    <tspan x="375.0" dy="0em" fill="black">7. Situational factors</tspan>
  </text>
  <text y="950" class="clue-text">
    <tspan x="375.0" dy="0em" fill="black">8. Meaningful</tspan>
  </text>
  <text y="970" class="clue-text">
    <tspan x="375.0" dy="0em" fill="black">12. Past participle of realize</tspan>
  </text>
  <text y="990" class="clue-text">
    <tspan x="375.0" dy="0em" fill="black">13. Scary</tspan>
  </text>
  <text y="1010" class="clue-text">
    <tspan x="375.0" dy="0em" fill="black">15. To bring to an end</tspan>
  </text>
 <text y="1050" class="solution-text">
   <tspan x="10" dy="0em" fill="grey">tnessinif .51 ,stnaifirret .31 ,seésilaér .21 ,fitacifingis .8 ,secnatsnocric .7 ,eétrecnocéd .6</tspan>
   <tspan x="10" dy="1.2em" fill="grey">,tnemelamron .5 ,tnassuoper .4 ,tnemennollab .2 ,segrog-seguor .1 :NWOD    sertnocner .91 ,neihcirtua</tspan>
   <tspan x="10" dy="1.2em" fill="grey">.81 ,esselbiaf .71 ,tnedécérp .61 ,selanmotua .41 ,esueruehlam .11 ,selbayorcni .01 ,tneicsnocni .9</tspan>
   <tspan x="10" dy="1.2em" fill="grey">,erialucatceps .3 :SSORCA</tspan>
 </text>
</svg>