<svg width="710" height="1138" viewBox="0 0 710 1138" xmlns="http://www.w3.org/2000/svg">
  <style>
    .cell { fill: white; stroke: black; stroke-width: 3px; }
    .number { font-family: sans-serif; font-weight: bold; }
    .across-num { font-size: 8px; }
    .down-num { font-size: 8px; }
    .clue-title { font-family: sans-serif; font-weight: bold; font-size: 18px; }
    .clue-text { font-family: sans-serif; font-size: 14px; }
  </style>
  <rect x="10" y="490" width="30" height="30" class="cell" />
  <text x="12" y="500" class="number across-num">16</text>
  <rect x="40" y="490" width="30" height="30" class="cell" />
  <rect x="70" y="400" width="30" height="30" class="cell" />
  <text x="72" y="428" class="number down-num">13</text>
  <rect x="70" y="430" width="30" height="30" class="cell" />
  <rect x="70" y="460" width="30" height="30" class="cell" />
  <rect x="70" y="490" width="30" height="30" class="cell" />
  <rect x="70" y="520" width="30" height="30" class="cell" />
  <rect x="70" y="550" width="30" height="30" class="cell" />
  <rect x="70" y="580" width="30" height="30" class="cell" />
  <rect x="70" y="610" width="30" height="30" class="cell" />
  <rect x="70" y="640" width="30" height="30" class="cell" />
  <rect x="70" y="670" width="30" height="30" class="cell" />
  <rect x="100" y="70" width="30" height="30" class="cell" />
  <text x="102" y="80" class="number across-num">2</text>
  <rect x="100" y="190" width="30" height="30" class="cell" />
  <text x="102" y="200" class="number across-num">7</text>
  <rect x="100" y="490" width="30" height="30" class="cell" />
  <rect x="130" y="10" width="30" height="30" class="cell" />
  <text x="132" y="38" class="number down-num">1</text>
  <rect x="130" y="40" width="30" height="30" class="cell" />
  <rect x="130" y="70" width="30" height="30" class="cell" />
  <rect x="130" y="100" width="30" height="30" class="cell" />
  <rect x="130" y="130" width="30" height="30" class="cell" />
  <rect x="130" y="160" width="30" height="30" class="cell" />
  <rect x="130" y="190" width="30" height="30" class="cell" />
  <rect x="130" y="220" width="30" height="30" class="cell" />
  <rect x="130" y="250" width="30" height="30" class="cell" />
  <rect x="130" y="280" width="30" height="30" class="cell" />
  <rect x="130" y="310" width="30" height="30" class="cell" />
  <rect x="130" y="340" width="30" height="30" class="cell" />
  <rect x="130" y="370" width="30" height="30" class="cell" />
  <rect x="130" y="400" width="30" height="30" class="cell" />
  <rect x="130" y="490" width="30" height="30" class="cell" />
  <rect x="160" y="70" width="30" height="30" class="cell" />
  <rect x="160" y="190" width="30" height="30" class="cell" />
  <rect x="160" y="490" width="30" height="30" class="cell" />
  <rect x="190" y="70" width="30" height="30" class="cell" />
  <rect x="190" y="190" width="30" height="30" class="cell" />
  <rect x="190" y="340" width="30" height="30" class="cell" />
  <text x="192" y="350" class="number across-num">10</text>
  <text x="205" y="368" class="number down-num">11</text>
  <rect x="190" y="370" width="30" height="30" class="cell" />
  <rect x="190" y="400" width="30" height="30" class="cell" />
  <rect x="190" y="430" width="30" height="30" class="cell" />
  <rect x="190" y="460" width="30" height="30" class="cell" />
  <rect x="190" y="490" width="30" height="30" class="cell" />
  <rect x="190" y="520" width="30" height="30" class="cell" />
  <rect x="190" y="550" width="30" height="30" class="cell" />
  <rect x="190" y="580" width="30" height="30" class="cell" />
  <rect x="190" y="610" width="30" height="30" class="cell" />
  <rect x="220" y="70" width="30" height="30" class="cell" />
  <rect x="220" y="130" width="30" height="30" class="cell" />
  <text x="222" y="140" class="number across-num">4</text>
  <rect x="220" y="190" width="30" height="30" class="cell" />
  <rect x="220" y="340" width="30" height="30" class="cell" />
  <rect x="220" y="490" width="30" height="30" class="cell" />
  <rect x="250" y="70" width="30" height="30" class="cell" />
  <rect x="250" y="130" width="30" height="30" class="cell" />
  <rect x="250" y="190" width="30" height="30" class="cell" />
  <rect x="250" y="340" width="30" height="30" class="cell" />
  <rect x="250" y="490" width="30" height="30" class="cell" />
  <rect x="280" y="70" width="30" height="30" class="cell" />
  <rect x="280" y="130" width="30" height="30" class="cell" />
  <text x="282" y="158" class="number down-num">5</text>
  <rect x="280" y="160" width="30" height="30" class="cell" />
  <rect x="280" y="190" width="30" height="30" class="cell" />
  <rect x="280" y="220" width="30" height="30" class="cell" />
  <rect x="280" y="250" width="30" height="30" class="cell" />
  <rect x="280" y="280" width="30" height="30" class="cell" />
  <rect x="280" y="310" width="30" height="30" class="cell" />
  <rect x="280" y="340" width="30" height="30" class="cell" />
  <rect x="280" y="370" width="30" height="30" class="cell" />
  <rect x="280" y="400" width="30" height="30" class="cell" />
  <rect x="280" y="430" width="30" height="30" class="cell" />
  <rect x="280" y="490" width="30" height="30" class="cell" />
  <rect x="280" y="550" width="30" height="30" class="cell" />
  <text x="282" y="560" class="number across-num">17</text>
  <rect x="310" y="70" width="30" height="30" class="cell" />
  <rect x="310" y="130" width="30" height="30" class="cell" />
  <rect x="310" y="190" width="30" height="30" class="cell" />
  <rect x="310" y="340" width="30" height="30" class="cell" />
  <rect x="310" y="550" width="30" height="30" class="cell" />
  <rect x="340" y="70" width="30" height="30" class="cell" />
  <rect x="340" y="130" width="30" height="30" class="cell" />
  <rect x="340" y="190" width="30" height="30" class="cell" />
  <rect x="340" y="310" width="30" height="30" class="cell" />
  <text x="342" y="338" class="number down-num">9</text>
  <rect x="340" y="340" width="30" height="30" class="cell" />
  <rect x="340" y="370" width="30" height="30" class="cell" />
  <rect x="340" y="400" width="30" height="30" class="cell" />
  <rect x="340" y="430" width="30" height="30" class="cell" />
  <rect x="340" y="460" width="30" height="30" class="cell" />
  <rect x="340" y="490" width="30" height="30" class="cell" />
  <rect x="340" y="520" width="30" height="30" class="cell" />
  <rect x="340" y="550" width="30" height="30" class="cell" />
  <rect x="340" y="580" width="30" height="30" class="cell" />
  <rect x="340" y="610" width="30" height="30" class="cell" />
  <rect x="340" y="640" width="30" height="30" class="cell" />
  <rect x="370" y="70" width="30" height="30" class="cell" />
  <rect x="370" y="130" width="30" height="30" class="cell" />
  <rect x="370" y="190" width="30" height="30" class="cell" />
  <rect x="370" y="340" width="30" height="30" class="cell" />
  <rect x="370" y="550" width="30" height="30" class="cell" />
  <rect x="370" y="700" width="30" height="30" class="cell" />
  <text x="372" y="710" class="number across-num">19</text>
  <rect x="400" y="70" width="30" height="30" class="cell" />
  <rect x="400" y="130" width="30" height="30" class="cell" />
  <rect x="400" y="190" width="30" height="30" class="cell" />
  <rect x="400" y="250" width="30" height="30" class="cell" />
  <text x="402" y="278" class="number down-num">8</text>
  <rect x="400" y="280" width="30" height="30" class="cell" />
  <rect x="400" y="310" width="30" height="30" class="cell" />
  <rect x="400" y="340" width="30" height="30" class="cell" />
  <rect x="400" y="370" width="30" height="30" class="cell" />
  <rect x="400" y="400" width="30" height="30" class="cell" />
  <rect x="400" y="430" width="30" height="30" class="cell" />
  <rect x="400" y="460" width="30" height="30" class="cell" />
  <rect x="400" y="490" width="30" height="30" class="cell" />
  <rect x="400" y="550" width="30" height="30" class="cell" />
  <rect x="400" y="700" width="30" height="30" class="cell" />
  <rect x="430" y="130" width="30" height="30" class="cell" />
  <rect x="430" y="340" width="30" height="30" class="cell" />
  <rect x="430" y="550" width="30" height="30" class="cell" />
  <rect x="430" y="640" width="30" height="30" class="cell" />
  <text x="432" y="650" class="number across-num">18</text>
  <rect x="430" y="700" width="30" height="30" class="cell" />
  <rect x="460" y="130" width="30" height="30" class="cell" />
  <rect x="460" y="550" width="30" height="30" class="cell" />
  <rect x="460" y="640" width="30" height="30" class="cell" />
  <rect x="460" y="700" width="30" height="30" class="cell" />
  <rect x="490" y="130" width="30" height="30" class="cell" />
  <text x="492" y="158" class="number down-num">6</text>
  <rect x="490" y="160" width="30" height="30" class="cell" />
  <rect x="490" y="190" width="30" height="30" class="cell" />
  <rect x="490" y="220" width="30" height="30" class="cell" />
  <rect x="490" y="250" width="30" height="30" class="cell" />
  <rect x="490" y="280" width="30" height="30" class="cell" />
  <rect x="490" y="310" width="30" height="30" class="cell" />
  <rect x="490" y="340" width="30" height="30" class="cell" />
  <rect x="490" y="370" width="30" height="30" class="cell" />
  <rect x="490" y="400" width="30" height="30" class="cell" />
  <rect x="490" y="550" width="30" height="30" class="cell" />
  <rect x="490" y="640" width="30" height="30" class="cell" />
  <rect x="490" y="700" width="30" height="30" class="cell" />
  <rect x="520" y="130" width="30" height="30" class="cell" />
  <rect x="520" y="460" width="30" height="30" class="cell" />
  <text x="522" y="488" class="number down-num">15</text>
  <rect x="520" y="490" width="30" height="30" class="cell" />
  <rect x="520" y="520" width="30" height="30" class="cell" />
  <rect x="520" y="550" width="30" height="30" class="cell" />
  <rect x="520" y="580" width="30" height="30" class="cell" />
  <rect x="520" y="610" width="30" height="30" class="cell" />
  <rect x="520" y="640" width="30" height="30" class="cell" />
  <rect x="520" y="670" width="30" height="30" class="cell" />
  <rect x="520" y="700" width="30" height="30" class="cell" />
  <rect x="550" y="100" width="30" height="30" class="cell" />
  <text x="552" y="128" class="number down-num">3</text>
  <rect x="550" y="130" width="30" height="30" class="cell" />
  <rect x="550" y="160" width="30" height="30" class="cell" />
  <rect x="550" y="190" width="30" height="30" class="cell" />
  <rect x="550" y="220" width="30" height="30" class="cell" />
  <rect x="550" y="250" width="30" height="30" class="cell" />
  <rect x="550" y="280" width="30" height="30" class="cell" />
  <rect x="550" y="310" width="30" height="30" class="cell" />
  <rect x="550" y="340" width="30" height="30" class="cell" />
  <rect x="550" y="550" width="30" height="30" class="cell" />
  <rect x="550" y="640" width="30" height="30" class="cell" />
  <rect x="550" y="700" width="30" height="30" class="cell" />
  <rect x="580" y="130" width="30" height="30" class="cell" />
  <rect x="580" y="640" width="30" height="30" class="cell" />
  <rect x="580" y="700" width="30" height="30" class="cell" />
  <rect x="610" y="430" width="30" height="30" class="cell" />
  <text x="612" y="458" class="number down-num">14</text>
  <rect x="610" y="460" width="30" height="30" class="cell" />
  <rect x="610" y="490" width="30" height="30" class="cell" />
  <rect x="610" y="520" width="30" height="30" class="cell" />
  <rect x="610" y="550" width="30" height="30" class="cell" />
  <rect x="610" y="580" width="30" height="30" class="cell" />
  <rect x="610" y="610" width="30" height="30" class="cell" />
  <rect x="610" y="640" width="30" height="30" class="cell" />
  <rect x="610" y="670" width="30" height="30" class="cell" />
  <rect x="610" y="700" width="30" height="30" class="cell" />
  <rect x="640" y="640" width="30" height="30" class="cell" />
  <rect x="670" y="370" width="30" height="30" class="cell" />
  <text x="672" y="398" class="number down-num">12</text>
  <rect x="670" y="400" width="30" height="30" class="cell" />
  <rect x="670" y="430" width="30" height="30" class="cell" />
  <rect x="670" y="460" width="30" height="30" class="cell" />
  <rect x="670" y="490" width="30" height="30" class="cell" />
  <rect x="670" y="520" width="30" height="30" class="cell" />
  <rect x="670" y="550" width="30" height="30" class="cell" />
  <rect x="670" y="580" width="30" height="30" class="cell" />
  <rect x="670" y="610" width="30" height="30" class="cell" />
  <rect x="670" y="640" width="30" height="30" class="cell" />
  <text x="30" y="780" class="clue-title">Across</text>
  <text y="800" class="clue-text">
    <tspan x="30" dy="0em" fill="black">2. Loud deep sound</tspan>
  </text>
  <text y="820" class="clue-text">
    <tspan x="30" dy="0em" fill="black">4. Considering</tspan>
  </text>
  <text y="840" class="clue-text">
    <tspan x="30" dy="0em" fill="black">7. Perceived by ear</tspan>
  </text>
  <text y="860" class="clue-text">
    <tspan x="30" dy="0em" fill="black">10. Belonging to kids</tspan>
  </text>
  <text y="880" class="clue-text">
    <tspan x="30" dy="0em" fill="black">16. Secured with a bolt</tspan>
  </text>
  <text y="900" class="clue-text">
    <tspan x="30" dy="0em" fill="black">17. Past tense of understand</tspan>
  </text>
  <text y="920" class="clue-text">
    <tspan x="30" dy="0em" fill="black">18. Feeling intense dislike</tspan>
  </text>
  <text y="940" class="clue-text">
    <tspan x="30" dy="0em" fill="black">19. Carrying something</tspan>
  </text>
  <text x="375.0" y="780" class="clue-title">Down</text>
  <text y="800" class="clue-text">
    <tspan x="375.0" dy="0em" fill="black">1. Cause distress to</tspan>
  </text>
  <text y="820" class="clue-text">
    <tspan x="375.0" dy="0em" fill="black">3. Leaning</tspan>
  </text>
  <text y="840" class="clue-text">
    <tspan x="375.0" dy="0em" fill="black">5. Causing shivers</tspan>
  </text>
  <text y="860" class="clue-text">
    <tspan x="375.0" dy="0em" fill="black">6. Made oneself comfortable</tspan>
  </text>
  <text y="880" class="clue-text">
    <tspan x="375.0" dy="0em" fill="black">8. Keep doing</tspan>
  </text>
  <text y="900" class="clue-text">
    <tspan x="375.0" dy="0em" fill="black">9. In a perfect manner</tspan>
  </text>
  <text y="920" class="clue-text">
    <tspan x="375.0" dy="0em" fill="black">11. Silken trap</tspan>
  </text>
  <text y="940" class="clue-text">
    <tspan x="375.0" dy="0em" fill="black">12. Jumped lightly</tspan>
  </text>
  <text y="960" class="clue-text">
    <tspan x="375.0" dy="0em" fill="black">13. Ran after</tspan>
  </text>
  <text y="980" class="clue-text">
    <tspan x="375.0" dy="0em" fill="black">14. Observing</tspan>
  </text>
  <text y="1000" class="clue-text">
    <tspan x="375.0" dy="0em" fill="black">15. Sound of a bird</tspan>
  </text>
 <text y="1040" class="solution-text">
   <tspan x="10" dy="0em" fill="grey">tnemeipép .51 ,tnauqramer .41 ,tiviusruop .31 ,tiallituas .21 ,eéngiara'd .11 ,tnemetiafrap .9</tspan>
   <tspan x="10" dy="1.2em" fill="grey">,zeunitnoc .8 ,allatsni's .6 ,tnannossirf .5 ,tnanilcni .3 ,li-t-etnemruot .1 :NWOD    tnatroppa .91</tspan>
   <tspan x="10" dy="1.2em" fill="grey">,tnatsetéd .81 ,tianerpmoc .71 ,alliuorrev .61 ,stnafne'd .01 ,tneridnetne .7 ,tnassihcélfér .4</tspan>
   <tspan x="10" dy="1.2em" fill="grey">,tnemessigur .2 :SSORCA</tspan>
 </text>
</svg>