<svg width="600" height="1098" viewBox="0 0 600 1098" xmlns="http://www.w3.org/2000/svg">
  <style>
    .cell { fill: white; stroke: black; stroke-width: 3px; }
    .number { font-family: sans-serif; font-weight: bold; }
    .across-num { font-size: 8px; }
    .down-num { font-size: 8px; }
    .clue-title { font-family: sans-serif; font-weight: bold; font-size: 18px; }
    .clue-text { font-family: sans-serif; font-size: 14px; }
  </style>
  <rect x="10" y="310" width="30" height="30" class="cell" />
  <text x="12" y="338" class="number down-num">8</text>
  <rect x="10" y="340" width="30" height="30" class="cell" />
  <text x="12" y="350" class="number across-num">9</text>
  <rect x="10" y="370" width="30" height="30" class="cell" />
  <rect x="10" y="400" width="30" height="30" class="cell" />
  <rect x="10" y="430" width="30" height="30" class="cell" />
  <rect x="10" y="460" width="30" height="30" class="cell" />
  <text x="12" y="470" class="number across-num">12</text>
  <rect x="10" y="490" width="30" height="30" class="cell" />
  <rect x="10" y="520" width="30" height="30" class="cell" />
  <rect x="10" y="550" width="30" height="30" class="cell" />
  <rect x="40" y="340" width="30" height="30" class="cell" />
  <rect x="40" y="460" width="30" height="30" class="cell" />
  <rect x="70" y="130" width="30" height="30" class="cell" />
  <text x="72" y="140" class="number across-num">3</text>
  <rect x="70" y="280" width="30" height="30" class="cell" />
  <text x="72" y="290" class="number across-num">7</text>
  <rect x="70" y="340" width="30" height="30" class="cell" />
  <rect x="70" y="460" width="30" height="30" class="cell" />
  <rect x="100" y="130" width="30" height="30" class="cell" />
  <text x="102" y="158" class="number down-num">4</text>
  <rect x="100" y="160" width="30" height="30" class="cell" />
  <rect x="100" y="190" width="30" height="30" class="cell" />
  <rect x="100" y="220" width="30" height="30" class="cell" />
  <text x="102" y="230" class="number across-num">6</text>
  <rect x="100" y="250" width="30" height="30" class="cell" />
  <rect x="100" y="280" width="30" height="30" class="cell" />
  <rect x="100" y="310" width="30" height="30" class="cell" />
  <rect x="100" y="340" width="30" height="30" class="cell" />
  <rect x="100" y="370" width="30" height="30" class="cell" />
  <rect x="100" y="460" width="30" height="30" class="cell" />
  <rect x="130" y="130" width="30" height="30" class="cell" />
  <rect x="130" y="220" width="30" height="30" class="cell" />
  <rect x="130" y="280" width="30" height="30" class="cell" />
  <rect x="130" y="340" width="30" height="30" class="cell" />
  <rect x="130" y="460" width="30" height="30" class="cell" />
  <rect x="130" y="520" width="30" height="30" class="cell" />
  <text x="132" y="530" class="number across-num">14</text>
  <rect x="160" y="130" width="30" height="30" class="cell" />
  <rect x="160" y="220" width="30" height="30" class="cell" />
  <rect x="160" y="280" width="30" height="30" class="cell" />
  <rect x="160" y="340" width="30" height="30" class="cell" />
  <rect x="160" y="460" width="30" height="30" class="cell" />
  <rect x="160" y="520" width="30" height="30" class="cell" />
  <rect x="190" y="130" width="30" height="30" class="cell" />
  <rect x="190" y="220" width="30" height="30" class="cell" />
  <rect x="190" y="280" width="30" height="30" class="cell" />
  <rect x="190" y="340" width="30" height="30" class="cell" />
  <rect x="190" y="460" width="30" height="30" class="cell" />
  <rect x="190" y="520" width="30" height="30" class="cell" />
  <rect x="220" y="130" width="30" height="30" class="cell" />
  <rect x="220" y="220" width="30" height="30" class="cell" />
  <rect x="220" y="280" width="30" height="30" class="cell" />
  <rect x="220" y="340" width="30" height="30" class="cell" />
  <rect x="220" y="460" width="30" height="30" class="cell" />
  <rect x="220" y="520" width="30" height="30" class="cell" />
  <rect x="250" y="130" width="30" height="30" class="cell" />
  <rect x="250" y="220" width="30" height="30" class="cell" />
  <rect x="250" y="280" width="30" height="30" class="cell" />
  <rect x="250" y="340" width="30" height="30" class="cell" />
  <rect x="250" y="430" width="30" height="30" class="cell" />
  <text x="252" y="440" class="number across-num">10</text>
  <text x="265" y="458" class="number down-num">11</text>
  <rect x="250" y="460" width="30" height="30" class="cell" />
  <rect x="250" y="490" width="30" height="30" class="cell" />
  <rect x="250" y="520" width="30" height="30" class="cell" />
  <rect x="250" y="550" width="30" height="30" class="cell" />
  <rect x="250" y="580" width="30" height="30" class="cell" />
  <text x="252" y="590" class="number across-num">15</text>
  <rect x="250" y="610" width="30" height="30" class="cell" />
  <rect x="250" y="640" width="30" height="30" class="cell" />
  <rect x="250" y="670" width="30" height="30" class="cell" />
  <rect x="280" y="10" width="30" height="30" class="cell" />
  <text x="282" y="20" class="number across-num">1</text>
  <rect x="280" y="130" width="30" height="30" class="cell" />
  <rect x="280" y="220" width="30" height="30" class="cell" />
  <rect x="280" y="280" width="30" height="30" class="cell" />
  <rect x="280" y="340" width="30" height="30" class="cell" />
  <rect x="280" y="430" width="30" height="30" class="cell" />
  <rect x="280" y="520" width="30" height="30" class="cell" />
  <rect x="280" y="580" width="30" height="30" class="cell" />
  <rect x="310" y="10" width="30" height="30" class="cell" />
  <rect x="310" y="130" width="30" height="30" class="cell" />
  <rect x="310" y="220" width="30" height="30" class="cell" />
  <rect x="310" y="280" width="30" height="30" class="cell" />
  <rect x="310" y="340" width="30" height="30" class="cell" />
  <rect x="310" y="430" width="30" height="30" class="cell" />
  <rect x="310" y="520" width="30" height="30" class="cell" />
  <rect x="310" y="580" width="30" height="30" class="cell" />
  <rect x="340" y="10" width="30" height="30" class="cell" />
  <rect x="340" y="130" width="30" height="30" class="cell" />
  <rect x="340" y="220" width="30" height="30" class="cell" />
  <rect x="340" y="280" width="30" height="30" class="cell" />
  <rect x="340" y="340" width="30" height="30" class="cell" />
  <rect x="340" y="430" width="30" height="30" class="cell" />
  <rect x="340" y="520" width="30" height="30" class="cell" />
  <rect x="340" y="580" width="30" height="30" class="cell" />
  <rect x="370" y="10" width="30" height="30" class="cell" />
  <text x="372" y="38" class="number down-num">2</text>
  <rect x="370" y="40" width="30" height="30" class="cell" />
  <rect x="370" y="70" width="30" height="30" class="cell" />
  <rect x="370" y="100" width="30" height="30" class="cell" />
  <rect x="370" y="130" width="30" height="30" class="cell" />
  <rect x="370" y="160" width="30" height="30" class="cell" />
  <rect x="370" y="190" width="30" height="30" class="cell" />
  <rect x="370" y="220" width="30" height="30" class="cell" />
  <rect x="370" y="250" width="30" height="30" class="cell" />
  <rect x="370" y="430" width="30" height="30" class="cell" />
  <rect x="370" y="520" width="30" height="30" class="cell" />
  <rect x="370" y="580" width="30" height="30" class="cell" />
  <rect x="400" y="10" width="30" height="30" class="cell" />
  <rect x="400" y="430" width="30" height="30" class="cell" />
  <rect x="400" y="580" width="30" height="30" class="cell" />
  <rect x="430" y="10" width="30" height="30" class="cell" />
  <rect x="430" y="430" width="30" height="30" class="cell" />
  <rect x="430" y="490" width="30" height="30" class="cell" />
  <text x="432" y="518" class="number down-num">13</text>
  <rect x="430" y="520" width="30" height="30" class="cell" />
  <rect x="430" y="550" width="30" height="30" class="cell" />
  <rect x="430" y="580" width="30" height="30" class="cell" />
  <rect x="430" y="610" width="30" height="30" class="cell" />
  <rect x="430" y="640" width="30" height="30" class="cell" />
  <rect x="430" y="670" width="30" height="30" class="cell" />
  <rect x="430" y="700" width="30" height="30" class="cell" />
  <rect x="460" y="10" width="30" height="30" class="cell" />
  <rect x="460" y="430" width="30" height="30" class="cell" />
  <rect x="460" y="580" width="30" height="30" class="cell" />
  <rect x="490" y="10" width="30" height="30" class="cell" />
  <rect x="490" y="190" width="30" height="30" class="cell" />
  <text x="492" y="218" class="number down-num">5</text>
  <rect x="490" y="220" width="30" height="30" class="cell" />
  <rect x="490" y="250" width="30" height="30" class="cell" />
  <rect x="490" y="280" width="30" height="30" class="cell" />
  <rect x="490" y="310" width="30" height="30" class="cell" />
  <rect x="490" y="340" width="30" height="30" class="cell" />
  <rect x="490" y="370" width="30" height="30" class="cell" />
  <rect x="490" y="400" width="30" height="30" class="cell" />
  <rect x="490" y="430" width="30" height="30" class="cell" />
  <rect x="490" y="460" width="30" height="30" class="cell" />
  <rect x="490" y="490" width="30" height="30" class="cell" />
  <rect x="490" y="580" width="30" height="30" class="cell" />
  <rect x="520" y="10" width="30" height="30" class="cell" />
  <rect x="520" y="580" width="30" height="30" class="cell" />
  <text x="30" y="780" class="clue-title">Across</text>
  <text y="800" class="clue-text">
    <tspan x="30" dy="0em" fill="black">1. Large mammal with a trunk</tspan>
  </text>
  <text y="820" class="clue-text">
    <tspan x="30" dy="0em" fill="black">3. Covered with</tspan>
  </text>
  <text y="840" class="clue-text">
    <tspan x="30" dy="0em" fill="black">6. Required</tspan>
  </text>
  <text y="860" class="clue-text">
    <tspan x="30" dy="0em" fill="black">7. In a fast manner</tspan>
  </text>
  <text y="880" class="clue-text">
    <tspan x="30" dy="0em" fill="black">9. Enigmatic</tspan>
  </text>
  <text y="900" class="clue-text">
    <tspan x="30" dy="0em" fill="black">10. Not easily done</tspan>
  </text>
  <text y="920" class="clue-text">
    <tspan x="30" dy="0em" fill="black">12. Very small</tspan>
  </text>
  <text y="940" class="clue-text">
    <tspan x="30" dy="0em" fill="black">14. In close proximity</tspan>
  </text>
  <text y="960" class="clue-text">
    <tspan x="30" dy="0em" fill="black">15. Woven wall hanging</tspan>
  </text>
  <text x="320" y="780" class="clue-title">Down</text>
  <text y="800" class="clue-text">
    <tspan x="320" dy="0em" fill="black">2. Artworks</tspan>
  </text>
  <text y="820" class="clue-text">
    <tspan x="320" dy="0em" fill="black">4. Plentiful</tspan>
  </text>
  <text y="840" class="clue-text">
    <tspan x="320" dy="0em" fill="black">5. Soft sound</tspan>
  </text>
  <text y="860" class="clue-text">
    <tspan x="320" dy="0em" fill="black">8. Enjoyment</tspan>
  </text>
  <text y="880" class="clue-text">
    <tspan x="320" dy="0em" fill="black">11. Reversal of direction</tspan>
  </text>
  <text y="900" class="clue-text">
    <tspan x="320" dy="0em" fill="black">13. Anxious</tspan>
  </text>
 <text y="1000" class="solution-text">
   <tspan x="10" dy="0em" fill="grey">eésserts .31 ,ruot-imed .11 ,tnemesuma .8 ,tnemessiurb .5 ,etnadnoba .4 ,serutniep .2</tspan>
   <tspan x="10" dy="1.2em" fill="grey">:NWOD    eiressipat .51 ,étimixorp .41 ,elucsunim .21 ,eliciffid .01 ,sesueirétsym .9</tspan>
   <tspan x="10" dy="1.2em" fill="grey">,tnemedipar .7 ,eriassecén .6 ,tneiassipat .3 ,stnahpélé .1 :SSORCA</tspan>
 </text>
</svg>