<svg width="680" height="1168" viewBox="0 0 680 1168" xmlns="http://www.w3.org/2000/svg">
  <style>
    .cell { fill: white; stroke: black; stroke-width: 3px; }
    .number { font-family: sans-serif; font-weight: bold; }
    .across-num { font-size: 8px; }
    .down-num { font-size: 8px; }
    .clue-title { font-family: sans-serif; font-weight: bold; font-size: 18px; }
    .clue-text { font-family: sans-serif; font-size: 14px; }
  </style>
  <rect x="10" y="220" width="30" height="30" class="cell" />
  <text x="12" y="230" class="number across-num">8</text>
  <rect x="40" y="160" width="30" height="30" class="cell" />
  <text x="42" y="188" class="number down-num">6</text>
  <rect x="40" y="190" width="30" height="30" class="cell" />
  <rect x="40" y="220" width="30" height="30" class="cell" />
  <rect x="40" y="250" width="30" height="30" class="cell" />
  <rect x="40" y="280" width="30" height="30" class="cell" />
  <rect x="40" y="310" width="30" height="30" class="cell" />
  <rect x="40" y="340" width="30" height="30" class="cell" />
  <rect x="40" y="370" width="30" height="30" class="cell" />
  <rect x="40" y="400" width="30" height="30" class="cell" />
  <rect x="40" y="430" width="30" height="30" class="cell" />
  <rect x="40" y="460" width="30" height="30" class="cell" />
  <rect x="70" y="220" width="30" height="30" class="cell" />
  <rect x="100" y="100" width="30" height="30" class="cell" />
  <text x="102" y="110" class="number across-num">5</text>
  <rect x="100" y="220" width="30" height="30" class="cell" />
  <text x="102" y="248" class="number down-num">9</text>
  <rect x="100" y="250" width="30" height="30" class="cell" />
  <rect x="100" y="280" width="30" height="30" class="cell" />
  <rect x="100" y="310" width="30" height="30" class="cell" />
  <rect x="100" y="340" width="30" height="30" class="cell" />
  <rect x="100" y="370" width="30" height="30" class="cell" />
  <rect x="100" y="400" width="30" height="30" class="cell" />
  <rect x="100" y="430" width="30" height="30" class="cell" />
  <rect x="100" y="460" width="30" height="30" class="cell" />
  <rect x="100" y="490" width="30" height="30" class="cell" />
  <rect x="100" y="520" width="30" height="30" class="cell" />
  <rect x="100" y="550" width="30" height="30" class="cell" />
  <rect x="100" y="580" width="30" height="30" class="cell" />
  <rect x="130" y="100" width="30" height="30" class="cell" />
  <rect x="130" y="220" width="30" height="30" class="cell" />
  <rect x="160" y="100" width="30" height="30" class="cell" />
  <rect x="160" y="220" width="30" height="30" class="cell" />
  <rect x="190" y="100" width="30" height="30" class="cell" />
  <rect x="190" y="220" width="30" height="30" class="cell" />
  <rect x="220" y="100" width="30" height="30" class="cell" />
  <rect x="220" y="220" width="30" height="30" class="cell" />
  <rect x="220" y="370" width="30" height="30" class="cell" />
  <text x="222" y="380" class="number across-num">13</text>
  <rect x="250" y="100" width="30" height="30" class="cell" />
  <rect x="250" y="220" width="30" height="30" class="cell" />
  <rect x="250" y="310" width="30" height="30" class="cell" />
  <text x="252" y="338" class="number down-num">11</text>
  <rect x="250" y="340" width="30" height="30" class="cell" />
  <rect x="250" y="370" width="30" height="30" class="cell" />
  <rect x="250" y="400" width="30" height="30" class="cell" />
  <rect x="250" y="430" width="30" height="30" class="cell" />
  <rect x="250" y="460" width="30" height="30" class="cell" />
  <rect x="250" y="490" width="30" height="30" class="cell" />
  <rect x="250" y="520" width="30" height="30" class="cell" />
  <rect x="250" y="550" width="30" height="30" class="cell" />
  <rect x="250" y="580" width="30" height="30" class="cell" />
  <rect x="250" y="610" width="30" height="30" class="cell" />
  <rect x="250" y="640" width="30" height="30" class="cell" />
  <rect x="250" y="670" width="30" height="30" class="cell" />
  <rect x="280" y="10" width="30" height="30" class="cell" />
  <text x="282" y="38" class="number down-num">1</text>
  <rect x="280" y="40" width="30" height="30" class="cell" />
  <text x="282" y="50" class="number across-num">3</text>
  <rect x="280" y="70" width="30" height="30" class="cell" />
  <rect x="280" y="100" width="30" height="30" class="cell" />
  <rect x="280" y="130" width="30" height="30" class="cell" />
  <rect x="280" y="160" width="30" height="30" class="cell" />
  <rect x="280" y="190" width="30" height="30" class="cell" />
  <rect x="280" y="220" width="30" height="30" class="cell" />
  <rect x="280" y="250" width="30" height="30" class="cell" />
  <rect x="280" y="280" width="30" height="30" class="cell" />
  <rect x="280" y="370" width="30" height="30" class="cell" />
  <rect x="310" y="40" width="30" height="30" class="cell" />
  <rect x="310" y="100" width="30" height="30" class="cell" />
  <rect x="310" y="220" width="30" height="30" class="cell" />
  <rect x="310" y="310" width="30" height="30" class="cell" />
  <text x="312" y="338" class="number down-num">12</text>
  <rect x="310" y="340" width="30" height="30" class="cell" />
  <rect x="310" y="370" width="30" height="30" class="cell" />
  <rect x="310" y="400" width="30" height="30" class="cell" />
  <rect x="310" y="430" width="30" height="30" class="cell" />
  <rect x="310" y="460" width="30" height="30" class="cell" />
  <rect x="310" y="490" width="30" height="30" class="cell" />
  <rect x="310" y="520" width="30" height="30" class="cell" />
  <rect x="310" y="550" width="30" height="30" class="cell" />
  <rect x="310" y="580" width="30" height="30" class="cell" />
  <rect x="310" y="610" width="30" height="30" class="cell" />
  <rect x="310" y="640" width="30" height="30" class="cell" />
  <rect x="340" y="40" width="30" height="30" class="cell" />
  <rect x="340" y="100" width="30" height="30" class="cell" />
  <rect x="340" y="220" width="30" height="30" class="cell" />
  <rect x="340" y="370" width="30" height="30" class="cell" />
  <rect x="370" y="40" width="30" height="30" class="cell" />
  <rect x="370" y="100" width="30" height="30" class="cell" />
  <rect x="370" y="370" width="30" height="30" class="cell" />
  <rect x="370" y="460" width="30" height="30" class="cell" />
  <text x="372" y="470" class="number across-num">16</text>
  <rect x="400" y="40" width="30" height="30" class="cell" />
  <rect x="400" y="100" width="30" height="30" class="cell" />
  <rect x="400" y="190" width="30" height="30" class="cell" />
  <text x="402" y="218" class="number down-num">7</text>
  <rect x="400" y="220" width="30" height="30" class="cell" />
  <rect x="400" y="250" width="30" height="30" class="cell" />
  <rect x="400" y="280" width="30" height="30" class="cell" />
  <rect x="400" y="310" width="30" height="30" class="cell" />
  <rect x="400" y="340" width="30" height="30" class="cell" />
  <rect x="400" y="370" width="30" height="30" class="cell" />
  <rect x="400" y="400" width="30" height="30" class="cell" />
  <rect x="400" y="430" width="30" height="30" class="cell" />
  <rect x="400" y="460" width="30" height="30" class="cell" />
  <rect x="400" y="490" width="30" height="30" class="cell" />
  <rect x="430" y="40" width="30" height="30" class="cell" />
  <rect x="430" y="370" width="30" height="30" class="cell" />
  <rect x="430" y="460" width="30" height="30" class="cell" />
  <rect x="460" y="40" width="30" height="30" class="cell" />
  <text x="462" y="68" class="number down-num">4</text>
  <rect x="460" y="70" width="30" height="30" class="cell" />
  <rect x="460" y="100" width="30" height="30" class="cell" />
  <rect x="460" y="130" width="30" height="30" class="cell" />
  <rect x="460" y="160" width="30" height="30" class="cell" />
  <rect x="460" y="190" width="30" height="30" class="cell" />
  <rect x="460" y="220" width="30" height="30" class="cell" />
  <rect x="460" y="250" width="30" height="30" class="cell" />
  <rect x="460" y="280" width="30" height="30" class="cell" />
  <rect x="460" y="310" width="30" height="30" class="cell" />
  <rect x="460" y="340" width="30" height="30" class="cell" />
  <rect x="460" y="370" width="30" height="30" class="cell" />
  <rect x="460" y="460" width="30" height="30" class="cell" />
  <rect x="490" y="40" width="30" height="30" class="cell" />
  <rect x="490" y="370" width="30" height="30" class="cell" />
  <rect x="490" y="430" width="30" height="30" class="cell" />
  <text x="492" y="458" class="number down-num">15</text>
  <rect x="490" y="460" width="30" height="30" class="cell" />
  <rect x="490" y="490" width="30" height="30" class="cell" />
  <rect x="490" y="520" width="30" height="30" class="cell" />
  <rect x="490" y="550" width="30" height="30" class="cell" />
  <rect x="490" y="580" width="30" height="30" class="cell" />
  <rect x="490" y="610" width="30" height="30" class="cell" />
  <rect x="490" y="640" width="30" height="30" class="cell" />
  <rect x="490" y="670" width="30" height="30" class="cell" />
  <rect x="490" y="700" width="30" height="30" class="cell" />
  <rect x="490" y="730" width="30" height="30" class="cell" />
  <rect x="520" y="40" width="30" height="30" class="cell" />
  <rect x="520" y="370" width="30" height="30" class="cell" />
  <rect x="520" y="460" width="30" height="30" class="cell" />
  <rect x="550" y="10" width="30" height="30" class="cell" />
  <text x="552" y="38" class="number down-num">2</text>
  <rect x="550" y="40" width="30" height="30" class="cell" />
  <rect x="550" y="70" width="30" height="30" class="cell" />
  <rect x="550" y="100" width="30" height="30" class="cell" />
  <rect x="550" y="130" width="30" height="30" class="cell" />
  <rect x="550" y="160" width="30" height="30" class="cell" />
  <rect x="550" y="190" width="30" height="30" class="cell" />
  <rect x="550" y="220" width="30" height="30" class="cell" />
  <rect x="550" y="250" width="30" height="30" class="cell" />
  <rect x="550" y="280" width="30" height="30" class="cell" />
  <rect x="550" y="310" width="30" height="30" class="cell" />
  <rect x="550" y="460" width="30" height="30" class="cell" />
  <rect x="580" y="40" width="30" height="30" class="cell" />
  <rect x="580" y="370" width="30" height="30" class="cell" />
  <text x="582" y="398" class="number down-num">14</text>
  <rect x="580" y="400" width="30" height="30" class="cell" />
  <rect x="580" y="430" width="30" height="30" class="cell" />
  <rect x="580" y="460" width="30" height="30" class="cell" />
  <rect x="580" y="490" width="30" height="30" class="cell" />
  <rect x="580" y="520" width="30" height="30" class="cell" />
  <rect x="580" y="550" width="30" height="30" class="cell" />
  <rect x="580" y="580" width="30" height="30" class="cell" />
  <rect x="580" y="610" width="30" height="30" class="cell" />
  <rect x="580" y="640" width="30" height="30" class="cell" />
  <rect x="580" y="670" width="30" height="30" class="cell" />
  <rect x="580" y="700" width="30" height="30" class="cell" />
  <rect x="580" y="730" width="30" height="30" class="cell" />
  <rect x="610" y="460" width="30" height="30" class="cell" />
  <rect x="640" y="280" width="30" height="30" class="cell" />
  <text x="642" y="308" class="number down-num">10</text>
  <rect x="640" y="310" width="30" height="30" class="cell" />
  <rect x="640" y="340" width="30" height="30" class="cell" />
  <rect x="640" y="370" width="30" height="30" class="cell" />
  <rect x="640" y="400" width="30" height="30" class="cell" />
  <rect x="640" y="430" width="30" height="30" class="cell" />
  <rect x="640" y="460" width="30" height="30" class="cell" />
  <rect x="640" y="490" width="30" height="30" class="cell" />
  <rect x="640" y="520" width="30" height="30" class="cell" />
  <rect x="640" y="550" width="30" height="30" class="cell" />
  <rect x="640" y="580" width="30" height="30" class="cell" />
  <rect x="640" y="610" width="30" height="30" class="cell" />
  <rect x="640" y="640" width="30" height="30" class="cell" />
  <rect x="640" y="670" width="30" height="30" class="cell" />
  <rect x="640" y="700" width="30" height="30" class="cell" />
  <rect x="640" y="730" width="30" height="30" class="cell" />
  <text x="30" y="810" class="clue-title">Across</text>
  <text y="830" class="clue-text">
    <tspan x="30" dy="0em" fill="black">3. Continuously over a period of time</tspan>
  </text>
  <text y="850" class="clue-text">
    <tspan x="30" dy="0em" fill="black">5. Possible to conceive</tspan>
  </text>
  <text y="870" class="clue-text">
    <tspan x="30" dy="0em" fill="black">8. Flourished vigorously</tspan>
  </text>
  <text y="890" class="clue-text">
    <tspan x="30" dy="0em" fill="black">13. Completely</tspan>
  </text>
  <text y="910" class="clue-text">
    <tspan x="30" dy="0em" fill="black">16. Occupied fully</tspan>
  </text>
  <text x="360.0" y="810" class="clue-title">Down</text>
  <text y="830" class="clue-text">
    <tspan x="360.0" dy="0em" fill="black">1. Suddenly appeared; éclater</tspan>
  </text>
  <text y="850" class="clue-text">
    <tspan x="360.0" dy="0em" fill="black">2. Without interest</tspan>
  </text>
  <text y="870" class="clue-text">
    <tspan x="360.0" dy="0em" fill="black">4. Wonderful</tspan>
  </text>
  <text y="890" class="clue-text">
    <tspan x="360.0" dy="0em" fill="black">6. Living beings</tspan>
  </text>
  <text y="910" class="clue-text">
    <tspan x="360.0" dy="0em" fill="black">7. Findings</tspan>
  </text>
  <text y="930" class="clue-text">
    <tspan x="360.0" dy="0em" fill="black">9. Researchers</tspan>
  </text>
  <text y="950" class="clue-text">
    <tspan x="360.0" dy="0em" fill="black">10. With reverence</tspan>
  </text>
  <text y="970" class="clue-text">
    <tspan x="360.0" dy="0em" fill="black">11. Understanding</tspan>
  </text>
  <text y="990" class="clue-text">
    <tspan x="360.0" dy="0em" fill="black">12. Related to science</tspan>
  </text>
  <text y="1010" class="clue-text">
    <tspan x="360.0" dy="0em" fill="black">14. Showing a lack of respect</tspan>
  </text>
  <text y="1030" class="clue-text">
    <tspan x="360.0" dy="0em" fill="black">15. Power source</tspan>
  </text>
 <text y="1070" class="solution-text">
   <tspan x="10" dy="0em" fill="grey">éticirtcelé .51 ,xueutcepserri .41 ,euqifitneics .21 ,secnassiannoc .11 ,tnemesueutcepser .01</tspan>
   <tspan x="10" dy="1.2em" fill="grey">,seuqifitneics .9 ,setrevuocéd .7 ,'serutaérc' .6 ,esuellievrem .4 ,tneréffidni .2 ,tnerètalcé .1</tspan>
   <tspan x="10" dy="1.2em" fill="grey">:NWOD    tnerilpmer .61 ,tnemerèitne .31 ,tneiarépsorp .8 ,selbanigami .5 ,tnemmatsnoc .3 :SSORCA</tspan>
 </text>
</svg>