<svg width="770" height="1008" viewBox="0 0 770 1008" xmlns="http://www.w3.org/2000/svg">
  <style>
    .cell { fill: white; stroke: black; stroke-width: 3px; }
    .number { font-family: sans-serif; font-weight: bold; }
    .across-num { font-size: 8px; }
    .down-num { font-size: 8px; }
    .clue-title { font-family: sans-serif; font-weight: bold; font-size: 18px; }
    .clue-text { font-family: sans-serif; font-size: 14px; }
  </style>
  <rect x="10" y="400" width="30" height="30" class="cell" />
  <text x="12" y="410" class="number across-num">15</text>
  <rect x="40" y="370" width="30" height="30" class="cell" />
  <text x="42" y="398" class="number down-num">14</text>
  <rect x="40" y="400" width="30" height="30" class="cell" />
  <rect x="40" y="430" width="30" height="30" class="cell" />
  <rect x="40" y="460" width="30" height="30" class="cell" />
  <rect x="40" y="490" width="30" height="30" class="cell" />
  <rect x="40" y="520" width="30" height="30" class="cell" />
  <rect x="40" y="550" width="30" height="30" class="cell" />
  <rect x="40" y="580" width="30" height="30" class="cell" />
  <rect x="40" y="610" width="30" height="30" class="cell" />
  <rect x="70" y="40" width="30" height="30" class="cell" />
  <text x="72" y="50" class="number across-num">2</text>
  <rect x="70" y="400" width="30" height="30" class="cell" />
  <rect x="100" y="40" width="30" height="30" class="cell" />
  <rect x="100" y="400" width="30" height="30" class="cell" />
  <rect x="130" y="10" width="30" height="30" class="cell" />
  <text x="132" y="38" class="number down-num">1</text>
  <rect x="130" y="40" width="30" height="30" class="cell" />
  <rect x="130" y="70" width="30" height="30" class="cell" />
  <rect x="130" y="100" width="30" height="30" class="cell" />
  <rect x="130" y="130" width="30" height="30" class="cell" />
  <rect x="130" y="160" width="30" height="30" class="cell" />
  <text x="132" y="170" class="number across-num">6</text>
  <rect x="130" y="190" width="30" height="30" class="cell" />
  <rect x="130" y="220" width="30" height="30" class="cell" />
  <rect x="130" y="250" width="30" height="30" class="cell" />
  <rect x="130" y="310" width="30" height="30" class="cell" />
  <text x="132" y="338" class="number down-num">12</text>
  <rect x="130" y="340" width="30" height="30" class="cell" />
  <rect x="130" y="370" width="30" height="30" class="cell" />
  <rect x="130" y="400" width="30" height="30" class="cell" />
  <rect x="130" y="430" width="30" height="30" class="cell" />
  <rect x="130" y="460" width="30" height="30" class="cell" />
  <rect x="130" y="490" width="30" height="30" class="cell" />
  <rect x="130" y="520" width="30" height="30" class="cell" />
  <rect x="130" y="550" width="30" height="30" class="cell" />
  <rect x="130" y="580" width="30" height="30" class="cell" />
  <rect x="160" y="40" width="30" height="30" class="cell" />
  <rect x="160" y="160" width="30" height="30" class="cell" />
  <rect x="160" y="400" width="30" height="30" class="cell" />
  <rect x="190" y="40" width="30" height="30" class="cell" />
  <rect x="190" y="160" width="30" height="30" class="cell" />
  <rect x="190" y="400" width="30" height="30" class="cell" />
  <rect x="190" y="520" width="30" height="30" class="cell" />
  <text x="192" y="530" class="number across-num">17</text>
  <rect x="220" y="40" width="30" height="30" class="cell" />
  <rect x="220" y="160" width="30" height="30" class="cell" />
  <rect x="220" y="280" width="30" height="30" class="cell" />
  <text x="222" y="290" class="number across-num">11</text>
  <rect x="220" y="400" width="30" height="30" class="cell" />
  <rect x="220" y="460" width="30" height="30" class="cell" />
  <text x="222" y="470" class="number across-num">16</text>
  <rect x="220" y="520" width="30" height="30" class="cell" />
  <rect x="250" y="40" width="30" height="30" class="cell" />
  <rect x="250" y="160" width="30" height="30" class="cell" />
  <rect x="250" y="280" width="30" height="30" class="cell" />
  <rect x="250" y="400" width="30" height="30" class="cell" />
  <rect x="250" y="460" width="30" height="30" class="cell" />
  <rect x="250" y="520" width="30" height="30" class="cell" />
  <rect x="280" y="40" width="30" height="30" class="cell" />
  <rect x="280" y="160" width="30" height="30" class="cell" />
  <rect x="280" y="250" width="30" height="30" class="cell" />
  <text x="282" y="278" class="number down-num">10</text>
  <rect x="280" y="280" width="30" height="30" class="cell" />
  <rect x="280" y="310" width="30" height="30" class="cell" />
  <rect x="280" y="340" width="30" height="30" class="cell" />
  <rect x="280" y="370" width="30" height="30" class="cell" />
  <rect x="280" y="400" width="30" height="30" class="cell" />
  <rect x="280" y="430" width="30" height="30" class="cell" />
  <rect x="280" y="460" width="30" height="30" class="cell" />
  <rect x="280" y="490" width="30" height="30" class="cell" />
  <rect x="280" y="520" width="30" height="30" class="cell" />
  <rect x="280" y="580" width="30" height="30" class="cell" />
  <text x="282" y="590" class="number across-num">18</text>
  <rect x="310" y="40" width="30" height="30" class="cell" />
  <rect x="310" y="160" width="30" height="30" class="cell" />
  <rect x="310" y="280" width="30" height="30" class="cell" />
  <rect x="310" y="460" width="30" height="30" class="cell" />
  <rect x="310" y="520" width="30" height="30" class="cell" />
  <rect x="310" y="580" width="30" height="30" class="cell" />
  <rect x="340" y="40" width="30" height="30" class="cell" />
  <rect x="340" y="160" width="30" height="30" class="cell" />
  <rect x="340" y="220" width="30" height="30" class="cell" />
  <text x="342" y="230" class="number across-num">9</text>
  <rect x="340" y="280" width="30" height="30" class="cell" />
  <rect x="340" y="460" width="30" height="30" class="cell" />
  <rect x="340" y="520" width="30" height="30" class="cell" />
  <rect x="340" y="580" width="30" height="30" class="cell" />
  <rect x="370" y="40" width="30" height="30" class="cell" />
  <rect x="370" y="100" width="30" height="30" class="cell" />
  <text x="372" y="128" class="number down-num">4</text>
  <rect x="370" y="130" width="30" height="30" class="cell" />
  <rect x="370" y="160" width="30" height="30" class="cell" />
  <rect x="370" y="190" width="30" height="30" class="cell" />
  <rect x="370" y="220" width="30" height="30" class="cell" />
  <rect x="370" y="250" width="30" height="30" class="cell" />
  <rect x="370" y="280" width="30" height="30" class="cell" />
  <rect x="370" y="310" width="30" height="30" class="cell" />
  <rect x="370" y="340" width="30" height="30" class="cell" />
  <rect x="370" y="370" width="30" height="30" class="cell" />
  <rect x="370" y="400" width="30" height="30" class="cell" />
  <rect x="370" y="460" width="30" height="30" class="cell" />
  <rect x="370" y="520" width="30" height="30" class="cell" />
  <rect x="370" y="580" width="30" height="30" class="cell" />
  <rect x="400" y="220" width="30" height="30" class="cell" />
  <rect x="400" y="280" width="30" height="30" class="cell" />
  <rect x="400" y="460" width="30" height="30" class="cell" />
  <rect x="400" y="520" width="30" height="30" class="cell" />
  <rect x="400" y="580" width="30" height="30" class="cell" />
  <rect x="430" y="220" width="30" height="30" class="cell" />
  <rect x="430" y="280" width="30" height="30" class="cell" />
  <rect x="430" y="340" width="30" height="30" class="cell" />
  <text x="432" y="368" class="number down-num">13</text>
  <rect x="430" y="370" width="30" height="30" class="cell" />
  <rect x="430" y="400" width="30" height="30" class="cell" />
  <rect x="430" y="430" width="30" height="30" class="cell" />
  <rect x="430" y="460" width="30" height="30" class="cell" />
  <rect x="430" y="490" width="30" height="30" class="cell" />
  <rect x="430" y="520" width="30" height="30" class="cell" />
  <rect x="430" y="550" width="30" height="30" class="cell" />
  <rect x="430" y="580" width="30" height="30" class="cell" />
  <rect x="460" y="100" width="30" height="30" class="cell" />
  <text x="462" y="110" class="number across-num">5</text>
  <rect x="460" y="220" width="30" height="30" class="cell" />
  <rect x="460" y="280" width="30" height="30" class="cell" />
  <rect x="460" y="460" width="30" height="30" class="cell" />
  <rect x="460" y="520" width="30" height="30" class="cell" />
  <rect x="460" y="580" width="30" height="30" class="cell" />
  <rect x="490" y="100" width="30" height="30" class="cell" />
  <rect x="490" y="220" width="30" height="30" class="cell" />
  <rect x="490" y="280" width="30" height="30" class="cell" />
  <rect x="490" y="460" width="30" height="30" class="cell" />
  <rect x="490" y="520" width="30" height="30" class="cell" />
  <rect x="490" y="580" width="30" height="30" class="cell" />
  <rect x="520" y="100" width="30" height="30" class="cell" />
  <rect x="520" y="220" width="30" height="30" class="cell" />
  <rect x="520" y="520" width="30" height="30" class="cell" />
  <rect x="520" y="580" width="30" height="30" class="cell" />
  <rect x="550" y="100" width="30" height="30" class="cell" />
  <rect x="550" y="220" width="30" height="30" class="cell" />
  <rect x="550" y="580" width="30" height="30" class="cell" />
  <rect x="580" y="100" width="30" height="30" class="cell" />
  <rect x="580" y="160" width="30" height="30" class="cell" />
  <text x="582" y="188" class="number down-num">7</text>
  <rect x="580" y="190" width="30" height="30" class="cell" />
  <rect x="580" y="220" width="30" height="30" class="cell" />
  <rect x="580" y="250" width="30" height="30" class="cell" />
  <rect x="580" y="280" width="30" height="30" class="cell" />
  <rect x="580" y="310" width="30" height="30" class="cell" />
  <rect x="580" y="340" width="30" height="30" class="cell" />
  <rect x="580" y="370" width="30" height="30" class="cell" />
  <rect x="580" y="400" width="30" height="30" class="cell" />
  <rect x="580" y="580" width="30" height="30" class="cell" />
  <rect x="610" y="100" width="30" height="30" class="cell" />
  <rect x="610" y="220" width="30" height="30" class="cell" />
  <rect x="640" y="100" width="30" height="30" class="cell" />
  <rect x="640" y="160" width="30" height="30" class="cell" />
  <text x="642" y="188" class="number down-num">8</text>
  <rect x="640" y="190" width="30" height="30" class="cell" />
  <rect x="640" y="220" width="30" height="30" class="cell" />
  <rect x="640" y="250" width="30" height="30" class="cell" />
  <rect x="640" y="280" width="30" height="30" class="cell" />
  <rect x="640" y="310" width="30" height="30" class="cell" />
  <rect x="640" y="340" width="30" height="30" class="cell" />
  <rect x="640" y="370" width="30" height="30" class="cell" />
  <rect x="640" y="400" width="30" height="30" class="cell" />
  <rect x="640" y="430" width="30" height="30" class="cell" />
  <rect x="670" y="100" width="30" height="30" class="cell" />
  <rect x="670" y="220" width="30" height="30" class="cell" />
  <rect x="700" y="100" width="30" height="30" class="cell" />
  <rect x="700" y="220" width="30" height="30" class="cell" />
  <rect x="730" y="40" width="30" height="30" class="cell" />
  <text x="732" y="68" class="number down-num">3</text>
  <rect x="730" y="70" width="30" height="30" class="cell" />
  <rect x="730" y="100" width="30" height="30" class="cell" />
  <rect x="730" y="130" width="30" height="30" class="cell" />
  <rect x="730" y="160" width="30" height="30" class="cell" />
  <rect x="730" y="190" width="30" height="30" class="cell" />
  <rect x="730" y="220" width="30" height="30" class="cell" />
  <rect x="730" y="250" width="30" height="30" class="cell" />
  <rect x="730" y="280" width="30" height="30" class="cell" />
  <rect x="730" y="310" width="30" height="30" class="cell" />
  <rect x="730" y="340" width="30" height="30" class="cell" />
  <text x="30" y="690" class="clue-title">Across</text>
  <text y="710" class="clue-text">
    <tspan x="30" dy="0em" fill="black">2. To convey</tspan>
  </text>
  <text y="730" class="clue-text">
    <tspan x="30" dy="0em" fill="black">5. Plant life</tspan>
  </text>
  <text y="750" class="clue-text">
    <tspan x="30" dy="0em" fill="black">6. Consider</tspan>
  </text>
  <text y="770" class="clue-text">
    <tspan x="30" dy="0em" fill="black">9. disorganized person</tspan>
  </text>
  <text y="790" class="clue-text">
    <tspan x="30" dy="0em" fill="black">11. Job</tspan>
  </text>
  <text y="810" class="clue-text">
    <tspan x="30" dy="0em" fill="black">15. Carefulness</tspan>
  </text>
  <text y="830" class="clue-text">
    <tspan x="30" dy="0em" fill="black">16. Bright spells</tspan>
  </text>
  <text y="850" class="clue-text">
    <tspan x="30" dy="0em" fill="black">17. To create a structure</tspan>
  </text>
  <text y="870" class="clue-text">
    <tspan x="30" dy="0em" fill="black">18. Happily</tspan>
  </text>
  <text x="405.0" y="690" class="clue-title">Down</text>
  <text y="710" class="clue-text">
    <tspan x="405.0" dy="0em" fill="black">1. Went by</tspan>
  </text>
  <text y="730" class="clue-text">
    <tspan x="405.0" dy="0em" fill="black">3. Past tense of know</tspan>
  </text>
  <text y="750" class="clue-text">
    <tspan x="405.0" dy="0em" fill="black">4. Secured</tspan>
  </text>
  <text y="770" class="clue-text">
    <tspan x="405.0" dy="0em" fill="black">7. Moving in a direction</tspan>
  </text>
  <text y="790" class="clue-text">
    <tspan x="405.0" dy="0em" fill="black">8. Waking up</tspan>
  </text>
  <text y="810" class="clue-text">
    <tspan x="405.0" dy="0em" fill="black">10. Type of flower</tspan>
  </text>
  <text y="830" class="clue-text">
    <tspan x="405.0" dy="0em" fill="black">12. Observed</tspan>
  </text>
  <text y="850" class="clue-text">
    <tspan x="405.0" dy="0em" fill="black">13. Yellow spring flowers</tspan>
  </text>
  <text y="870" class="clue-text">
    <tspan x="405.0" dy="0em" fill="black">14. Color between brown and green</tspan>
  </text>
 <text y="910" class="solution-text">
   <tspan x="10" dy="0em" fill="grey">trev-nurb .41 ,sessicran .31 ,seéuqramer .21 ,selunapmac .01 ,tnallievér .8 ,tnaegirid .7 ,eélliuorrev .4</tspan>
   <tspan x="10" dy="1.2em" fill="grey">,siassiannoc .3 ,tnerèssap .1 :NWOD    tnemesueyoj .81 ,tnesiurtsnoc .71 ,seicrialcé .61 ,noituacérp .51</tspan>
   <tspan x="10" dy="1.2em" fill="grey">,relliavart .11 ,srevart-à-tuot .9 ,rihcélfér .6 ,noitatégév .5 ,retropsnart .2 :SSORCA</tspan>
 </text>
</svg>