<svg width="740" height="1148" viewBox="0 0 740 1148" xmlns="http://www.w3.org/2000/svg">
  <style>
    .cell { fill: white; stroke: black; stroke-width: 3px; }
    .number { font-family: sans-serif; font-weight: bold; }
    .across-num { font-size: 8px; }
    .down-num { font-size: 8px; }
    .clue-title { font-family: sans-serif; font-weight: bold; font-size: 18px; }
    .clue-text { font-family: sans-serif; font-size: 14px; }
  </style>
  <rect x="10" y="280" width="30" height="30" class="cell" />
  <text x="12" y="290" class="number across-num">8</text>
  <text x="25" y="308" class="number down-num">7</text>
  <rect x="10" y="310" width="30" height="30" class="cell" />
  <rect x="10" y="340" width="30" height="30" class="cell" />
  <rect x="10" y="370" width="30" height="30" class="cell" />
  <rect x="10" y="400" width="30" height="30" class="cell" />
  <rect x="10" y="430" width="30" height="30" class="cell" />
  <rect x="10" y="460" width="30" height="30" class="cell" />
  <rect x="10" y="490" width="30" height="30" class="cell" />
  <rect x="10" y="520" width="30" height="30" class="cell" />
  <rect x="10" y="550" width="30" height="30" class="cell" />
  <rect x="40" y="280" width="30" height="30" class="cell" />
  <rect x="70" y="280" width="30" height="30" class="cell" />
  <rect x="70" y="730" width="30" height="30" class="cell" />
  <text x="72" y="740" class="number across-num">19</text>
  <rect x="100" y="160" width="30" height="30" class="cell" />
  <text x="102" y="188" class="number down-num">3</text>
  <rect x="100" y="190" width="30" height="30" class="cell" />
  <rect x="100" y="220" width="30" height="30" class="cell" />
  <rect x="100" y="250" width="30" height="30" class="cell" />
  <rect x="100" y="280" width="30" height="30" class="cell" />
  <rect x="100" y="310" width="30" height="30" class="cell" />
  <rect x="100" y="340" width="30" height="30" class="cell" />
  <rect x="100" y="370" width="30" height="30" class="cell" />
  <rect x="100" y="400" width="30" height="30" class="cell" />
  <rect x="100" y="430" width="30" height="30" class="cell" />
  <rect x="100" y="460" width="30" height="30" class="cell" />
  <rect x="100" y="490" width="30" height="30" class="cell" />
  <rect x="100" y="520" width="30" height="30" class="cell" />
  <rect x="100" y="550" width="30" height="30" class="cell" />
  <rect x="100" y="730" width="30" height="30" class="cell" />
  <rect x="130" y="280" width="30" height="30" class="cell" />
  <rect x="130" y="730" width="30" height="30" class="cell" />
  <rect x="160" y="280" width="30" height="30" class="cell" />
  <rect x="160" y="430" width="30" height="30" class="cell" />
  <text x="162" y="440" class="number across-num">15</text>
  <text x="175" y="458" class="number down-num">14</text>
  <rect x="160" y="460" width="30" height="30" class="cell" />
  <rect x="160" y="490" width="30" height="30" class="cell" />
  <rect x="160" y="520" width="30" height="30" class="cell" />
  <rect x="160" y="550" width="30" height="30" class="cell" />
  <rect x="160" y="580" width="30" height="30" class="cell" />
  <rect x="160" y="610" width="30" height="30" class="cell" />
  <rect x="160" y="640" width="30" height="30" class="cell" />
  <rect x="160" y="670" width="30" height="30" class="cell" />
  <rect x="160" y="700" width="30" height="30" class="cell" />
  <rect x="160" y="730" width="30" height="30" class="cell" />
  <rect x="190" y="280" width="30" height="30" class="cell" />
  <rect x="190" y="430" width="30" height="30" class="cell" />
  <rect x="190" y="730" width="30" height="30" class="cell" />
  <rect x="220" y="70" width="30" height="30" class="cell" />
  <text x="222" y="80" class="number across-num">2</text>
  <rect x="220" y="280" width="30" height="30" class="cell" />
  <rect x="220" y="370" width="30" height="30" class="cell" />
  <text x="222" y="380" class="number across-num">12</text>
  <rect x="220" y="430" width="30" height="30" class="cell" />
  <rect x="220" y="730" width="30" height="30" class="cell" />
  <rect x="250" y="70" width="30" height="30" class="cell" />
  <rect x="250" y="220" width="30" height="30" class="cell" />
  <text x="252" y="230" class="number across-num">6</text>
  <rect x="250" y="280" width="30" height="30" class="cell" />
  <rect x="250" y="370" width="30" height="30" class="cell" />
  <rect x="250" y="430" width="30" height="30" class="cell" />
  <rect x="250" y="640" width="30" height="30" class="cell" />
  <text x="252" y="650" class="number across-num">18</text>
  <rect x="250" y="730" width="30" height="30" class="cell" />
  <rect x="280" y="10" width="30" height="30" class="cell" />
  <text x="282" y="38" class="number down-num">1</text>
  <rect x="280" y="40" width="30" height="30" class="cell" />
  <rect x="280" y="70" width="30" height="30" class="cell" />
  <rect x="280" y="100" width="30" height="30" class="cell" />
  <rect x="280" y="130" width="30" height="30" class="cell" />
  <rect x="280" y="160" width="30" height="30" class="cell" />
  <rect x="280" y="190" width="30" height="30" class="cell" />
  <rect x="280" y="220" width="30" height="30" class="cell" />
  <rect x="280" y="250" width="30" height="30" class="cell" />
  <rect x="280" y="280" width="30" height="30" class="cell" />
  <rect x="280" y="370" width="30" height="30" class="cell" />
  <text x="282" y="398" class="number down-num">13</text>
  <rect x="280" y="400" width="30" height="30" class="cell" />
  <rect x="280" y="430" width="30" height="30" class="cell" />
  <rect x="280" y="460" width="30" height="30" class="cell" />
  <rect x="280" y="490" width="30" height="30" class="cell" />
  <rect x="280" y="520" width="30" height="30" class="cell" />
  <rect x="280" y="550" width="30" height="30" class="cell" />
  <rect x="280" y="580" width="30" height="30" class="cell" />
  <rect x="280" y="610" width="30" height="30" class="cell" />
  <rect x="280" y="640" width="30" height="30" class="cell" />
  <rect x="280" y="730" width="30" height="30" class="cell" />
  <rect x="310" y="70" width="30" height="30" class="cell" />
  <rect x="310" y="220" width="30" height="30" class="cell" />
  <rect x="310" y="370" width="30" height="30" class="cell" />
  <rect x="310" y="430" width="30" height="30" class="cell" />
  <rect x="310" y="640" width="30" height="30" class="cell" />
  <rect x="310" y="730" width="30" height="30" class="cell" />
  <rect x="340" y="70" width="30" height="30" class="cell" />
  <rect x="340" y="220" width="30" height="30" class="cell" />
  <rect x="340" y="370" width="30" height="30" class="cell" />
  <rect x="340" y="430" width="30" height="30" class="cell" />
  <rect x="340" y="490" width="30" height="30" class="cell" />
  <text x="342" y="500" class="number across-num">16</text>
  <rect x="340" y="550" width="30" height="30" class="cell" />
  <text x="342" y="560" class="number across-num">17</text>
  <rect x="340" y="640" width="30" height="30" class="cell" />
  <rect x="340" y="730" width="30" height="30" class="cell" />
  <rect x="370" y="70" width="30" height="30" class="cell" />
  <rect x="370" y="220" width="30" height="30" class="cell" />
  <rect x="370" y="310" width="30" height="30" class="cell" />
  <text x="372" y="320" class="number across-num">11</text>
  <rect x="370" y="370" width="30" height="30" class="cell" />
  <rect x="370" y="430" width="30" height="30" class="cell" />
  <rect x="370" y="490" width="30" height="30" class="cell" />
  <rect x="370" y="550" width="30" height="30" class="cell" />
  <rect x="370" y="640" width="30" height="30" class="cell" />
  <rect x="370" y="730" width="30" height="30" class="cell" />
  <rect x="400" y="70" width="30" height="30" class="cell" />
  <rect x="400" y="220" width="30" height="30" class="cell" />
  <rect x="400" y="310" width="30" height="30" class="cell" />
  <rect x="400" y="370" width="30" height="30" class="cell" />
  <rect x="400" y="430" width="30" height="30" class="cell" />
  <rect x="400" y="490" width="30" height="30" class="cell" />
  <rect x="400" y="550" width="30" height="30" class="cell" />
  <rect x="400" y="640" width="30" height="30" class="cell" />
  <rect x="400" y="730" width="30" height="30" class="cell" />
  <rect x="430" y="70" width="30" height="30" class="cell" />
  <rect x="430" y="220" width="30" height="30" class="cell" />
  <rect x="430" y="280" width="30" height="30" class="cell" />
  <text x="432" y="308" class="number down-num">10</text>
  <rect x="430" y="310" width="30" height="30" class="cell" />
  <rect x="430" y="340" width="30" height="30" class="cell" />
  <rect x="430" y="370" width="30" height="30" class="cell" />
  <rect x="430" y="400" width="30" height="30" class="cell" />
  <rect x="430" y="430" width="30" height="30" class="cell" />
  <rect x="430" y="460" width="30" height="30" class="cell" />
  <rect x="430" y="490" width="30" height="30" class="cell" />
  <rect x="430" y="520" width="30" height="30" class="cell" />
  <rect x="430" y="550" width="30" height="30" class="cell" />
  <rect x="430" y="580" width="30" height="30" class="cell" />
  <rect x="430" y="640" width="30" height="30" class="cell" />
  <rect x="430" y="730" width="30" height="30" class="cell" />
  <rect x="460" y="70" width="30" height="30" class="cell" />
  <rect x="460" y="220" width="30" height="30" class="cell" />
  <rect x="460" y="310" width="30" height="30" class="cell" />
  <rect x="460" y="370" width="30" height="30" class="cell" />
  <rect x="460" y="430" width="30" height="30" class="cell" />
  <rect x="460" y="490" width="30" height="30" class="cell" />
  <rect x="460" y="550" width="30" height="30" class="cell" />
  <rect x="460" y="640" width="30" height="30" class="cell" />
  <rect x="490" y="70" width="30" height="30" class="cell" />
  <rect x="490" y="220" width="30" height="30" class="cell" />
  <rect x="490" y="310" width="30" height="30" class="cell" />
  <rect x="490" y="370" width="30" height="30" class="cell" />
  <rect x="490" y="430" width="30" height="30" class="cell" />
  <rect x="490" y="490" width="30" height="30" class="cell" />
  <rect x="490" y="550" width="30" height="30" class="cell" />
  <rect x="490" y="640" width="30" height="30" class="cell" />
  <rect x="520" y="220" width="30" height="30" class="cell" />
  <rect x="520" y="310" width="30" height="30" class="cell" />
  <rect x="520" y="370" width="30" height="30" class="cell" />
  <rect x="520" y="430" width="30" height="30" class="cell" />
  <rect x="520" y="490" width="30" height="30" class="cell" />
  <rect x="520" y="550" width="30" height="30" class="cell" />
  <rect x="520" y="640" width="30" height="30" class="cell" />
  <rect x="550" y="220" width="30" height="30" class="cell" />
  <rect x="550" y="310" width="30" height="30" class="cell" />
  <rect x="550" y="490" width="30" height="30" class="cell" />
  <rect x="550" y="550" width="30" height="30" class="cell" />
  <rect x="550" y="640" width="30" height="30" class="cell" />
  <rect x="580" y="220" width="30" height="30" class="cell" />
  <rect x="580" y="310" width="30" height="30" class="cell" />
  <rect x="580" y="490" width="30" height="30" class="cell" />
  <rect x="580" y="550" width="30" height="30" class="cell" />
  <rect x="580" y="640" width="30" height="30" class="cell" />
  <rect x="610" y="190" width="30" height="30" class="cell" />
  <text x="612" y="218" class="number down-num">5</text>
  <rect x="610" y="220" width="30" height="30" class="cell" />
  <rect x="610" y="250" width="30" height="30" class="cell" />
  <rect x="610" y="280" width="30" height="30" class="cell" />
  <rect x="610" y="310" width="30" height="30" class="cell" />
  <rect x="610" y="340" width="30" height="30" class="cell" />
  <rect x="610" y="370" width="30" height="30" class="cell" />
  <rect x="610" y="400" width="30" height="30" class="cell" />
  <rect x="610" y="430" width="30" height="30" class="cell" />
  <rect x="610" y="460" width="30" height="30" class="cell" />
  <rect x="610" y="490" width="30" height="30" class="cell" />
  <rect x="610" y="550" width="30" height="30" class="cell" />
  <rect x="640" y="220" width="30" height="30" class="cell" />
  <rect x="640" y="310" width="30" height="30" class="cell" />
  <rect x="640" y="490" width="30" height="30" class="cell" />
  <rect x="640" y="550" width="30" height="30" class="cell" />
  <rect x="670" y="310" width="30" height="30" class="cell" />
  <rect x="670" y="550" width="30" height="30" class="cell" />
  <rect x="700" y="160" width="30" height="30" class="cell" />
  <text x="702" y="188" class="number down-num">4</text>
  <rect x="700" y="190" width="30" height="30" class="cell" />
  <rect x="700" y="220" width="30" height="30" class="cell" />
  <rect x="700" y="250" width="30" height="30" class="cell" />
  <rect x="700" y="280" width="30" height="30" class="cell" />
  <rect x="700" y="310" width="30" height="30" class="cell" />
  <rect x="700" y="340" width="30" height="30" class="cell" />
  <rect x="700" y="370" width="30" height="30" class="cell" />
  <rect x="700" y="400" width="30" height="30" class="cell" />
  <rect x="700" y="430" width="30" height="30" class="cell" />
  <text x="30" y="810" class="clue-title">Across</text>
  <text y="830" class="clue-text">
    <tspan x="30" dy="0em" fill="black">2. Substance for sustenance</tspan>
  </text>
  <text y="850" class="clue-text">
    <tspan x="30" dy="0em" fill="black">6. Morning meal</tspan>
  </text>
  <text y="870" class="clue-text">
    <tspan x="30" dy="0em" fill="black">8. To come to be</tspan>
  </text>
  <text y="890" class="clue-text">
    <tspan x="30" dy="0em" fill="black">11. went down on knees</tspan>
  </text>
  <text y="910" class="clue-text">
    <tspan x="30" dy="0em" fill="black">12. Showing politeness</tspan>
  </text>
  <text y="930" class="clue-text">
    <tspan x="30" dy="0em" fill="black">15. Soothing</tspan>
  </text>
  <text y="950" class="clue-text">
    <tspan x="30" dy="0em" fill="black">16. Wall hangings</tspan>
  </text>
  <text y="970" class="clue-text">
    <tspan x="30" dy="0em" fill="black">17. Going across</tspan>
  </text>
  <text y="990" class="clue-text">
    <tspan x="30" dy="0em" fill="black">18. Coming down</tspan>
  </text>
  <text y="1010" class="clue-text">
    <tspan x="30" dy="0em" fill="black">19. Calm</tspan>
  </text>
  <text x="390.0" y="810" class="clue-title">Down</text>
  <text y="830" class="clue-text">
    <tspan x="390.0" dy="0em" fill="black">1. In a noisy manner</tspan>
  </text>
  <text y="850" class="clue-text">
    <tspan x="390.0" dy="0em" fill="black">3. In a hurried manner</tspan>
  </text>
  <text y="870" class="clue-text">
    <tspan x="390.0" dy="0em" fill="black">4. To disturb or annoy</tspan>
  </text>
  <text y="890" class="clue-text">
    <tspan x="390.0" dy="0em" fill="black">5. Quality of being kind</tspan>
  </text>
  <text y="910" class="clue-text">
    <tspan x="390.0" dy="0em" fill="black">7. Not the same</tspan>
  </text>
  <text y="930" class="clue-text">
    <tspan x="390.0" dy="0em" fill="black">9. Act of showing respect</tspan>
  </text>
  <text y="950" class="clue-text">
    <tspan x="390.0" dy="0em" fill="black">10. Kind regards</tspan>
  </text>
  <text y="970" class="clue-text">
    <tspan x="390.0" dy="0em" fill="black">13. Crying uncontrollably</tspan>
  </text>
  <text y="990" class="clue-text">
    <tspan x="390.0" dy="0em" fill="black">14. Small bird</tspan>
  </text>
 <text y="1050" class="solution-text">
   <tspan x="10" dy="0em" fill="grey">egrog-eguor .41 ,tnatolgnas .31 ,snoitatulas .01 ,noitatulas .9 ,etneréffid .7 ,essellitneg .5 ,reirartnoc .4</tspan>
   <tspan x="10" dy="1.2em" fill="grey">,tnemmatipicérp .3 ,tnemmayurb .1 :NWOD    elbabrutrepmi .91 ,tnassirretta .81 ,tnassihcnarf .71 ,seiressipat</tspan>
   <tspan x="10" dy="1.2em" fill="grey">.61 ,etnatrofnocér .51 ,xueutcepser .21 ,alliuonega's .11 ,tnenneived .8 ,renuejéd-titep .6 ,erutirruon .2</tspan>
   <tspan x="10" dy="1.2em" fill="grey">:SSORCA</tspan>
 </text>
</svg>