<?xml version="1.0" encoding="UTF-8" standalone="no"?>
<svg width="410" height="482.5" xmlns="http://www.w3.org/2000/svg">
  <rect width="100%" height="100%" fill="#f0f0f0"/>
  <rect x="5" y="5" width="150" height="20" rx="10" ry="10" fill="#ffffff" stroke="#333333" stroke-width="1"/>
  <text x="80.0" y="16.0" font-family="Arial" font-size="12" fill="#000000" text-anchor="middle" dominant-baseline="middle">emmener</text>
  <rect x="5" y="35" width="150" height="20" rx="10" ry="10" fill="#ffffff" stroke="#333333" stroke-width="1"/>
  <text x="80.0" y="46.0" font-family="Arial" font-size="12" fill="#000000" text-anchor="middle" dominant-baseline="middle">hurlait</text>
  <rect x="5" y="65" width="150" height="20" rx="10" ry="10" fill="#ffffff" stroke="#333333" stroke-width="1"/>
  <text x="80.0" y="76.0" font-family="Arial" font-size="12" fill="#000000" text-anchor="middle" dominant-baseline="middle">meure</text>
  <rect x="5" y="95" width="150" height="20" rx="10" ry="10" fill="#ffffff" stroke="#333333" stroke-width="1"/>
  <text x="80.0" y="106.0" font-family="Arial" font-size="12" fill="#000000" text-anchor="middle" dominant-baseline="middle">raconte</text>
  <rect x="5" y="125" width="150" height="20" rx="10" ry="10" fill="#ffffff" stroke="#333333" stroke-width="1"/>
  <text x="80.0" y="136.0" font-family="Arial" font-size="12" fill="#000000" text-anchor="middle" dominant-baseline="middle">intrigait</text>
  <rect x="5" y="155" width="150" height="20" rx="10" ry="10" fill="#ffffff" stroke="#333333" stroke-width="1"/>
  <text x="80.0" y="166.0" font-family="Arial" font-size="12" fill="#000000" text-anchor="middle" dominant-baseline="middle">laisse</text>
  <rect x="5" y="185" width="150" height="20" rx="10" ry="10" fill="#ffffff" stroke="#333333" stroke-width="1"/>
  <text x="80.0" y="196.0" font-family="Arial" font-size="12" fill="#000000" text-anchor="middle" dominant-baseline="middle">voulu</text>
  <rect x="5" y="215" width="150" height="20" rx="10" ry="10" fill="#ffffff" stroke="#333333" stroke-width="1"/>
  <text x="80.0" y="226.0" font-family="Arial" font-size="12" fill="#000000" text-anchor="middle" dominant-baseline="middle">musiciennes</text>
  <rect x="5" y="245" width="150" height="20" rx="10" ry="10" fill="#ffffff" stroke="#333333" stroke-width="1"/>
  <text x="80.0" y="256.0" font-family="Arial" font-size="12" fill="#000000" text-anchor="middle" dominant-baseline="middle">découvrent</text>
  <rect x="5" y="275" width="150" height="20" rx="10" ry="10" fill="#ffffff" stroke="#333333" stroke-width="1"/>
  <text x="80.0" y="286.0" font-family="Arial" font-size="12" fill="#000000" text-anchor="middle" dominant-baseline="middle">fouetta</text>
  <rect x="5" y="305" width="150" height="20" rx="10" ry="10" fill="#ffffff" stroke="#333333" stroke-width="1"/>
  <text x="80.0" y="316.0" font-family="Arial" font-size="12" fill="#000000" text-anchor="middle" dominant-baseline="middle">étions</text>
  <rect x="5" y="335" width="150" height="20" rx="10" ry="10" fill="#ffffff" stroke="#333333" stroke-width="1"/>
  <text x="80.0" y="346.0" font-family="Arial" font-size="12" fill="#000000" text-anchor="middle" dominant-baseline="middle">dort</text>
  <rect x="5" y="365" width="150" height="20" rx="10" ry="10" fill="#ffffff" stroke="#333333" stroke-width="1"/>
  <text x="80.0" y="376.0" font-family="Arial" font-size="12" fill="#000000" text-anchor="middle" dominant-baseline="middle">bougie</text>
  <rect x="5" y="395" width="150" height="20" rx="10" ry="10" fill="#ffffff" stroke="#333333" stroke-width="1"/>
  <text x="80.0" y="406.0" font-family="Arial" font-size="12" fill="#000000" text-anchor="middle" dominant-baseline="middle">gâté</text>
  <rect x="5" y="425" width="150" height="20" rx="10" ry="10" fill="#ffffff" stroke="#333333" stroke-width="1"/>
  <text x="80.0" y="436.0" font-family="Arial" font-size="12" fill="#000000" text-anchor="middle" dominant-baseline="middle">figée</text>
  <rect x="5" y="455" width="150" height="20" rx="10" ry="10" fill="#ffffff" stroke="#333333" stroke-width="1"/>
  <text x="80.0" y="466.0" font-family="Arial" font-size="12" fill="#000000" text-anchor="middle" dominant-baseline="middle">réels</text>
  <rect x="255" y="5" width="150" height="20" rx="10" ry="10" fill="#ffffff" stroke="#333333" stroke-width="1"/>
  <text x="330.0" y="16.0" font-family="Arial" font-size="12" fill="#000000" text-anchor="middle" dominant-baseline="middle">howled</text>
  <rect x="255" y="35" width="150" height="20" rx="10" ry="10" fill="#ffffff" stroke="#333333" stroke-width="1"/>
  <text x="330.0" y="46.0" font-family="Arial" font-size="12" fill="#000000" text-anchor="middle" dominant-baseline="middle">were</text>
  <rect x="255" y="65" width="150" height="20" rx="10" ry="10" fill="#ffffff" stroke="#333333" stroke-width="1"/>
  <text x="330.0" y="76.0" font-family="Arial" font-size="12" fill="#000000" text-anchor="middle" dominant-baseline="middle">leave</text>
  <rect x="255" y="95" width="150" height="20" rx="10" ry="10" fill="#ffffff" stroke="#333333" stroke-width="1"/>
  <text x="330.0" y="106.0" font-family="Arial" font-size="12" fill="#000000" text-anchor="middle" dominant-baseline="middle">intrigued</text>
  <rect x="255" y="125" width="150" height="20" rx="10" ry="10" fill="#ffffff" stroke="#333333" stroke-width="1"/>
  <text x="330.0" y="136.0" font-family="Arial" font-size="12" fill="#000000" text-anchor="middle" dominant-baseline="middle">discover</text>
  <rect x="255" y="155" width="150" height="20" rx="10" ry="10" fill="#ffffff" stroke="#333333" stroke-width="1"/>
  <text x="330.0" y="166.0" font-family="Arial" font-size="12" fill="#000000" text-anchor="middle" dominant-baseline="middle">lashed</text>
  <rect x="255" y="185" width="150" height="20" rx="10" ry="10" fill="#ffffff" stroke="#333333" stroke-width="1"/>
  <text x="330.0" y="196.0" font-family="Arial" font-size="12" fill="#000000" text-anchor="middle" dominant-baseline="middle">musical</text>
  <rect x="255" y="215" width="150" height="20" rx="10" ry="10" fill="#ffffff" stroke="#333333" stroke-width="1"/>
  <text x="330.0" y="226.0" font-family="Arial" font-size="12" fill="#000000" text-anchor="middle" dominant-baseline="middle">spoiled</text>
  <rect x="255" y="245" width="150" height="20" rx="10" ry="10" fill="#ffffff" stroke="#333333" stroke-width="1"/>
  <text x="330.0" y="256.0" font-family="Arial" font-size="12" fill="#000000" text-anchor="middle" dominant-baseline="middle">die</text>
  <rect x="255" y="275" width="150" height="20" rx="10" ry="10" fill="#ffffff" stroke="#333333" stroke-width="1"/>
  <text x="330.0" y="286.0" font-family="Arial" font-size="12" fill="#000000" text-anchor="middle" dominant-baseline="middle">wanted</text>
  <rect x="255" y="305" width="150" height="20" rx="10" ry="10" fill="#ffffff" stroke="#333333" stroke-width="1"/>
  <text x="330.0" y="316.0" font-family="Arial" font-size="12" fill="#000000" text-anchor="middle" dominant-baseline="middle">real</text>
  <rect x="255" y="335" width="150" height="20" rx="10" ry="10" fill="#ffffff" stroke="#333333" stroke-width="1"/>
  <text x="330.0" y="346.0" font-family="Arial" font-size="12" fill="#000000" text-anchor="middle" dominant-baseline="middle">tell</text>
  <rect x="255" y="365" width="150" height="20" rx="10" ry="10" fill="#ffffff" stroke="#333333" stroke-width="1"/>
  <text x="330.0" y="376.0" font-family="Arial" font-size="12" fill="#000000" text-anchor="middle" dominant-baseline="middle">take</text>
  <rect x="255" y="395" width="150" height="20" rx="10" ry="10" fill="#ffffff" stroke="#333333" stroke-width="1"/>
  <text x="330.0" y="406.0" font-family="Arial" font-size="12" fill="#000000" text-anchor="middle" dominant-baseline="middle">candle</text>
  <rect x="255" y="425" width="150" height="20" rx="10" ry="10" fill="#ffffff" stroke="#333333" stroke-width="1"/>
  <text x="330.0" y="436.0" font-family="Arial" font-size="12" fill="#000000" text-anchor="middle" dominant-baseline="middle">frozen</text>
  <rect x="255" y="455" width="150" height="20" rx="10" ry="10" fill="#ffffff" stroke="#333333" stroke-width="1"/>
  <text x="330.0" y="466.0" font-family="Arial" font-size="12" fill="#000000" text-anchor="middle" dominant-baseline="middle">sleeps</text>
  <line x1="155" y1="285.0" x2="255" y2="165.0" stroke="blue" stroke-width="2" stroke-dasharray="5,5"/>
</svg>