<?xml version="1.0" encoding="UTF-8" standalone="no"?>
<svg width="410" height="482.5" xmlns="http://www.w3.org/2000/svg">
  <rect width="100%" height="100%" fill="#f0f0f0"/>
  <rect x="5" y="5" width="150" height="20" rx="10" ry="10" fill="#ffffff" stroke="#333333" stroke-width="1"/>
  <text x="80.0" y="16.0" font-family="Arial" font-size="12" fill="#000000" text-anchor="middle" dominant-baseline="middle">rejoignant</text>
  <rect x="5" y="35" width="150" height="20" rx="10" ry="10" fill="#ffffff" stroke="#333333" stroke-width="1"/>
  <text x="80.0" y="46.0" font-family="Arial" font-size="12" fill="#000000" text-anchor="middle" dominant-baseline="middle">gardait</text>
  <rect x="5" y="65" width="150" height="20" rx="10" ry="10" fill="#ffffff" stroke="#333333" stroke-width="1"/>
  <text x="80.0" y="76.0" font-family="Arial" font-size="12" fill="#000000" text-anchor="middle" dominant-baseline="middle">vides</text>
  <rect x="5" y="95" width="150" height="20" rx="10" ry="10" fill="#ffffff" stroke="#333333" stroke-width="1"/>
  <text x="80.0" y="106.0" font-family="Arial" font-size="12" fill="#000000" text-anchor="middle" dominant-baseline="middle">pluvieux</text>
  <rect x="5" y="125" width="150" height="20" rx="10" ry="10" fill="#ffffff" stroke="#333333" stroke-width="1"/>
  <text x="80.0" y="136.0" font-family="Arial" font-size="12" fill="#000000" text-anchor="middle" dominant-baseline="middle">jouèrent</text>
  <rect x="5" y="155" width="150" height="20" rx="10" ry="10" fill="#ffffff" stroke="#333333" stroke-width="1"/>
  <text x="80.0" y="166.0" font-family="Arial" font-size="12" fill="#000000" text-anchor="middle" dominant-baseline="middle">ouvert</text>
  <rect x="5" y="185" width="150" height="20" rx="10" ry="10" fill="#ffffff" stroke="#333333" stroke-width="1"/>
  <text x="80.0" y="196.0" font-family="Arial" font-size="12" fill="#000000" text-anchor="middle" dominant-baseline="middle">méfiance</text>
  <rect x="5" y="215" width="150" height="20" rx="10" ry="10" fill="#ffffff" stroke="#333333" stroke-width="1"/>
  <text x="80.0" y="226.0" font-family="Arial" font-size="12" fill="#000000" text-anchor="middle" dominant-baseline="middle">examinant</text>
  <rect x="5" y="245" width="150" height="20" rx="10" ry="10" fill="#ffffff" stroke="#333333" stroke-width="1"/>
  <text x="80.0" y="256.0" font-family="Arial" font-size="12" fill="#000000" text-anchor="middle" dominant-baseline="middle">aisance</text>
  <rect x="5" y="275" width="150" height="20" rx="10" ry="10" fill="#ffffff" stroke="#333333" stroke-width="1"/>
  <text x="80.0" y="286.0" font-family="Arial" font-size="12" fill="#000000" text-anchor="middle" dominant-baseline="middle">mystères</text>
  <rect x="5" y="305" width="150" height="20" rx="10" ry="10" fill="#ffffff" stroke="#333333" stroke-width="1"/>
  <text x="80.0" y="316.0" font-family="Arial" font-size="12" fill="#000000" text-anchor="middle" dominant-baseline="middle">alertes</text>
  <rect x="5" y="335" width="150" height="20" rx="10" ry="10" fill="#ffffff" stroke="#333333" stroke-width="1"/>
  <text x="80.0" y="346.0" font-family="Arial" font-size="12" fill="#000000" text-anchor="middle" dominant-baseline="middle">renferme</text>
  <rect x="5" y="365" width="150" height="20" rx="10" ry="10" fill="#ffffff" stroke="#333333" stroke-width="1"/>
  <text x="80.0" y="376.0" font-family="Arial" font-size="12" fill="#000000" text-anchor="middle" dominant-baseline="middle">sentaient</text>
  <rect x="5" y="395" width="150" height="20" rx="10" ry="10" fill="#ffffff" stroke="#333333" stroke-width="1"/>
  <text x="80.0" y="406.0" font-family="Arial" font-size="12" fill="#000000" text-anchor="middle" dominant-baseline="middle">couramment</text>
  <rect x="5" y="425" width="150" height="20" rx="10" ry="10" fill="#ffffff" stroke="#333333" stroke-width="1"/>
  <text x="80.0" y="436.0" font-family="Arial" font-size="12" fill="#000000" text-anchor="middle" dominant-baseline="middle">humains</text>
  <rect x="5" y="455" width="150" height="20" rx="10" ry="10" fill="#ffffff" stroke="#333333" stroke-width="1"/>
  <text x="80.0" y="466.0" font-family="Arial" font-size="12" fill="#000000" text-anchor="middle" dominant-baseline="middle">inutilisées</text>
  <rect x="255" y="5" width="150" height="20" rx="10" ry="10" fill="#ffffff" stroke="#333333" stroke-width="1"/>
  <text x="330.0" y="16.0" font-family="Arial" font-size="12" fill="#000000" text-anchor="middle" dominant-baseline="middle">rainy</text>
  <rect x="255" y="35" width="150" height="20" rx="10" ry="10" fill="#ffffff" stroke="#333333" stroke-width="1"/>
  <text x="330.0" y="46.0" font-family="Arial" font-size="12" fill="#000000" text-anchor="middle" dominant-baseline="middle">empty</text>
  <rect x="255" y="65" width="150" height="20" rx="10" ry="10" fill="#ffffff" stroke="#333333" stroke-width="1"/>
  <text x="330.0" y="76.0" font-family="Arial" font-size="12" fill="#000000" text-anchor="middle" dominant-baseline="middle">alert</text>
  <rect x="255" y="95" width="150" height="20" rx="10" ry="10" fill="#ffffff" stroke="#333333" stroke-width="1"/>
  <text x="330.0" y="106.0" font-family="Arial" font-size="12" fill="#000000" text-anchor="middle" dominant-baseline="middle">unused</text>
  <rect x="255" y="125" width="150" height="20" rx="10" ry="10" fill="#ffffff" stroke="#333333" stroke-width="1"/>
  <text x="330.0" y="136.0" font-family="Arial" font-size="12" fill="#000000" text-anchor="middle" dominant-baseline="middle">joining</text>
  <rect x="255" y="155" width="150" height="20" rx="10" ry="10" fill="#ffffff" stroke="#333333" stroke-width="1"/>
  <text x="330.0" y="166.0" font-family="Arial" font-size="12" fill="#000000" text-anchor="middle" dominant-baseline="middle">fluently</text>
  <rect x="255" y="185" width="150" height="20" rx="10" ry="10" fill="#ffffff" stroke="#333333" stroke-width="1"/>
  <text x="330.0" y="196.0" font-family="Arial" font-size="12" fill="#000000" text-anchor="middle" dominant-baseline="middle">played</text>
  <rect x="255" y="215" width="150" height="20" rx="10" ry="10" fill="#ffffff" stroke="#333333" stroke-width="1"/>
  <text x="330.0" y="226.0" font-family="Arial" font-size="12" fill="#000000" text-anchor="middle" dominant-baseline="middle">distrust</text>
  <rect x="255" y="245" width="150" height="20" rx="10" ry="10" fill="#ffffff" stroke="#333333" stroke-width="1"/>
  <text x="330.0" y="256.0" font-family="Arial" font-size="12" fill="#000000" text-anchor="middle" dominant-baseline="middle">kept</text>
  <rect x="255" y="275" width="150" height="20" rx="10" ry="10" fill="#ffffff" stroke="#333333" stroke-width="1"/>
  <text x="330.0" y="286.0" font-family="Arial" font-size="12" fill="#000000" text-anchor="middle" dominant-baseline="middle">ease</text>
  <rect x="255" y="305" width="150" height="20" rx="10" ry="10" fill="#ffffff" stroke="#333333" stroke-width="1"/>
  <text x="330.0" y="316.0" font-family="Arial" font-size="12" fill="#000000" text-anchor="middle" dominant-baseline="middle">human</text>
  <rect x="255" y="335" width="150" height="20" rx="10" ry="10" fill="#ffffff" stroke="#333333" stroke-width="1"/>
  <text x="330.0" y="346.0" font-family="Arial" font-size="12" fill="#000000" text-anchor="middle" dominant-baseline="middle">mysteries</text>
  <rect x="255" y="365" width="150" height="20" rx="10" ry="10" fill="#ffffff" stroke="#333333" stroke-width="1"/>
  <text x="330.0" y="376.0" font-family="Arial" font-size="12" fill="#000000" text-anchor="middle" dominant-baseline="middle">felt</text>
  <rect x="255" y="395" width="150" height="20" rx="10" ry="10" fill="#ffffff" stroke="#333333" stroke-width="1"/>
  <text x="330.0" y="406.0" font-family="Arial" font-size="12" fill="#000000" text-anchor="middle" dominant-baseline="middle">open</text>
  <rect x="255" y="425" width="150" height="20" rx="10" ry="10" fill="#ffffff" stroke="#333333" stroke-width="1"/>
  <text x="330.0" y="436.0" font-family="Arial" font-size="12" fill="#000000" text-anchor="middle" dominant-baseline="middle">examining</text>
  <rect x="255" y="455" width="150" height="20" rx="10" ry="10" fill="#ffffff" stroke="#333333" stroke-width="1"/>
  <text x="330.0" y="466.0" font-family="Arial" font-size="12" fill="#000000" text-anchor="middle" dominant-baseline="middle">holds</text>
  <line x1="155" y1="105.0" x2="255" y2="15.0" stroke="blue" stroke-width="2" stroke-dasharray="5,5"/>
</svg>