<?xml version="1.0" encoding="UTF-8" standalone="no"?>
<svg width="410" height="482.5" xmlns="http://www.w3.org/2000/svg">
  <rect width="100%" height="100%" fill="#f0f0f0"/>
  <rect x="5" y="5" width="150" height="20" rx="10" ry="10" fill="#ffffff" stroke="#333333" stroke-width="1"/>
  <text x="80.0" y="16.0" font-family="Arial" font-size="12" fill="#000000" text-anchor="middle" dominant-baseline="middle">grive</text>
  <rect x="5" y="35" width="150" height="20" rx="10" ry="10" fill="#ffffff" stroke="#333333" stroke-width="1"/>
  <text x="80.0" y="46.0" font-family="Arial" font-size="12" fill="#000000" text-anchor="middle" dominant-baseline="middle">dur</text>
  <rect x="5" y="65" width="150" height="20" rx="10" ry="10" fill="#ffffff" stroke="#333333" stroke-width="1"/>
  <text x="80.0" y="76.0" font-family="Arial" font-size="12" fill="#000000" text-anchor="middle" dominant-baseline="middle">enfonça</text>
  <rect x="5" y="95" width="150" height="20" rx="10" ry="10" fill="#ffffff" stroke="#333333" stroke-width="1"/>
  <text x="80.0" y="106.0" font-family="Arial" font-size="12" fill="#000000" text-anchor="middle" dominant-baseline="middle">élevé</text>
  <rect x="5" y="125" width="150" height="20" rx="10" ry="10" fill="#ffffff" stroke="#333333" stroke-width="1"/>
  <text x="80.0" y="136.0" font-family="Arial" font-size="12" fill="#000000" text-anchor="middle" dominant-baseline="middle">tout-à-travers</text>
  <rect x="5" y="155" width="150" height="20" rx="10" ry="10" fill="#ffffff" stroke="#333333" stroke-width="1"/>
  <text x="80.0" y="166.0" font-family="Arial" font-size="12" fill="#000000" text-anchor="middle" dominant-baseline="middle">sécurité</text>
  <rect x="5" y="185" width="150" height="20" rx="10" ry="10" fill="#ffffff" stroke="#333333" stroke-width="1"/>
  <text x="80.0" y="196.0" font-family="Arial" font-size="12" fill="#000000" text-anchor="middle" dominant-baseline="middle">transporter</text>
  <rect x="5" y="215" width="150" height="20" rx="10" ry="10" fill="#ffffff" stroke="#333333" stroke-width="1"/>
  <text x="80.0" y="226.0" font-family="Arial" font-size="12" fill="#000000" text-anchor="middle" dominant-baseline="middle">coquilles</text>
  <rect x="5" y="245" width="150" height="20" rx="10" ry="10" fill="#ffffff" stroke="#333333" stroke-width="1"/>
  <text x="80.0" y="256.0" font-family="Arial" font-size="12" fill="#000000" text-anchor="middle" dominant-baseline="middle">réveillant</text>
  <rect x="5" y="275" width="150" height="20" rx="10" ry="10" fill="#ffffff" stroke="#333333" stroke-width="1"/>
  <text x="80.0" y="286.0" font-family="Arial" font-size="12" fill="#000000" text-anchor="middle" dominant-baseline="middle">connaissais</text>
  <rect x="5" y="305" width="150" height="20" rx="10" ry="10" fill="#ffffff" stroke="#333333" stroke-width="1"/>
  <text x="80.0" y="316.0" font-family="Arial" font-size="12" fill="#000000" text-anchor="middle" dominant-baseline="middle">souvenue</text>
  <rect x="5" y="335" width="150" height="20" rx="10" ry="10" fill="#ffffff" stroke="#333333" stroke-width="1"/>
  <text x="80.0" y="346.0" font-family="Arial" font-size="12" fill="#000000" text-anchor="middle" dominant-baseline="middle">frémit</text>
  <rect x="5" y="365" width="150" height="20" rx="10" ry="10" fill="#ffffff" stroke="#333333" stroke-width="1"/>
  <text x="80.0" y="376.0" font-family="Arial" font-size="12" fill="#000000" text-anchor="middle" dominant-baseline="middle">faibles</text>
  <rect x="5" y="395" width="150" height="20" rx="10" ry="10" fill="#ffffff" stroke="#333333" stroke-width="1"/>
  <text x="80.0" y="406.0" font-family="Arial" font-size="12" fill="#000000" text-anchor="middle" dominant-baseline="middle">gras</text>
  <rect x="5" y="425" width="150" height="20" rx="10" ry="10" fill="#ffffff" stroke="#333333" stroke-width="1"/>
  <text x="80.0" y="436.0" font-family="Arial" font-size="12" fill="#000000" text-anchor="middle" dominant-baseline="middle">chuchota</text>
  <rect x="5" y="455" width="150" height="20" rx="10" ry="10" fill="#ffffff" stroke="#333333" stroke-width="1"/>
  <text x="80.0" y="466.0" font-family="Arial" font-size="12" fill="#000000" text-anchor="middle" dominant-baseline="middle">fraîches</text>
  <rect x="255" y="5" width="150" height="20" rx="10" ry="10" fill="#ffffff" stroke="#333333" stroke-width="1"/>
  <text x="330.0" y="16.0" font-family="Arial" font-size="12" fill="#000000" text-anchor="middle" dominant-baseline="middle">safety</text>
  <rect x="255" y="35" width="150" height="20" rx="10" ry="10" fill="#ffffff" stroke="#333333" stroke-width="1"/>
  <text x="330.0" y="46.0" font-family="Arial" font-size="12" fill="#000000" text-anchor="middle" dominant-baseline="middle">pushed</text>
  <rect x="255" y="65" width="150" height="20" rx="10" ry="10" fill="#ffffff" stroke="#333333" stroke-width="1"/>
  <text x="330.0" y="76.0" font-family="Arial" font-size="12" fill="#000000" text-anchor="middle" dominant-baseline="middle">shells</text>
  <rect x="255" y="95" width="150" height="20" rx="10" ry="10" fill="#ffffff" stroke="#333333" stroke-width="1"/>
  <text x="330.0" y="106.0" font-family="Arial" font-size="12" fill="#000000" text-anchor="middle" dominant-baseline="middle">weak</text>
  <rect x="255" y="125" width="150" height="20" rx="10" ry="10" fill="#ffffff" stroke="#333333" stroke-width="1"/>
  <text x="330.0" y="136.0" font-family="Arial" font-size="12" fill="#000000" text-anchor="middle" dominant-baseline="middle">fresh</text>
  <rect x="255" y="155" width="150" height="20" rx="10" ry="10" fill="#ffffff" stroke="#333333" stroke-width="1"/>
  <text x="330.0" y="166.0" font-family="Arial" font-size="12" fill="#000000" text-anchor="middle" dominant-baseline="middle">raised</text>
  <rect x="255" y="185" width="150" height="20" rx="10" ry="10" fill="#ffffff" stroke="#333333" stroke-width="1"/>
  <text x="330.0" y="196.0" font-family="Arial" font-size="12" fill="#000000" text-anchor="middle" dominant-baseline="middle">quivers</text>
  <rect x="255" y="215" width="150" height="20" rx="10" ry="10" fill="#ffffff" stroke="#333333" stroke-width="1"/>
  <text x="330.0" y="226.0" font-family="Arial" font-size="12" fill="#000000" text-anchor="middle" dominant-baseline="middle">transport</text>
  <rect x="255" y="245" width="150" height="20" rx="10" ry="10" fill="#ffffff" stroke="#333333" stroke-width="1"/>
  <text x="330.0" y="256.0" font-family="Arial" font-size="12" fill="#000000" text-anchor="middle" dominant-baseline="middle">whispered</text>
  <rect x="255" y="275" width="150" height="20" rx="10" ry="10" fill="#ffffff" stroke="#333333" stroke-width="1"/>
  <text x="330.0" y="286.0" font-family="Arial" font-size="12" fill="#000000" text-anchor="middle" dominant-baseline="middle">thrush</text>
  <rect x="255" y="305" width="150" height="20" rx="10" ry="10" fill="#ffffff" stroke="#333333" stroke-width="1"/>
  <text x="330.0" y="316.0" font-family="Arial" font-size="12" fill="#000000" text-anchor="middle" dominant-baseline="middle">remembered</text>
  <rect x="255" y="335" width="150" height="20" rx="10" ry="10" fill="#ffffff" stroke="#333333" stroke-width="1"/>
  <text x="330.0" y="346.0" font-family="Arial" font-size="12" fill="#000000" text-anchor="middle" dominant-baseline="middle">scatterbrain</text>
  <rect x="255" y="365" width="150" height="20" rx="10" ry="10" fill="#ffffff" stroke="#333333" stroke-width="1"/>
  <text x="330.0" y="376.0" font-family="Arial" font-size="12" fill="#000000" text-anchor="middle" dominant-baseline="middle">fat</text>
  <rect x="255" y="395" width="150" height="20" rx="10" ry="10" fill="#ffffff" stroke="#333333" stroke-width="1"/>
  <text x="330.0" y="406.0" font-family="Arial" font-size="12" fill="#000000" text-anchor="middle" dominant-baseline="middle">awakening</text>
  <rect x="255" y="425" width="150" height="20" rx="10" ry="10" fill="#ffffff" stroke="#333333" stroke-width="1"/>
  <text x="330.0" y="436.0" font-family="Arial" font-size="12" fill="#000000" text-anchor="middle" dominant-baseline="middle">hard</text>
  <rect x="255" y="455" width="150" height="20" rx="10" ry="10" fill="#ffffff" stroke="#333333" stroke-width="1"/>
  <text x="330.0" y="466.0" font-family="Arial" font-size="12" fill="#000000" text-anchor="middle" dominant-baseline="middle">knew</text>
  <line x1="155" y1="195.0" x2="255" y2="225.0" stroke="blue" stroke-width="2" stroke-dasharray="5,5"/>
</svg>