<?xml version="1.0" encoding="UTF-8" standalone="no"?>
<svg width="410" height="482.5" xmlns="http://www.w3.org/2000/svg">
  <rect width="100%" height="100%" fill="#f0f0f0"/>
  <rect x="5" y="5" width="150" height="20" rx="10" ry="10" fill="#ffffff" stroke="#333333" stroke-width="1"/>
  <text x="80.0" y="16.0" font-family="Arial" font-size="12" fill="#000000" text-anchor="middle" dominant-baseline="middle">traverse</text>
  <rect x="5" y="35" width="150" height="20" rx="10" ry="10" fill="#ffffff" stroke="#333333" stroke-width="1"/>
  <text x="80.0" y="46.0" font-family="Arial" font-size="12" fill="#000000" text-anchor="middle" dominant-baseline="middle">mare</text>
  <rect x="5" y="65" width="150" height="20" rx="10" ry="10" fill="#ffffff" stroke="#333333" stroke-width="1"/>
  <text x="80.0" y="76.0" font-family="Arial" font-size="12" fill="#000000" text-anchor="middle" dominant-baseline="middle">emmène</text>
  <rect x="5" y="95" width="150" height="20" rx="10" ry="10" fill="#ffffff" stroke="#333333" stroke-width="1"/>
  <text x="80.0" y="106.0" font-family="Arial" font-size="12" fill="#000000" text-anchor="middle" dominant-baseline="middle">course</text>
  <rect x="5" y="125" width="150" height="20" rx="10" ry="10" fill="#ffffff" stroke="#333333" stroke-width="1"/>
  <text x="80.0" y="136.0" font-family="Arial" font-size="12" fill="#000000" text-anchor="middle" dominant-baseline="middle">spectaculaire</text>
  <rect x="5" y="155" width="150" height="20" rx="10" ry="10" fill="#ffffff" stroke="#333333" stroke-width="1"/>
  <text x="80.0" y="166.0" font-family="Arial" font-size="12" fill="#000000" text-anchor="middle" dominant-baseline="middle">mangé</text>
  <rect x="5" y="185" width="150" height="20" rx="10" ry="10" fill="#ffffff" stroke="#333333" stroke-width="1"/>
  <text x="80.0" y="196.0" font-family="Arial" font-size="12" fill="#000000" text-anchor="middle" dominant-baseline="middle">idées</text>
  <rect x="5" y="215" width="150" height="20" rx="10" ry="10" fill="#ffffff" stroke="#333333" stroke-width="1"/>
  <text x="80.0" y="226.0" font-family="Arial" font-size="12" fill="#000000" text-anchor="middle" dominant-baseline="middle">chardon</text>
  <rect x="5" y="245" width="150" height="20" rx="10" ry="10" fill="#ffffff" stroke="#333333" stroke-width="1"/>
  <text x="80.0" y="256.0" font-family="Arial" font-size="12" fill="#000000" text-anchor="middle" dominant-baseline="middle">secrète</text>
  <rect x="5" y="275" width="150" height="20" rx="10" ry="10" fill="#ffffff" stroke="#333333" stroke-width="1"/>
  <text x="80.0" y="286.0" font-family="Arial" font-size="12" fill="#000000" text-anchor="middle" dominant-baseline="middle">levait</text>
  <rect x="5" y="305" width="150" height="20" rx="10" ry="10" fill="#ffffff" stroke="#333333" stroke-width="1"/>
  <text x="80.0" y="316.0" font-family="Arial" font-size="12" fill="#000000" text-anchor="middle" dominant-baseline="middle">déconcertée</text>
  <rect x="5" y="335" width="150" height="20" rx="10" ry="10" fill="#ffffff" stroke="#333333" stroke-width="1"/>
  <text x="80.0" y="346.0" font-family="Arial" font-size="12" fill="#000000" text-anchor="middle" dominant-baseline="middle">battre</text>
  <rect x="5" y="365" width="150" height="20" rx="10" ry="10" fill="#ffffff" stroke="#333333" stroke-width="1"/>
  <text x="80.0" y="376.0" font-family="Arial" font-size="12" fill="#000000" text-anchor="middle" dominant-baseline="middle">devenait</text>
  <rect x="5" y="395" width="150" height="20" rx="10" ry="10" fill="#ffffff" stroke="#333333" stroke-width="1"/>
  <text x="80.0" y="406.0" font-family="Arial" font-size="12" fill="#000000" text-anchor="middle" dominant-baseline="middle">sorte</text>
  <rect x="5" y="425" width="150" height="20" rx="10" ry="10" fill="#ffffff" stroke="#333333" stroke-width="1"/>
  <text x="80.0" y="436.0" font-family="Arial" font-size="12" fill="#000000" text-anchor="middle" dominant-baseline="middle">précédent</text>
  <rect x="5" y="455" width="150" height="20" rx="10" ry="10" fill="#ffffff" stroke="#333333" stroke-width="1"/>
  <text x="80.0" y="466.0" font-family="Arial" font-size="12" fill="#000000" text-anchor="middle" dominant-baseline="middle">chagrin</text>
  <rect x="255" y="5" width="150" height="20" rx="10" ry="10" fill="#ffffff" stroke="#333333" stroke-width="1"/>
  <text x="330.0" y="16.0" font-family="Arial" font-size="12" fill="#000000" text-anchor="middle" dominant-baseline="middle">disconcerted</text>
  <rect x="255" y="35" width="150" height="20" rx="10" ry="10" fill="#ffffff" stroke="#333333" stroke-width="1"/>
  <text x="330.0" y="46.0" font-family="Arial" font-size="12" fill="#000000" text-anchor="middle" dominant-baseline="middle">pond</text>
  <rect x="255" y="65" width="150" height="20" rx="10" ry="10" fill="#ffffff" stroke="#333333" stroke-width="1"/>
  <text x="330.0" y="76.0" font-family="Arial" font-size="12" fill="#000000" text-anchor="middle" dominant-baseline="middle">lifted</text>
  <rect x="255" y="95" width="150" height="20" rx="10" ry="10" fill="#ffffff" stroke="#333333" stroke-width="1"/>
  <text x="330.0" y="106.0" font-family="Arial" font-size="12" fill="#000000" text-anchor="middle" dominant-baseline="middle">previous</text>
  <rect x="255" y="125" width="150" height="20" rx="10" ry="10" fill="#ffffff" stroke="#333333" stroke-width="1"/>
  <text x="330.0" y="136.0" font-family="Arial" font-size="12" fill="#000000" text-anchor="middle" dominant-baseline="middle">sorrow</text>
  <rect x="255" y="155" width="150" height="20" rx="10" ry="10" fill="#ffffff" stroke="#333333" stroke-width="1"/>
  <text x="330.0" y="166.0" font-family="Arial" font-size="12" fill="#000000" text-anchor="middle" dominant-baseline="middle">beat</text>
  <rect x="255" y="185" width="150" height="20" rx="10" ry="10" fill="#ffffff" stroke="#333333" stroke-width="1"/>
  <text x="330.0" y="196.0" font-family="Arial" font-size="12" fill="#000000" text-anchor="middle" dominant-baseline="middle">ideas</text>
  <rect x="255" y="215" width="150" height="20" rx="10" ry="10" fill="#ffffff" stroke="#333333" stroke-width="1"/>
  <text x="330.0" y="226.0" font-family="Arial" font-size="12" fill="#000000" text-anchor="middle" dominant-baseline="middle">kind</text>
  <rect x="255" y="245" width="150" height="20" rx="10" ry="10" fill="#ffffff" stroke="#333333" stroke-width="1"/>
  <text x="330.0" y="256.0" font-family="Arial" font-size="12" fill="#000000" text-anchor="middle" dominant-baseline="middle">thistle</text>
  <rect x="255" y="275" width="150" height="20" rx="10" ry="10" fill="#ffffff" stroke="#333333" stroke-width="1"/>
  <text x="330.0" y="286.0" font-family="Arial" font-size="12" fill="#000000" text-anchor="middle" dominant-baseline="middle">spectacular</text>
  <rect x="255" y="305" width="150" height="20" rx="10" ry="10" fill="#ffffff" stroke="#333333" stroke-width="1"/>
  <text x="330.0" y="316.0" font-family="Arial" font-size="12" fill="#000000" text-anchor="middle" dominant-baseline="middle">running</text>
  <rect x="255" y="335" width="150" height="20" rx="10" ry="10" fill="#ffffff" stroke="#333333" stroke-width="1"/>
  <text x="330.0" y="346.0" font-family="Arial" font-size="12" fill="#000000" text-anchor="middle" dominant-baseline="middle">became</text>
  <rect x="255" y="365" width="150" height="20" rx="10" ry="10" fill="#ffffff" stroke="#333333" stroke-width="1"/>
  <text x="330.0" y="376.0" font-family="Arial" font-size="12" fill="#000000" text-anchor="middle" dominant-baseline="middle">eaten</text>
  <rect x="255" y="395" width="150" height="20" rx="10" ry="10" fill="#ffffff" stroke="#333333" stroke-width="1"/>
  <text x="330.0" y="406.0" font-family="Arial" font-size="12" fill="#000000" text-anchor="middle" dominant-baseline="middle">take</text>
  <rect x="255" y="425" width="150" height="20" rx="10" ry="10" fill="#ffffff" stroke="#333333" stroke-width="1"/>
  <text x="330.0" y="436.0" font-family="Arial" font-size="12" fill="#000000" text-anchor="middle" dominant-baseline="middle">secret</text>
  <rect x="255" y="455" width="150" height="20" rx="10" ry="10" fill="#ffffff" stroke="#333333" stroke-width="1"/>
  <text x="330.0" y="466.0" font-family="Arial" font-size="12" fill="#000000" text-anchor="middle" dominant-baseline="middle">crosses</text>
  <line x1="155" y1="255.0" x2="255" y2="435.0" stroke="blue" stroke-width="2" stroke-dasharray="5,5"/>
</svg>