<?xml version="1.0" encoding="UTF-8" standalone="no"?>
<svg width="410" height="482.5" xmlns="http://www.w3.org/2000/svg">
  <rect width="100%" height="100%" fill="#f0f0f0"/>
  <rect x="5" y="5" width="150" height="20" rx="10" ry="10" fill="#ffffff" stroke="#333333" stroke-width="1"/>
  <text x="80.0" y="16.0" font-family="Arial" font-size="12" fill="#000000" text-anchor="middle" dominant-baseline="middle">dès</text>
  <rect x="5" y="35" width="150" height="20" rx="10" ry="10" fill="#ffffff" stroke="#333333" stroke-width="1"/>
  <text x="80.0" y="46.0" font-family="Arial" font-size="12" fill="#000000" text-anchor="middle" dominant-baseline="middle">avoir</text>
  <rect x="5" y="65" width="150" height="20" rx="10" ry="10" fill="#ffffff" stroke="#333333" stroke-width="1"/>
  <text x="80.0" y="76.0" font-family="Arial" font-size="12" fill="#000000" text-anchor="middle" dominant-baseline="middle">pensaient</text>
  <rect x="5" y="95" width="150" height="20" rx="10" ry="10" fill="#ffffff" stroke="#333333" stroke-width="1"/>
  <text x="80.0" y="106.0" font-family="Arial" font-size="12" fill="#000000" text-anchor="middle" dominant-baseline="middle">d'excitation</text>
  <rect x="5" y="125" width="150" height="20" rx="10" ry="10" fill="#ffffff" stroke="#333333" stroke-width="1"/>
  <text x="80.0" y="136.0" font-family="Arial" font-size="12" fill="#000000" text-anchor="middle" dominant-baseline="middle">regardé</text>
  <rect x="5" y="155" width="150" height="20" rx="10" ry="10" fill="#ffffff" stroke="#333333" stroke-width="1"/>
  <text x="80.0" y="166.0" font-family="Arial" font-size="12" fill="#000000" text-anchor="middle" dominant-baseline="middle">ambiance</text>
  <rect x="5" y="185" width="150" height="20" rx="10" ry="10" fill="#ffffff" stroke="#333333" stroke-width="1"/>
  <text x="80.0" y="196.0" font-family="Arial" font-size="12" fill="#000000" text-anchor="middle" dominant-baseline="middle">ensorceler</text>
  <rect x="5" y="215" width="150" height="20" rx="10" ry="10" fill="#ffffff" stroke="#333333" stroke-width="1"/>
  <text x="80.0" y="226.0" font-family="Arial" font-size="12" fill="#000000" text-anchor="middle" dominant-baseline="middle">pu</text>
  <rect x="5" y="245" width="150" height="20" rx="10" ry="10" fill="#ffffff" stroke="#333333" stroke-width="1"/>
  <text x="80.0" y="256.0" font-family="Arial" font-size="12" fill="#000000" text-anchor="middle" dominant-baseline="middle">traversée</text>
  <rect x="5" y="275" width="150" height="20" rx="10" ry="10" fill="#ffffff" stroke="#333333" stroke-width="1"/>
  <text x="80.0" y="286.0" font-family="Arial" font-size="12" fill="#000000" text-anchor="middle" dominant-baseline="middle">renvoyer</text>
  <rect x="5" y="305" width="150" height="20" rx="10" ry="10" fill="#ffffff" stroke="#333333" stroke-width="1"/>
  <text x="80.0" y="316.0" font-family="Arial" font-size="12" fill="#000000" text-anchor="middle" dominant-baseline="middle">fixé</text>
  <rect x="5" y="335" width="150" height="20" rx="10" ry="10" fill="#ffffff" stroke="#333333" stroke-width="1"/>
  <text x="80.0" y="346.0" font-family="Arial" font-size="12" fill="#000000" text-anchor="middle" dominant-baseline="middle">écureuils</text>
  <rect x="5" y="365" width="150" height="20" rx="10" ry="10" fill="#ffffff" stroke="#333333" stroke-width="1"/>
  <text x="80.0" y="376.0" font-family="Arial" font-size="12" fill="#000000" text-anchor="middle" dominant-baseline="middle">sent</text>
  <rect x="5" y="395" width="150" height="20" rx="10" ry="10" fill="#ffffff" stroke="#333333" stroke-width="1"/>
  <text x="80.0" y="406.0" font-family="Arial" font-size="12" fill="#000000" text-anchor="middle" dominant-baseline="middle">m'a</text>
  <rect x="5" y="425" width="150" height="20" rx="10" ry="10" fill="#ffffff" stroke="#333333" stroke-width="1"/>
  <text x="80.0" y="436.0" font-family="Arial" font-size="12" fill="#000000" text-anchor="middle" dominant-baseline="middle">piqué</text>
  <rect x="5" y="455" width="150" height="20" rx="10" ry="10" fill="#ffffff" stroke="#333333" stroke-width="1"/>
  <text x="80.0" y="466.0" font-family="Arial" font-size="12" fill="#000000" text-anchor="middle" dominant-baseline="middle">d'habitude</text>
  <rect x="255" y="5" width="150" height="20" rx="10" ry="10" fill="#ffffff" stroke="#333333" stroke-width="1"/>
  <text x="330.0" y="16.0" font-family="Arial" font-size="12" fill="#000000" text-anchor="middle" dominant-baseline="middle">from</text>
  <rect x="255" y="35" width="150" height="20" rx="10" ry="10" fill="#ffffff" stroke="#333333" stroke-width="1"/>
  <text x="330.0" y="46.0" font-family="Arial" font-size="12" fill="#000000" text-anchor="middle" dominant-baseline="middle">thought</text>
  <rect x="255" y="65" width="150" height="20" rx="10" ry="10" fill="#ffffff" stroke="#333333" stroke-width="1"/>
  <text x="330.0" y="76.0" font-family="Arial" font-size="12" fill="#000000" text-anchor="middle" dominant-baseline="middle">has</text>
  <rect x="255" y="95" width="150" height="20" rx="10" ry="10" fill="#ffffff" stroke="#333333" stroke-width="1"/>
  <text x="330.0" y="106.0" font-family="Arial" font-size="12" fill="#000000" text-anchor="middle" dominant-baseline="middle">dismiss</text>
  <rect x="255" y="125" width="150" height="20" rx="10" ry="10" fill="#ffffff" stroke="#333333" stroke-width="1"/>
  <text x="330.0" y="136.0" font-family="Arial" font-size="12" fill="#000000" text-anchor="middle" dominant-baseline="middle">have</text>
  <rect x="255" y="155" width="150" height="20" rx="10" ry="10" fill="#ffffff" stroke="#333333" stroke-width="1"/>
  <text x="330.0" y="166.0" font-family="Arial" font-size="12" fill="#000000" text-anchor="middle" dominant-baseline="middle">watched</text>
  <rect x="255" y="185" width="150" height="20" rx="10" ry="10" fill="#ffffff" stroke="#333333" stroke-width="1"/>
  <text x="330.0" y="196.0" font-family="Arial" font-size="12" fill="#000000" text-anchor="middle" dominant-baseline="middle">thrown</text>
  <rect x="255" y="215" width="150" height="20" rx="10" ry="10" fill="#ffffff" stroke="#333333" stroke-width="1"/>
  <text x="330.0" y="226.0" font-family="Arial" font-size="12" fill="#000000" text-anchor="middle" dominant-baseline="middle">usually</text>
  <rect x="255" y="245" width="150" height="20" rx="10" ry="10" fill="#ffffff" stroke="#333333" stroke-width="1"/>
  <text x="330.0" y="256.0" font-family="Arial" font-size="12" fill="#000000" text-anchor="middle" dominant-baseline="middle">crossed</text>
  <rect x="255" y="275" width="150" height="20" rx="10" ry="10" fill="#ffffff" stroke="#333333" stroke-width="1"/>
  <text x="330.0" y="286.0" font-family="Arial" font-size="12" fill="#000000" text-anchor="middle" dominant-baseline="middle">excitement</text>
  <rect x="255" y="305" width="150" height="20" rx="10" ry="10" fill="#ffffff" stroke="#333333" stroke-width="1"/>
  <text x="330.0" y="316.0" font-family="Arial" font-size="12" fill="#000000" text-anchor="middle" dominant-baseline="middle">squirrels</text>
  <rect x="255" y="335" width="150" height="20" rx="10" ry="10" fill="#ffffff" stroke="#333333" stroke-width="1"/>
  <text x="330.0" y="346.0" font-family="Arial" font-size="12" fill="#000000" text-anchor="middle" dominant-baseline="middle">feels</text>
  <rect x="255" y="365" width="150" height="20" rx="10" ry="10" fill="#ffffff" stroke="#333333" stroke-width="1"/>
  <text x="330.0" y="376.0" font-family="Arial" font-size="12" fill="#000000" text-anchor="middle" dominant-baseline="middle">could</text>
  <rect x="255" y="395" width="150" height="20" rx="10" ry="10" fill="#ffffff" stroke="#333333" stroke-width="1"/>
  <text x="330.0" y="406.0" font-family="Arial" font-size="12" fill="#000000" text-anchor="middle" dominant-baseline="middle">bewitch</text>
  <rect x="255" y="425" width="150" height="20" rx="10" ry="10" fill="#ffffff" stroke="#333333" stroke-width="1"/>
  <text x="330.0" y="436.0" font-family="Arial" font-size="12" fill="#000000" text-anchor="middle" dominant-baseline="middle">mood</text>
  <rect x="255" y="455" width="150" height="20" rx="10" ry="10" fill="#ffffff" stroke="#333333" stroke-width="1"/>
  <text x="330.0" y="466.0" font-family="Arial" font-size="12" fill="#000000" text-anchor="middle" dominant-baseline="middle">stared</text>
  <line x1="155" y1="435.0" x2="255" y2="195.0" stroke="blue" stroke-width="2" stroke-dasharray="5,5"/>
</svg>